<?xml version="1.0" encoding="UTF-8" standalone="no"?>
<!DOCTYPE svg PUBLIC "-//W3C//DTD SVG 1.1//EN"
 "http://www.w3.org/Graphics/SVG/1.1/DTD/svg11.dtd">
<!-- Generated by graphviz version 2.40.1 (20161225.0304)
 -->
<!-- Title: G Pages: 1 -->
<svg width="1002pt" height="2346pt"
 viewBox="0.00 0.00 1002.00 2346.00" xmlns="http://www.w3.org/2000/svg" xmlns:xlink="http://www.w3.org/1999/xlink">
<g id="graph0" class="graph" transform="scale(1 1) rotate(0) translate(4 2342)">
<title>G</title>
<polygon fill="white" stroke="transparent" points="-4,4 -4,-2342 998,-2342 998,4 -4,4"/>
<g id="clust1" class="cluster">
<title>cluster_Global</title>
<path fill="none" stroke="gray" d="M20,-44C20,-44 974,-44 974,-44 980,-44 986,-50 986,-56 986,-56 986,-2318 986,-2318 986,-2324 980,-2330 974,-2330 974,-2330 20,-2330 20,-2330 14,-2330 8,-2324 8,-2318 8,-2318 8,-56 8,-56 8,-50 14,-44 20,-44"/>
<text text-anchor="middle" x="497" y="-2317.2" font-family="Times,serif" font-size="11.00" fill="gray">Global</text>
</g>
<g id="clust2" class="cluster">
<title>cluster_\Google</title>
<path fill="none" stroke="gray" d="M28,-52C28,-52 966,-52 966,-52 972,-52 978,-58 978,-64 978,-64 978,-2290 978,-2290 978,-2296 972,-2302 966,-2302 966,-2302 28,-2302 28,-2302 22,-2302 16,-2296 16,-2290 16,-2290 16,-64 16,-64 16,-58 22,-52 28,-52"/>
<text text-anchor="middle" x="497" y="-2289.2" font-family="Times,serif" font-size="11.00" fill="gray">Google</text>
</g>
<g id="clust3" class="cluster">
<title>cluster_\Google\AdsApi</title>
<path fill="none" stroke="gray" d="M36,-60C36,-60 958,-60 958,-60 964,-60 970,-66 970,-72 970,-72 970,-2262 970,-2262 970,-2268 964,-2274 958,-2274 958,-2274 36,-2274 36,-2274 30,-2274 24,-2268 24,-2262 24,-2262 24,-72 24,-72 24,-66 30,-60 36,-60"/>
<text text-anchor="middle" x="497" y="-2261.2" font-family="Times,serif" font-size="11.00" fill="gray">AdsApi</text>
</g>
<g id="clust4" class="cluster">
<title>cluster_\Google\AdsApi\Common</title>
<path fill="none" stroke="gray" d="M44,-68C44,-68 591.5,-68 591.5,-68 597.5,-68 603.5,-74 603.5,-80 603.5,-80 603.5,-2234 603.5,-2234 603.5,-2240 597.5,-2246 591.5,-2246 591.5,-2246 44,-2246 44,-2246 38,-2246 32,-2240 32,-2234 32,-2234 32,-80 32,-80 32,-74 38,-68 44,-68"/>
<text text-anchor="middle" x="317.75" y="-2233.2" font-family="Times,serif" font-size="11.00" fill="gray">Common</text>
</g>
<g id="clust5" class="cluster">
<title>cluster_\Google\AdsApi\Common\Testing</title>
<path fill="none" stroke="gray" d="M342.5,-1822C342.5,-1822 583.5,-1822 583.5,-1822 589.5,-1822 595.5,-1828 595.5,-1834 595.5,-1834 595.5,-2206 595.5,-2206 595.5,-2212 589.5,-2218 583.5,-2218 583.5,-2218 342.5,-2218 342.5,-2218 336.5,-2218 330.5,-2212 330.5,-2206 330.5,-2206 330.5,-1834 330.5,-1834 330.5,-1828 336.5,-1822 342.5,-1822"/>
<text text-anchor="middle" x="463" y="-2205.2" font-family="Times,serif" font-size="11.00" fill="gray">Testing</text>
</g>
<g id="clust6" class="cluster">
<title>cluster_\Google\AdsApi\Common\Util</title>
<path fill="none" stroke="gray" d="M376,-1418C376,-1418 550,-1418 550,-1418 556,-1418 562,-1424 562,-1430 562,-1430 562,-1802 562,-1802 562,-1808 556,-1814 550,-1814 550,-1814 376,-1814 376,-1814 370,-1814 364,-1808 364,-1802 364,-1802 364,-1430 364,-1430 364,-1424 370,-1418 376,-1418"/>
<text text-anchor="middle" x="463" y="-1801.2" font-family="Times,serif" font-size="11.00" fill="gray">Util</text>
</g>
<g id="clust7" class="cluster">
<title>cluster_\Google\AdsApi\Dfp</title>
<path fill="none" stroke="gray" d="M671,-68C671,-68 950,-68 950,-68 956,-68 962,-74 962,-80 962,-80 962,-1834 962,-1834 962,-1840 956,-1846 950,-1846 950,-1846 671,-1846 671,-1846 665,-1846 659,-1840 659,-1834 659,-1834 659,-80 659,-80 659,-74 665,-68 671,-68"/>
<text text-anchor="middle" x="810.5" y="-1833.2" font-family="Times,serif" font-size="11.00" fill="gray">Dfp</text>
</g>
<g id="clust8" class="cluster">
<title>cluster_\Google\AdsApi\Dfp\Util</title>
<path fill="none" stroke="gray" d="M738,-444C738,-444 883,-444 883,-444 889,-444 895,-450 895,-456 895,-456 895,-1806 895,-1806 895,-1812 889,-1818 883,-1818 883,-1818 738,-1818 738,-1818 732,-1818 726,-1812 726,-1806 726,-1806 726,-456 726,-456 726,-450 732,-444 738,-444"/>
<text text-anchor="middle" x="810.5" y="-1805.2" font-family="Times,serif" font-size="11.00" fill="gray">Util</text>
</g>
<g id="clust9" class="cluster">
<title>cluster_\Google\AdsApi\Dfp\Util\v201708</title>
<path fill="none" stroke="gray" d="M746,-1502C746,-1502 875,-1502 875,-1502 881,-1502 887,-1508 887,-1514 887,-1514 887,-1778 887,-1778 887,-1784 881,-1790 875,-1790 875,-1790 746,-1790 746,-1790 740,-1790 734,-1784 734,-1778 734,-1778 734,-1514 734,-1514 734,-1508 740,-1502 746,-1502"/>
<text text-anchor="middle" x="810.5" y="-1777.2" font-family="Times,serif" font-size="11.00" fill="gray">v201708</text>
</g>
<g id="clust10" class="cluster">
<title>cluster_\Google\AdsApi\Dfp\Util\v201711</title>
<path fill="none" stroke="gray" d="M746,-1152C746,-1152 875,-1152 875,-1152 881,-1152 887,-1158 887,-1164 887,-1164 887,-1482 887,-1482 887,-1488 881,-1494 875,-1494 875,-1494 746,-1494 746,-1494 740,-1494 734,-1488 734,-1482 734,-1482 734,-1164 734,-1164 734,-1158 740,-1152 746,-1152"/>
<text text-anchor="middle" x="810.5" y="-1481.2" font-family="Times,serif" font-size="11.00" fill="gray">v201711</text>
</g>
<g id="clust11" class="cluster">
<title>cluster_\Google\AdsApi\Dfp\Util\v201802</title>
<path fill="none" stroke="gray" d="M746,-802C746,-802 875,-802 875,-802 881,-802 887,-808 887,-814 887,-814 887,-1132 887,-1132 887,-1138 881,-1144 875,-1144 875,-1144 746,-1144 746,-1144 740,-1144 734,-1138 734,-1132 734,-1132 734,-814 734,-814 734,-808 740,-802 746,-802"/>
<text text-anchor="middle" x="810.5" y="-1131.2" font-family="Times,serif" font-size="11.00" fill="gray">v201802</text>
</g>
<g id="clust12" class="cluster">
<title>cluster_\Google\AdsApi\Dfp\Util\v201805</title>
<path fill="none" stroke="gray" d="M746,-452C746,-452 875,-452 875,-452 881,-452 887,-458 887,-464 887,-464 887,-782 887,-782 887,-788 881,-794 875,-794 875,-794 746,-794 746,-794 740,-794 734,-788 734,-782 734,-782 734,-464 734,-464 734,-458 740,-452 746,-452"/>
<text text-anchor="middle" x="810.5" y="-781.2" font-family="Times,serif" font-size="11.00" fill="gray">v201805</text>
</g>
<!-- \\Google\\AdsApi\\Common\\Testing\\AdsBuildersTestProvider -->
<g id="node1" class="node">
<title>\\Google\\AdsApi\\Common\\Testing\\AdsBuildersTestProvider</title>
<polygon fill="none" stroke="black" points="557.5,-2190 368.5,-2190 368.5,-2154 557.5,-2154 557.5,-2190"/>
<text text-anchor="middle" x="463" y="-2169.2" font-family="Courier,monospace" font-size="11.00">AdsBuildersTestProvider</text>
</g>
<!-- \\Google\\AdsApi\\Common\\Testing\\ApplicationNames -->
<g id="node2" class="node">
<title>\\Google\\AdsApi\\Common\\Testing\\ApplicationNames</title>
<polygon fill="none" stroke="black" points="531.5,-2136 394.5,-2136 394.5,-2100 531.5,-2100 531.5,-2136"/>
<text text-anchor="middle" x="463" y="-2115.2" font-family="Courier,monospace" font-size="11.00">ApplicationNames</text>
</g>
<!-- \\Google\\AdsApi\\Common\\Testing\\ConfigurationLoaderTestProvider -->
<g id="node3" class="node">
<title>\\Google\\AdsApi\\Common\\Testing\\ConfigurationLoaderTestProvider</title>
<polygon fill="none" stroke="black" points="587.5,-2082 338.5,-2082 338.5,-2046 587.5,-2046 587.5,-2082"/>
<text text-anchor="middle" x="463" y="-2061.2" font-family="Courier,monospace" font-size="11.00">ConfigurationLoaderTestProvider</text>
</g>
<!-- \\Google\\AdsApi\\Common\\Testing\\FakeHttpPayloadsAndLogsProvider -->
<g id="node4" class="node">
<title>\\Google\\AdsApi\\Common\\Testing\\FakeHttpPayloadsAndLogsProvider</title>
<polygon fill="none" stroke="black" points="587.5,-2028 338.5,-2028 338.5,-1992 587.5,-1992 587.5,-2028"/>
<text text-anchor="middle" x="463" y="-2007.2" font-family="Courier,monospace" font-size="11.00">FakeHttpPayloadsAndLogsProvider</text>
</g>
<!-- \\Google\\AdsApi\\Common\\Testing\\FakeInvalidMapEntry -->
<g id="node5" class="node">
<title>\\Google\\AdsApi\\Common\\Testing\\FakeInvalidMapEntry</title>
<polygon fill="none" stroke="black" points="542.5,-1974 383.5,-1974 383.5,-1938 542.5,-1938 542.5,-1974"/>
<text text-anchor="middle" x="463" y="-1953.2" font-family="Courier,monospace" font-size="11.00">FakeInvalidMapEntry</text>
</g>
<!-- \\Google\\AdsApi\\Common\\Testing\\FakeMapEntry -->
<g id="node6" class="node">
<title>\\Google\\AdsApi\\Common\\Testing\\FakeMapEntry</title>
<polygon fill="none" stroke="black" points="516.5,-1920 409.5,-1920 409.5,-1884 516.5,-1884 516.5,-1920"/>
<text text-anchor="middle" x="463" y="-1899.2" font-family="Courier,monospace" font-size="11.00">FakeMapEntry</text>
</g>
<!-- \\Google\\AdsApi\\Common\\Testing\\FakeSoapPayloadsAndLogsProvider -->
<g id="node7" class="node">
<title>\\Google\\AdsApi\\Common\\Testing\\FakeSoapPayloadsAndLogsProvider</title>
<polygon fill="none" stroke="black" points="587.5,-1866 338.5,-1866 338.5,-1830 587.5,-1830 587.5,-1866"/>
<text text-anchor="middle" x="463" y="-1845.2" font-family="Courier,monospace" font-size="11.00">FakeSoapPayloadsAndLogsProvider</text>
</g>
<!-- \\Google\\AdsApi\\Common\\Util\\EnvironmentalVariables -->
<g id="node8" class="node">
<title>\\Google\\AdsApi\\Common\\Util\\EnvironmentalVariables</title>
<polygon fill="none" stroke="black" points="554,-1786 372,-1786 372,-1750 554,-1750 554,-1786"/>
<text text-anchor="middle" x="463" y="-1765.2" font-family="Courier,monospace" font-size="11.00">EnvironmentalVariables</text>
</g>
<!-- \\Google\\AdsApi\\Common\\Util\\LogMessageScrubbers -->
<g id="node9" class="node">
<title>\\Google\\AdsApi\\Common\\Util\\LogMessageScrubbers</title>
<polygon fill="none" stroke="black" points="542.5,-1732 383.5,-1732 383.5,-1696 542.5,-1696 542.5,-1732"/>
<text text-anchor="middle" x="463" y="-1711.2" font-family="Courier,monospace" font-size="11.00">LogMessageScrubbers</text>
</g>
<!-- \\Google\\AdsApi\\Common\\Util\\MapEntries -->
<g id="node10" class="node">
<title>\\Google\\AdsApi\\Common\\Util\\MapEntries</title>
<polygon fill="none" stroke="black" points="509,-1678 417,-1678 417,-1642 509,-1642 509,-1678"/>
<text text-anchor="middle" x="463" y="-1657.2" font-family="Courier,monospace" font-size="11.00">MapEntries</text>
</g>
<!-- \\Google\\AdsApi\\Common\\Util\\OAuth2TokenRefresher -->
<g id="node11" class="node">
<title>\\Google\\AdsApi\\Common\\Util\\OAuth2TokenRefresher</title>
<polygon fill="none" stroke="black" points="546.5,-1624 379.5,-1624 379.5,-1588 546.5,-1588 546.5,-1624"/>
<text text-anchor="middle" x="463" y="-1603.2" font-family="Courier,monospace" font-size="11.00">OAuth2TokenRefresher</text>
</g>
<!-- \\Google\\AdsApi\\Common\\Util\\Reflection -->
<g id="node12" class="node">
<title>\\Google\\AdsApi\\Common\\Util\\Reflection</title>
<polygon fill="none" stroke="black" points="509,-1570 417,-1570 417,-1534 509,-1534 509,-1570"/>
<text text-anchor="middle" x="463" y="-1549.2" font-family="Courier,monospace" font-size="11.00">Reflection</text>
</g>
<!-- \\Google\\AdsApi\\Common\\Util\\SoapHeaders -->
<g id="node13" class="node">
<title>\\Google\\AdsApi\\Common\\Util\\SoapHeaders</title>
<polygon fill="none" stroke="black" points="512.5,-1516 413.5,-1516 413.5,-1480 512.5,-1480 512.5,-1516"/>
<text text-anchor="middle" x="463" y="-1495.2" font-family="Courier,monospace" font-size="11.00">SoapHeaders</text>
</g>
<!-- \\Google\\AdsApi\\Common\\Util\\SoapRequests -->
<g id="node14" class="node">
<title>\\Google\\AdsApi\\Common\\Util\\SoapRequests</title>
<polygon fill="none" stroke="black" points="516.5,-1462 409.5,-1462 409.5,-1426 516.5,-1426 516.5,-1462"/>
<text text-anchor="middle" x="463" y="-1441.2" font-family="Courier,monospace" font-size="11.00">SoapRequests</text>
</g>
<!-- \\Google\\AdsApi\\Common\\AdsGuzzleHttpClientFactory -->
<g id="node15" class="node">
<title>\\Google\\AdsApi\\Common\\AdsGuzzleHttpClientFactory</title>
<polygon fill="none" stroke="black" points="569,-1408 357,-1408 357,-1372 569,-1372 569,-1408"/>
<text text-anchor="middle" x="463" y="-1387.2" font-family="Courier,monospace" font-size="11.00">AdsGuzzleHttpClientFactory</text>
</g>
<!-- \\Google\\AdsApi\\Common\\GuzzleHttpClientFactory -->
<g id="node40" class="node">
<title>\\Google\\AdsApi\\Common\\GuzzleHttpClientFactory</title>
<polygon fill="none" stroke="black" points="244,-1408 55,-1408 55,-1372 244,-1372 244,-1408"/>
<text text-anchor="middle" x="149.5" y="-1387.2" font-family="Courier,monospace" font-size="11.00">GuzzleHttpClientFactory</text>
</g>
<!-- \\Google\\AdsApi\\Common\\AdsGuzzleHttpClientFactory&#45;&gt;\\Google\\AdsApi\\Common\\GuzzleHttpClientFactory -->
<g id="edge1" class="edge">
<title>\\Google\\AdsApi\\Common\\AdsGuzzleHttpClientFactory&#45;&gt;\\Google\\AdsApi\\Common\\GuzzleHttpClientFactory</title>
<path fill="none" stroke="black" stroke-dasharray="1,5" d="M356.8632,-1390C323.7816,-1390 287.3307,-1390 254.3385,-1390"/>
<polygon fill="none" stroke="black" points="254.2182,-1386.5001 244.2182,-1390 254.2181,-1393.5001 254.2182,-1386.5001"/>
</g>
<!-- \\Google\\AdsApi\\Common\\AdsGuzzleProxyHttpHandler -->
<g id="node16" class="node">
<title>\\Google\\AdsApi\\Common\\AdsGuzzleProxyHttpHandler</title>
<polygon fill="none" stroke="black" points="565,-1354 361,-1354 361,-1318 565,-1318 565,-1354"/>
<text text-anchor="middle" x="463" y="-1333.2" font-family="Courier,monospace" font-size="11.00">AdsGuzzleProxyHttpHandler</text>
</g>
<!-- \\Google\\AdsApi\\Common\\AdsHeaderFormatter -->
<g id="node17" class="node">
<title>\\Google\\AdsApi\\Common\\AdsHeaderFormatter</title>
<polygon fill="none" stroke="black" points="539,-1300 387,-1300 387,-1264 539,-1264 539,-1300"/>
<text text-anchor="middle" x="463" y="-1279.2" font-family="Courier,monospace" font-size="11.00">AdsHeaderFormatter</text>
</g>
<!-- \\Google\\AdsApi\\Common\\AdsLoggerFactory -->
<g id="node18" class="node">
<title>\\Google\\AdsApi\\Common\\AdsLoggerFactory</title>
<polygon fill="none" stroke="black" points="531.5,-1246 394.5,-1246 394.5,-1210 531.5,-1210 531.5,-1246"/>
<text text-anchor="middle" x="463" y="-1225.2" font-family="Courier,monospace" font-size="11.00">AdsLoggerFactory</text>
</g>
<!-- \\Google\\AdsApi\\Common\\AdsSoapClient -->
<g id="node19" class="node">
<title>\\Google\\AdsApi\\Common\\AdsSoapClient</title>
<polygon fill="none" stroke="black" points="520,-436 406,-436 406,-400 520,-400 520,-436"/>
<text text-anchor="middle" x="463" y="-415.2" font-family="Courier,monospace" font-size="11.00">AdsSoapClient</text>
</g>
<!-- \\SoapClient -->
<g id="node73" class="node">
<title>\\SoapClient</title>
<ellipse fill="none" stroke="black" cx="149.5" cy="-18" rx="64.189" ry="18"/>
<text text-anchor="middle" x="149.5" y="-14.3" font-family="Times,serif" font-size="14.00" fill="gray">\SoapClient</text>
</g>
<!-- \\Google\\AdsApi\\Common\\AdsSoapClient&#45;&gt;\\SoapClient -->
<g id="edge2" class="edge">
<title>\\Google\\AdsApi\\Common\\AdsSoapClient&#45;&gt;\\SoapClient</title>
<path fill="none" stroke="black" d="M405.8654,-419.8476C379.6684,-417.6424 350.1437,-410.3658 330.5,-391 224.5593,-286.5578 354.1743,-178.3392 259,-64 246.7009,-49.2243 228.8364,-39.1097 211.0916,-32.221"/>
<polygon fill="none" stroke="black" points="211.8765,-28.7848 201.2818,-28.7166 209.5216,-35.3768 211.8765,-28.7848"/>
</g>
<!-- \\Google\\AdsApi\\Common\\AdsSoapClientFactory -->
<g id="node20" class="node">
<title>\\Google\\AdsApi\\Common\\AdsSoapClientFactory</title>
<polygon fill="none" stroke="black" points="546.5,-1138 379.5,-1138 379.5,-1102 546.5,-1102 546.5,-1138"/>
<text text-anchor="middle" x="463" y="-1117.2" font-family="Courier,monospace" font-size="11.00">AdsSoapClientFactory</text>
</g>
<!-- \\Google\\AdsApi\\Common\\AdsUtility -->
<g id="node21" class="node">
<title>\\Google\\AdsApi\\Common\\AdsUtility</title>
<polygon fill="none" stroke="black" points="509,-1084 417,-1084 417,-1048 509,-1048 509,-1084"/>
<text text-anchor="middle" x="463" y="-1063.2" font-family="Courier,monospace" font-size="11.00">AdsUtility</text>
</g>
<!-- \\Google\\AdsApi\\Common\\AdsUtilityRegistry -->
<g id="node22" class="node">
<title>\\Google\\AdsApi\\Common\\AdsUtilityRegistry</title>
<polygon fill="none" stroke="black" points="539,-1192 387,-1192 387,-1156 539,-1156 539,-1192"/>
<text text-anchor="middle" x="463" y="-1171.2" font-family="Courier,monospace" font-size="11.00">AdsUtilityRegistry</text>
</g>
<!-- \\Google\\AdsApi\\Common\\AdsUtilityRegistryInterface -->
<g id="node39" class="node">
<title>\\Google\\AdsApi\\Common\\AdsUtilityRegistryInterface</title>
<polygon fill="none" stroke="black" points="259,-1192 40,-1192 40,-1156 259,-1156 259,-1192"/>
<text text-anchor="middle" x="149.5" y="-1171.2" font-family="Courier,monospace" font-size="11.00">AdsUtilityRegistryInterface</text>
</g>
<!-- \\Google\\AdsApi\\Common\\AdsUtilityRegistry&#45;&gt;\\Google\\AdsApi\\Common\\AdsUtilityRegistryInterface -->
<g id="edge3" class="edge">
<title>\\Google\\AdsApi\\Common\\AdsUtilityRegistry&#45;&gt;\\Google\\AdsApi\\Common\\AdsUtilityRegistryInterface</title>
<path fill="none" stroke="black" stroke-dasharray="1,5" d="M386.7102,-1174C351.4467,-1174 308.7296,-1174 269.3159,-1174"/>
<polygon fill="none" stroke="black" points="269.1054,-1170.5001 259.1054,-1174 269.1053,-1177.5001 269.1054,-1170.5001"/>
</g>
<!-- \\Google\\AdsApi\\Common\\Configuration -->
<g id="node23" class="node">
<title>\\Google\\AdsApi\\Common\\Configuration</title>
<polygon fill="none" stroke="black" points="520,-976 406,-976 406,-940 520,-940 520,-976"/>
<text text-anchor="middle" x="463" y="-955.2" font-family="Courier,monospace" font-size="11.00">Configuration</text>
</g>
<!-- \\Google\\AdsApi\\Common\\ConfigurationLoader -->
<g id="node24" class="node">
<title>\\Google\\AdsApi\\Common\\ConfigurationLoader</title>
<polygon fill="none" stroke="black" points="542.5,-922 383.5,-922 383.5,-886 542.5,-886 542.5,-922"/>
<text text-anchor="middle" x="463" y="-901.2" font-family="Courier,monospace" font-size="11.00">ConfigurationLoader</text>
</g>
<!-- \\Google\\AdsApi\\Common\\ConnectionSettings -->
<g id="node25" class="node">
<title>\\Google\\AdsApi\\Common\\ConnectionSettings</title>
<polygon fill="none" stroke="black" points="539,-868 387,-868 387,-832 539,-832 539,-868"/>
<text text-anchor="middle" x="463" y="-847.2" font-family="Courier,monospace" font-size="11.00">ConnectionSettings</text>
</g>
<!-- \\Google\\AdsApi\\Common\\ConnectionSettingsBuilder -->
<g id="node26" class="node">
<title>\\Google\\AdsApi\\Common\\ConnectionSettingsBuilder</title>
<polygon fill="none" stroke="black" points="565,-1030 361,-1030 361,-994 565,-994 565,-1030"/>
<text text-anchor="middle" x="463" y="-1009.2" font-family="Courier,monospace" font-size="11.00">ConnectionSettingsBuilder</text>
</g>
<!-- \\Google\\AdsApi\\Common\\AdsBuilder -->
<g id="node34" class="node">
<title>\\Google\\AdsApi\\Common\\AdsBuilder</title>
<polygon fill="none" stroke="black" points="195.5,-922 103.5,-922 103.5,-886 195.5,-886 195.5,-922"/>
<text text-anchor="middle" x="149.5" y="-901.2" font-family="Courier,monospace" font-size="11.00">AdsBuilder</text>
</g>
<!-- \\Google\\AdsApi\\Common\\ConnectionSettingsBuilder&#45;&gt;\\Google\\AdsApi\\Common\\AdsBuilder -->
<g id="edge4" class="edge">
<title>\\Google\\AdsApi\\Common\\ConnectionSettingsBuilder&#45;&gt;\\Google\\AdsApi\\Common\\AdsBuilder</title>
<path fill="none" stroke="black" stroke-dasharray="1,5" d="M362.5522,-993.9712C351.6459,-991.2918 340.7813,-988.3036 330.5,-985 281.9086,-969.3865 228.8952,-944.692 192.8773,-926.6707"/>
<polygon fill="none" stroke="black" points="194.1484,-923.3917 183.6439,-922.0105 190.9943,-929.6409 194.1484,-923.3917"/>
</g>
<!-- \\Google\\AdsApi\\Common\\GuzzleLogMessageFormatter -->
<g id="node27" class="node">
<title>\\Google\\AdsApi\\Common\\GuzzleLogMessageFormatter</title>
<polygon fill="none" stroke="black" points="565,-760 361,-760 361,-724 565,-724 565,-760"/>
<text text-anchor="middle" x="463" y="-739.2" font-family="Courier,monospace" font-size="11.00">GuzzleLogMessageFormatter</text>
</g>
<!-- \\Google\\AdsApi\\Common\\GuzzleLogMessageHandler -->
<g id="node28" class="node">
<title>\\Google\\AdsApi\\Common\\GuzzleLogMessageHandler</title>
<polygon fill="none" stroke="black" points="557.5,-706 368.5,-706 368.5,-670 557.5,-670 557.5,-706"/>
<text text-anchor="middle" x="463" y="-685.2" font-family="Courier,monospace" font-size="11.00">GuzzleLogMessageHandler</text>
</g>
<!-- \\Google\\AdsApi\\Common\\LibraryMetadataProvider -->
<g id="node29" class="node">
<title>\\Google\\AdsApi\\Common\\LibraryMetadataProvider</title>
<polygon fill="none" stroke="black" points="557.5,-652 368.5,-652 368.5,-616 557.5,-616 557.5,-652"/>
<text text-anchor="middle" x="463" y="-631.2" font-family="Courier,monospace" font-size="11.00">LibraryMetadataProvider</text>
</g>
<!-- \\Google\\AdsApi\\Common\\OAuth2TokenBuilder -->
<g id="node30" class="node">
<title>\\Google\\AdsApi\\Common\\OAuth2TokenBuilder</title>
<polygon fill="none" stroke="black" points="539,-814 387,-814 387,-778 539,-778 539,-814"/>
<text text-anchor="middle" x="463" y="-793.2" font-family="Courier,monospace" font-size="11.00">OAuth2TokenBuilder</text>
</g>
<!-- \\Google\\AdsApi\\Common\\OAuth2TokenBuilder&#45;&gt;\\Google\\AdsApi\\Common\\AdsBuilder -->
<g id="edge5" class="edge">
<title>\\Google\\AdsApi\\Common\\OAuth2TokenBuilder&#45;&gt;\\Google\\AdsApi\\Common\\AdsBuilder</title>
<path fill="none" stroke="black" stroke-dasharray="1,5" d="M386.9332,-808.5184C368.2709,-812.4034 348.4923,-817.2186 330.5,-823 281.9086,-838.6135 228.8952,-863.308 192.8773,-881.3293"/>
<polygon fill="none" stroke="black" points="190.9943,-878.3591 183.6439,-885.9895 194.1484,-884.6083 190.9943,-878.3591"/>
</g>
<!-- \\Google\\AdsApi\\Common\\SoapLogMessageFormatter -->
<g id="node31" class="node">
<title>\\Google\\AdsApi\\Common\\SoapLogMessageFormatter</title>
<polygon fill="none" stroke="black" points="557.5,-544 368.5,-544 368.5,-508 557.5,-508 557.5,-544"/>
<text text-anchor="middle" x="463" y="-523.2" font-family="Courier,monospace" font-size="11.00">SoapLogMessageFormatter</text>
</g>
<!-- \\Google\\AdsApi\\Common\\SoapSettings -->
<g id="node32" class="node">
<title>\\Google\\AdsApi\\Common\\SoapSettings</title>
<polygon fill="none" stroke="black" points="516.5,-490 409.5,-490 409.5,-454 516.5,-454 516.5,-490"/>
<text text-anchor="middle" x="463" y="-469.2" font-family="Courier,monospace" font-size="11.00">SoapSettings</text>
</g>
<!-- \\Google\\AdsApi\\Common\\SoapSettingsBuilder -->
<g id="node33" class="node">
<title>\\Google\\AdsApi\\Common\\SoapSettingsBuilder</title>
<polygon fill="none" stroke="black" points="542.5,-598 383.5,-598 383.5,-562 542.5,-562 542.5,-598"/>
<text text-anchor="middle" x="463" y="-577.2" font-family="Courier,monospace" font-size="11.00">SoapSettingsBuilder</text>
</g>
<!-- \\Google\\AdsApi\\Common\\SoapSettingsBuilder&#45;&gt;\\Google\\AdsApi\\Common\\AdsBuilder -->
<g id="edge6" class="edge">
<title>\\Google\\AdsApi\\Common\\SoapSettingsBuilder&#45;&gt;\\Google\\AdsApi\\Common\\AdsBuilder</title>
<path fill="none" stroke="black" stroke-dasharray="1,5" d="M383.3707,-585.3565C364.8065,-589.4387 345.9656,-596.139 330.5,-607 232.6059,-675.748 177.8318,-815.9512 158.0641,-875.8492"/>
<polygon fill="none" stroke="black" points="154.6138,-875.1454 154.8803,-885.7369 161.2769,-877.2909 154.6138,-875.1454"/>
</g>
<!-- \\Google\\AdsApi\\Common\\AdsHeaderHandler -->
<g id="node35" class="node">
<title>\\Google\\AdsApi\\Common\\AdsHeaderHandler</title>
<polygon fill="none" stroke="black" points="531.5,-220 394.5,-220 394.5,-184 531.5,-184 531.5,-220"/>
<text text-anchor="middle" x="463" y="-199.2" font-family="Courier,monospace" font-size="11.00">AdsHeaderHandler</text>
</g>
<!-- \\Google\\AdsApi\\Common\\AdsServiceDescriptor -->
<g id="node36" class="node">
<title>\\Google\\AdsApi\\Common\\AdsServiceDescriptor</title>
<polygon fill="none" stroke="black" points="546.5,-166 379.5,-166 379.5,-130 546.5,-130 546.5,-166"/>
<text text-anchor="middle" x="463" y="-145.2" font-family="Courier,monospace" font-size="11.00">AdsServiceDescriptor</text>
</g>
<!-- \\Google\\AdsApi\\Common\\AdsServices -->
<g id="node37" class="node">
<title>\\Google\\AdsApi\\Common\\AdsServices</title>
<polygon fill="none" stroke="black" points="512.5,-112 413.5,-112 413.5,-76 512.5,-76 512.5,-112"/>
<text text-anchor="middle" x="463" y="-91.2" font-family="Courier,monospace" font-size="11.00">AdsServices</text>
</g>
<!-- \\Google\\AdsApi\\Common\\AdsSession -->
<g id="node38" class="node">
<title>\\Google\\AdsApi\\Common\\AdsSession</title>
<polygon fill="none" stroke="black" points="509,-382 417,-382 417,-346 509,-346 509,-382"/>
<text text-anchor="middle" x="463" y="-361.2" font-family="Courier,monospace" font-size="11.00">AdsSession</text>
</g>
<!-- \\Google\\AdsApi\\Common\\GuzzleLogMessageFormatterProvider -->
<g id="node41" class="node">
<title>\\Google\\AdsApi\\Common\\GuzzleLogMessageFormatterProvider</title>
<polygon fill="none" stroke="black" points="595,-328 331,-328 331,-292 595,-292 595,-328"/>
<text text-anchor="middle" x="463" y="-307.2" font-family="Courier,monospace" font-size="11.00">GuzzleLogMessageFormatterProvider</text>
</g>
<!-- \\Google\\AdsApi\\Common\\SoapLogMessageFormatterProvider -->
<g id="node42" class="node">
<title>\\Google\\AdsApi\\Common\\SoapLogMessageFormatterProvider</title>
<polygon fill="none" stroke="black" points="587.5,-274 338.5,-274 338.5,-238 587.5,-238 587.5,-274"/>
<text text-anchor="middle" x="463" y="-253.2" font-family="Courier,monospace" font-size="11.00">SoapLogMessageFormatterProvider</text>
</g>
<!-- \\Google\\AdsApi\\Dfp\\Util\\v201708\\DfpDateTimes -->
<g id="node43" class="node">
<title>\\Google\\AdsApi\\Dfp\\Util\\v201708\\DfpDateTimes</title>
<polygon fill="none" stroke="black" points="864,-1762 757,-1762 757,-1726 864,-1726 864,-1762"/>
<text text-anchor="middle" x="810.5" y="-1741.2" font-family="Courier,monospace" font-size="11.00">DfpDateTimes</text>
</g>
<!-- \\Google\\AdsApi\\Dfp\\Util\\v201708\\DfpDates -->
<g id="node44" class="node">
<title>\\Google\\AdsApi\\Dfp\\Util\\v201708\\DfpDates</title>
<polygon fill="none" stroke="black" points="849,-1708 772,-1708 772,-1672 849,-1672 849,-1708"/>
<text text-anchor="middle" x="810.5" y="-1687.2" font-family="Courier,monospace" font-size="11.00">DfpDates</text>
</g>
<!-- \\Google\\AdsApi\\Dfp\\Util\\v201708\\Pql -->
<g id="node45" class="node">
<title>\\Google\\AdsApi\\Dfp\\Util\\v201708\\Pql</title>
<polygon fill="none" stroke="black" points="837.5,-1654 783.5,-1654 783.5,-1618 837.5,-1618 837.5,-1654"/>
<text text-anchor="middle" x="810.5" y="-1633.2" font-family="Courier,monospace" font-size="11.00">Pql</text>
</g>
<!-- \\Google\\AdsApi\\Dfp\\Util\\v201708\\ReportDownloader -->
<g id="node46" class="node">
<title>\\Google\\AdsApi\\Dfp\\Util\\v201708\\ReportDownloader</title>
<polygon fill="none" stroke="black" points="879,-1600 742,-1600 742,-1564 879,-1564 879,-1600"/>
<text text-anchor="middle" x="810.5" y="-1579.2" font-family="Courier,monospace" font-size="11.00">ReportDownloader</text>
</g>
<!-- \\Google\\AdsApi\\Dfp\\Util\\v201708\\StatementBuilder -->
<g id="node47" class="node">
<title>\\Google\\AdsApi\\Dfp\\Util\\v201708\\StatementBuilder</title>
<polygon fill="none" stroke="black" points="879,-1546 742,-1546 742,-1510 879,-1510 879,-1546"/>
<text text-anchor="middle" x="810.5" y="-1525.2" font-family="Courier,monospace" font-size="11.00">StatementBuilder</text>
</g>
<!-- \\Google\\AdsApi\\Dfp\\Util\\v201711\\CsvFiles -->
<g id="node48" class="node">
<title>\\Google\\AdsApi\\Dfp\\Util\\v201711\\CsvFiles</title>
<polygon fill="none" stroke="black" points="849,-1466 772,-1466 772,-1430 849,-1430 849,-1466"/>
<text text-anchor="middle" x="810.5" y="-1445.2" font-family="Courier,monospace" font-size="11.00">CsvFiles</text>
</g>
<!-- \\Google\\AdsApi\\Dfp\\Util\\v201711\\DfpDateTimes -->
<g id="node49" class="node">
<title>\\Google\\AdsApi\\Dfp\\Util\\v201711\\DfpDateTimes</title>
<polygon fill="none" stroke="black" points="864,-1412 757,-1412 757,-1376 864,-1376 864,-1412"/>
<text text-anchor="middle" x="810.5" y="-1391.2" font-family="Courier,monospace" font-size="11.00">DfpDateTimes</text>
</g>
<!-- \\Google\\AdsApi\\Dfp\\Util\\v201711\\DfpDates -->
<g id="node50" class="node">
<title>\\Google\\AdsApi\\Dfp\\Util\\v201711\\DfpDates</title>
<polygon fill="none" stroke="black" points="849,-1358 772,-1358 772,-1322 849,-1322 849,-1358"/>
<text text-anchor="middle" x="810.5" y="-1337.2" font-family="Courier,monospace" font-size="11.00">DfpDates</text>
</g>
<!-- \\Google\\AdsApi\\Dfp\\Util\\v201711\\Pql -->
<g id="node51" class="node">
<title>\\Google\\AdsApi\\Dfp\\Util\\v201711\\Pql</title>
<polygon fill="none" stroke="black" points="837.5,-1304 783.5,-1304 783.5,-1268 837.5,-1268 837.5,-1304"/>
<text text-anchor="middle" x="810.5" y="-1283.2" font-family="Courier,monospace" font-size="11.00">Pql</text>
</g>
<!-- \\Google\\AdsApi\\Dfp\\Util\\v201711\\ReportDownloader -->
<g id="node52" class="node">
<title>\\Google\\AdsApi\\Dfp\\Util\\v201711\\ReportDownloader</title>
<polygon fill="none" stroke="black" points="879,-1250 742,-1250 742,-1214 879,-1214 879,-1250"/>
<text text-anchor="middle" x="810.5" y="-1229.2" font-family="Courier,monospace" font-size="11.00">ReportDownloader</text>
</g>
<!-- \\Google\\AdsApi\\Dfp\\Util\\v201711\\StatementBuilder -->
<g id="node53" class="node">
<title>\\Google\\AdsApi\\Dfp\\Util\\v201711\\StatementBuilder</title>
<polygon fill="none" stroke="black" points="879,-1196 742,-1196 742,-1160 879,-1160 879,-1196"/>
<text text-anchor="middle" x="810.5" y="-1175.2" font-family="Courier,monospace" font-size="11.00">StatementBuilder</text>
</g>
<!-- \\Google\\AdsApi\\Dfp\\Util\\v201802\\CsvFiles -->
<g id="node54" class="node">
<title>\\Google\\AdsApi\\Dfp\\Util\\v201802\\CsvFiles</title>
<polygon fill="none" stroke="black" points="849,-1116 772,-1116 772,-1080 849,-1080 849,-1116"/>
<text text-anchor="middle" x="810.5" y="-1095.2" font-family="Courier,monospace" font-size="11.00">CsvFiles</text>
</g>
<!-- \\Google\\AdsApi\\Dfp\\Util\\v201802\\DfpDateTimes -->
<g id="node55" class="node">
<title>\\Google\\AdsApi\\Dfp\\Util\\v201802\\DfpDateTimes</title>
<polygon fill="none" stroke="black" points="864,-1062 757,-1062 757,-1026 864,-1026 864,-1062"/>
<text text-anchor="middle" x="810.5" y="-1041.2" font-family="Courier,monospace" font-size="11.00">DfpDateTimes</text>
</g>
<!-- \\Google\\AdsApi\\Dfp\\Util\\v201802\\DfpDates -->
<g id="node56" class="node">
<title>\\Google\\AdsApi\\Dfp\\Util\\v201802\\DfpDates</title>
<polygon fill="none" stroke="black" points="849,-1008 772,-1008 772,-972 849,-972 849,-1008"/>
<text text-anchor="middle" x="810.5" y="-987.2" font-family="Courier,monospace" font-size="11.00">DfpDates</text>
</g>
<!-- \\Google\\AdsApi\\Dfp\\Util\\v201802\\Pql -->
<g id="node57" class="node">
<title>\\Google\\AdsApi\\Dfp\\Util\\v201802\\Pql</title>
<polygon fill="none" stroke="black" points="837.5,-954 783.5,-954 783.5,-918 837.5,-918 837.5,-954"/>
<text text-anchor="middle" x="810.5" y="-933.2" font-family="Courier,monospace" font-size="11.00">Pql</text>
</g>
<!-- \\Google\\AdsApi\\Dfp\\Util\\v201802\\ReportDownloader -->
<g id="node58" class="node">
<title>\\Google\\AdsApi\\Dfp\\Util\\v201802\\ReportDownloader</title>
<polygon fill="none" stroke="black" points="879,-900 742,-900 742,-864 879,-864 879,-900"/>
<text text-anchor="middle" x="810.5" y="-879.2" font-family="Courier,monospace" font-size="11.00">ReportDownloader</text>
</g>
<!-- \\Google\\AdsApi\\Dfp\\Util\\v201802\\StatementBuilder -->
<g id="node59" class="node">
<title>\\Google\\AdsApi\\Dfp\\Util\\v201802\\StatementBuilder</title>
<polygon fill="none" stroke="black" points="879,-846 742,-846 742,-810 879,-810 879,-846"/>
<text text-anchor="middle" x="810.5" y="-825.2" font-family="Courier,monospace" font-size="11.00">StatementBuilder</text>
</g>
<!-- \\Google\\AdsApi\\Dfp\\Util\\v201805\\CsvFiles -->
<g id="node60" class="node">
<title>\\Google\\AdsApi\\Dfp\\Util\\v201805\\CsvFiles</title>
<polygon fill="none" stroke="black" points="849,-766 772,-766 772,-730 849,-730 849,-766"/>
<text text-anchor="middle" x="810.5" y="-745.2" font-family="Courier,monospace" font-size="11.00">CsvFiles</text>
</g>
<!-- \\Google\\AdsApi\\Dfp\\Util\\v201805\\DfpDateTimes -->
<g id="node61" class="node">
<title>\\Google\\AdsApi\\Dfp\\Util\\v201805\\DfpDateTimes</title>
<polygon fill="none" stroke="black" points="864,-712 757,-712 757,-676 864,-676 864,-712"/>
<text text-anchor="middle" x="810.5" y="-691.2" font-family="Courier,monospace" font-size="11.00">DfpDateTimes</text>
</g>
<!-- \\Google\\AdsApi\\Dfp\\Util\\v201805\\DfpDates -->
<g id="node62" class="node">
<title>\\Google\\AdsApi\\Dfp\\Util\\v201805\\DfpDates</title>
<polygon fill="none" stroke="black" points="849,-658 772,-658 772,-622 849,-622 849,-658"/>
<text text-anchor="middle" x="810.5" y="-637.2" font-family="Courier,monospace" font-size="11.00">DfpDates</text>
</g>
<!-- \\Google\\AdsApi\\Dfp\\Util\\v201805\\Pql -->
<g id="node63" class="node">
<title>\\Google\\AdsApi\\Dfp\\Util\\v201805\\Pql</title>
<polygon fill="none" stroke="black" points="837.5,-604 783.5,-604 783.5,-568 837.5,-568 837.5,-604"/>
<text text-anchor="middle" x="810.5" y="-583.2" font-family="Courier,monospace" font-size="11.00">Pql</text>
</g>
<!-- \\Google\\AdsApi\\Dfp\\Util\\v201805\\ReportDownloader -->
<g id="node64" class="node">
<title>\\Google\\AdsApi\\Dfp\\Util\\v201805\\ReportDownloader</title>
<polygon fill="none" stroke="black" points="879,-550 742,-550 742,-514 879,-514 879,-550"/>
<text text-anchor="middle" x="810.5" y="-529.2" font-family="Courier,monospace" font-size="11.00">ReportDownloader</text>
</g>
<!-- \\Google\\AdsApi\\Dfp\\Util\\v201805\\StatementBuilder -->
<g id="node65" class="node">
<title>\\Google\\AdsApi\\Dfp\\Util\\v201805\\StatementBuilder</title>
<polygon fill="none" stroke="black" points="879,-496 742,-496 742,-460 879,-460 879,-496"/>
<text text-anchor="middle" x="810.5" y="-475.2" font-family="Courier,monospace" font-size="11.00">StatementBuilder</text>
</g>
<!-- \\Google\\AdsApi\\Dfp\\DfpGuzzleLogMessageFormatterProvider -->
<g id="node66" class="node">
<title>\\Google\\AdsApi\\Dfp\\DfpGuzzleLogMessageFormatterProvider</title>
<polygon fill="none" stroke="black" points="954,-328 667,-328 667,-292 954,-292 954,-328"/>
<text text-anchor="middle" x="810.5" y="-307.2" font-family="Courier,monospace" font-size="11.00">DfpGuzzleLogMessageFormatterProvider</text>
</g>
<!-- \\Google\\AdsApi\\Dfp\\DfpGuzzleLogMessageFormatterProvider&#45;&gt;\\Google\\AdsApi\\Common\\GuzzleLogMessageFormatterProvider -->
<g id="edge7" class="edge">
<title>\\Google\\AdsApi\\Dfp\\DfpGuzzleLogMessageFormatterProvider&#45;&gt;\\Google\\AdsApi\\Common\\GuzzleLogMessageFormatterProvider</title>
<path fill="none" stroke="black" stroke-dasharray="1,5" d="M666.9011,-310C646.6022,-310 625.7368,-310 605.4595,-310"/>
<polygon fill="none" stroke="black" points="605.2379,-306.5001 595.2378,-310 605.2378,-313.5001 605.2379,-306.5001"/>
</g>
<!-- \\Google\\AdsApi\\Dfp\\DfpHeaderHandler -->
<g id="node67" class="node">
<title>\\Google\\AdsApi\\Dfp\\DfpHeaderHandler</title>
<polygon fill="none" stroke="black" points="879,-220 742,-220 742,-184 879,-184 879,-220"/>
<text text-anchor="middle" x="810.5" y="-199.2" font-family="Courier,monospace" font-size="11.00">DfpHeaderHandler</text>
</g>
<!-- \\Google\\AdsApi\\Dfp\\DfpHeaderHandler&#45;&gt;\\Google\\AdsApi\\Common\\AdsHeaderHandler -->
<g id="edge8" class="edge">
<title>\\Google\\AdsApi\\Dfp\\DfpHeaderHandler&#45;&gt;\\Google\\AdsApi\\Common\\AdsHeaderHandler</title>
<path fill="none" stroke="black" stroke-dasharray="1,5" d="M741.8452,-202C684.2553,-202 601.9913,-202 541.7391,-202"/>
<polygon fill="none" stroke="black" points="541.5122,-198.5001 531.5122,-202 541.5122,-205.5001 541.5122,-198.5001"/>
</g>
<!-- \\Google\\AdsApi\\Dfp\\DfpServiceDescriptor -->
<g id="node68" class="node">
<title>\\Google\\AdsApi\\Dfp\\DfpServiceDescriptor</title>
<polygon fill="none" stroke="black" points="894,-166 727,-166 727,-130 894,-130 894,-166"/>
<text text-anchor="middle" x="810.5" y="-145.2" font-family="Courier,monospace" font-size="11.00">DfpServiceDescriptor</text>
</g>
<!-- \\Google\\AdsApi\\Dfp\\DfpServiceDescriptor&#45;&gt;\\Google\\AdsApi\\Common\\AdsServiceDescriptor -->
<g id="edge9" class="edge">
<title>\\Google\\AdsApi\\Dfp\\DfpServiceDescriptor&#45;&gt;\\Google\\AdsApi\\Common\\AdsServiceDescriptor</title>
<path fill="none" stroke="black" stroke-dasharray="1,5" d="M726.8229,-148C675.5046,-148 609.6962,-148 556.6439,-148"/>
<polygon fill="none" stroke="black" points="556.5527,-144.5001 546.5527,-148 556.5526,-151.5001 556.5527,-144.5001"/>
</g>
<!-- \\Google\\AdsApi\\Dfp\\DfpServices -->
<g id="node69" class="node">
<title>\\Google\\AdsApi\\Dfp\\DfpServices</title>
<polygon fill="none" stroke="black" points="860,-112 761,-112 761,-76 860,-76 860,-112"/>
<text text-anchor="middle" x="810.5" y="-91.2" font-family="Courier,monospace" font-size="11.00">DfpServices</text>
</g>
<!-- \\Google\\AdsApi\\Dfp\\DfpServices&#45;&gt;\\Google\\AdsApi\\Common\\AdsServices -->
<g id="edge10" class="edge">
<title>\\Google\\AdsApi\\Dfp\\DfpServices&#45;&gt;\\Google\\AdsApi\\Common\\AdsServices</title>
<path fill="none" stroke="black" stroke-dasharray="1,5" d="M760.7117,-94C697.8776,-94 589.9127,-94 522.7113,-94"/>
<polygon fill="none" stroke="black" points="522.696,-90.5001 512.6959,-94 522.6959,-97.5001 522.696,-90.5001"/>
</g>
<!-- \\Google\\AdsApi\\Dfp\\DfpSession -->
<g id="node70" class="node">
<title>\\Google\\AdsApi\\Dfp\\DfpSession</title>
<polygon fill="none" stroke="black" points="856.5,-382 764.5,-382 764.5,-346 856.5,-346 856.5,-382"/>
<text text-anchor="middle" x="810.5" y="-361.2" font-family="Courier,monospace" font-size="11.00">DfpSession</text>
</g>
<!-- \\Google\\AdsApi\\Dfp\\DfpSession&#45;&gt;\\Google\\AdsApi\\Common\\AdsSession -->
<g id="edge11" class="edge">
<title>\\Google\\AdsApi\\Dfp\\DfpSession&#45;&gt;\\Google\\AdsApi\\Common\\AdsSession</title>
<path fill="none" stroke="black" stroke-dasharray="1,5" d="M764.3547,-364C701.048,-364 587.3713,-364 519.1871,-364"/>
<polygon fill="none" stroke="black" points="519.0591,-360.5001 509.0591,-364 519.0591,-367.5001 519.0591,-360.5001"/>
</g>
<!-- \\Google\\AdsApi\\Dfp\\DfpSessionBuilder -->
<g id="node71" class="node">
<title>\\Google\\AdsApi\\Dfp\\DfpSessionBuilder</title>
<polygon fill="none" stroke="black" points="882.5,-436 738.5,-436 738.5,-400 882.5,-400 882.5,-436"/>
<text text-anchor="middle" x="810.5" y="-415.2" font-family="Courier,monospace" font-size="11.00">DfpSessionBuilder</text>
</g>
<!-- \\Google\\AdsApi\\Dfp\\DfpSessionBuilder&#45;&gt;\\Google\\AdsApi\\Common\\AdsBuilder -->
<g id="edge12" class="edge">
<title>\\Google\\AdsApi\\Dfp\\DfpSessionBuilder&#45;&gt;\\Google\\AdsApi\\Common\\AdsBuilder</title>
<path fill="none" stroke="black" stroke-dasharray="1,5" d="M738.2732,-414.123C709.2871,-416.6448 678.2481,-425.2998 659,-448 531.4598,-598.4138 745.1103,-2084.7508 603.5,-2222 559.9366,-2264.2218 374.7984,-2263.4499 330.5,-2222 243.0897,-2140.2104 288.0233,-1263.1367 259,-1147 238.3051,-1064.1895 190.5802,-974.5506 165.5242,-930.9203"/>
<polygon fill="none" stroke="black" points="168.4408,-928.9728 160.3945,-922.0802 162.3863,-932.4861 168.4408,-928.9728"/>
</g>
<!-- \\Google\\AdsApi\\Dfp\\DfpSoapLogMessageFormatterProvider -->
<g id="node72" class="node">
<title>\\Google\\AdsApi\\Dfp\\DfpSoapLogMessageFormatterProvider</title>
<polygon fill="none" stroke="black" points="946.5,-274 674.5,-274 674.5,-238 946.5,-238 946.5,-274"/>
<text text-anchor="middle" x="810.5" y="-253.2" font-family="Courier,monospace" font-size="11.00">DfpSoapLogMessageFormatterProvider</text>
</g>
<!-- \\Google\\AdsApi\\Dfp\\DfpSoapLogMessageFormatterProvider&#45;&gt;\\Google\\AdsApi\\Common\\SoapLogMessageFormatterProvider -->
<g id="edge13" class="edge">
<title>\\Google\\AdsApi\\Dfp\\DfpSoapLogMessageFormatterProvider&#45;&gt;\\Google\\AdsApi\\Common\\SoapLogMessageFormatterProvider</title>
<path fill="none" stroke="black" stroke-dasharray="1,5" d="M674.1562,-256C649.0883,-256 622.9298,-256 597.9045,-256"/>
<polygon fill="none" stroke="black" points="597.6311,-252.5001 587.631,-256 597.631,-259.5001 597.6311,-252.5001"/>
</g>
</g>
</svg>
