<?xml version="1.0" encoding="UTF-8" standalone="no"?>
<!DOCTYPE svg PUBLIC "-//W3C//DTD SVG 1.1//EN"
 "http://www.w3.org/Graphics/SVG/1.1/DTD/svg11.dtd">
<!-- Generated by graphviz version 2.40.1 (20161225.0304)
 -->
<!-- Title: G Pages: 1 -->
<svg width="972pt" height="2346pt"
 viewBox="0.00 0.00 972.00 2346.00" xmlns="http://www.w3.org/2000/svg" xmlns:xlink="http://www.w3.org/1999/xlink">
<g id="graph0" class="graph" transform="scale(1 1) rotate(0) translate(4 2342)">
<title>G</title>
<polygon fill="white" stroke="transparent" points="-4,4 -4,-2342 968,-2342 968,4 -4,4"/>
<g id="clust1" class="cluster">
<title>cluster_Global</title>
<path fill="none" stroke="gray" d="M20,-44C20,-44 944,-44 944,-44 950,-44 956,-50 956,-56 956,-56 956,-2318 956,-2318 956,-2324 950,-2330 944,-2330 944,-2330 20,-2330 20,-2330 14,-2330 8,-2324 8,-2318 8,-2318 8,-56 8,-56 8,-50 14,-44 20,-44"/>
<text text-anchor="middle" x="482" y="-2317.2" font-family="Times,serif" font-size="11.00" fill="gray">Global</text>
</g>
<g id="clust2" class="cluster">
<title>cluster_\Google</title>
<path fill="none" stroke="gray" d="M28,-52C28,-52 936,-52 936,-52 942,-52 948,-58 948,-64 948,-64 948,-2290 948,-2290 948,-2296 942,-2302 936,-2302 936,-2302 28,-2302 28,-2302 22,-2302 16,-2296 16,-2290 16,-2290 16,-64 16,-64 16,-58 22,-52 28,-52"/>
<text text-anchor="middle" x="482" y="-2289.2" font-family="Times,serif" font-size="11.00" fill="gray">Google</text>
</g>
<g id="clust3" class="cluster">
<title>cluster_\Google\AdsApi</title>
<path fill="none" stroke="gray" d="M36,-60C36,-60 928,-60 928,-60 934,-60 940,-66 940,-72 940,-72 940,-2262 940,-2262 940,-2268 934,-2274 928,-2274 928,-2274 36,-2274 36,-2274 30,-2274 24,-2268 24,-2262 24,-2262 24,-72 24,-72 24,-66 30,-60 36,-60"/>
<text text-anchor="middle" x="482" y="-2261.2" font-family="Times,serif" font-size="11.00" fill="gray">AdsApi</text>
</g>
<g id="clust4" class="cluster">
<title>cluster_\Google\AdsApi\Common</title>
<path fill="none" stroke="gray" d="M44,-68C44,-68 561.5,-68 561.5,-68 567.5,-68 573.5,-74 573.5,-80 573.5,-80 573.5,-2234 573.5,-2234 573.5,-2240 567.5,-2246 561.5,-2246 561.5,-2246 44,-2246 44,-2246 38,-2246 32,-2240 32,-2234 32,-2234 32,-80 32,-80 32,-74 38,-68 44,-68"/>
<text text-anchor="middle" x="302.75" y="-2233.2" font-family="Times,serif" font-size="11.00" fill="gray">Common</text>
</g>
<g id="clust5" class="cluster">
<title>cluster_\Google\AdsApi\Common\Testing</title>
<path fill="none" stroke="gray" d="M312.5,-1822C312.5,-1822 553.5,-1822 553.5,-1822 559.5,-1822 565.5,-1828 565.5,-1834 565.5,-1834 565.5,-2206 565.5,-2206 565.5,-2212 559.5,-2218 553.5,-2218 553.5,-2218 312.5,-2218 312.5,-2218 306.5,-2218 300.5,-2212 300.5,-2206 300.5,-2206 300.5,-1834 300.5,-1834 300.5,-1828 306.5,-1822 312.5,-1822"/>
<text text-anchor="middle" x="433" y="-2205.2" font-family="Times,serif" font-size="11.00" fill="gray">Testing</text>
</g>
<g id="clust6" class="cluster">
<title>cluster_\Google\AdsApi\Common\Util</title>
<path fill="none" stroke="gray" d="M346,-1418C346,-1418 520,-1418 520,-1418 526,-1418 532,-1424 532,-1430 532,-1430 532,-1802 532,-1802 532,-1808 526,-1814 520,-1814 520,-1814 346,-1814 346,-1814 340,-1814 334,-1808 334,-1802 334,-1802 334,-1430 334,-1430 334,-1424 340,-1418 346,-1418"/>
<text text-anchor="middle" x="433" y="-1801.2" font-family="Times,serif" font-size="11.00" fill="gray">Util</text>
</g>
<g id="clust7" class="cluster">
<title>cluster_\Google\AdsApi\Dfp</title>
<path fill="none" stroke="gray" d="M641,-68C641,-68 920,-68 920,-68 926,-68 932,-74 932,-80 932,-80 932,-1780 932,-1780 932,-1786 926,-1792 920,-1792 920,-1792 641,-1792 641,-1792 635,-1792 629,-1786 629,-1780 629,-1780 629,-80 629,-80 629,-74 635,-68 641,-68"/>
<text text-anchor="middle" x="780.5" y="-1779.2" font-family="Times,serif" font-size="11.00" fill="gray">Dfp</text>
</g>
<g id="clust8" class="cluster">
<title>cluster_\Google\AdsApi\Dfp\Util</title>
<path fill="none" stroke="gray" d="M708,-444C708,-444 853,-444 853,-444 859,-444 865,-450 865,-456 865,-456 865,-1752 865,-1752 865,-1758 859,-1764 853,-1764 853,-1764 708,-1764 708,-1764 702,-1764 696,-1758 696,-1752 696,-1752 696,-456 696,-456 696,-450 702,-444 708,-444"/>
<text text-anchor="middle" x="780.5" y="-1751.2" font-family="Times,serif" font-size="11.00" fill="gray">Util</text>
</g>
<g id="clust9" class="cluster">
<title>cluster_\Google\AdsApi\Dfp\Util\v201705</title>
<path fill="none" stroke="gray" d="M716,-1448C716,-1448 845,-1448 845,-1448 851,-1448 857,-1454 857,-1460 857,-1460 857,-1724 857,-1724 857,-1730 851,-1736 845,-1736 845,-1736 716,-1736 716,-1736 710,-1736 704,-1730 704,-1724 704,-1724 704,-1460 704,-1460 704,-1454 710,-1448 716,-1448"/>
<text text-anchor="middle" x="780.5" y="-1723.2" font-family="Times,serif" font-size="11.00" fill="gray">v201705</text>
</g>
<g id="clust10" class="cluster">
<title>cluster_\Google\AdsApi\Dfp\Util\v201708</title>
<path fill="none" stroke="gray" d="M716,-1152C716,-1152 845,-1152 845,-1152 851,-1152 857,-1158 857,-1164 857,-1164 857,-1428 857,-1428 857,-1434 851,-1440 845,-1440 845,-1440 716,-1440 716,-1440 710,-1440 704,-1434 704,-1428 704,-1428 704,-1164 704,-1164 704,-1158 710,-1152 716,-1152"/>
<text text-anchor="middle" x="780.5" y="-1427.2" font-family="Times,serif" font-size="11.00" fill="gray">v201708</text>
</g>
<g id="clust11" class="cluster">
<title>cluster_\Google\AdsApi\Dfp\Util\v201711</title>
<path fill="none" stroke="gray" d="M716,-802C716,-802 845,-802 845,-802 851,-802 857,-808 857,-814 857,-814 857,-1132 857,-1132 857,-1138 851,-1144 845,-1144 845,-1144 716,-1144 716,-1144 710,-1144 704,-1138 704,-1132 704,-1132 704,-814 704,-814 704,-808 710,-802 716,-802"/>
<text text-anchor="middle" x="780.5" y="-1131.2" font-family="Times,serif" font-size="11.00" fill="gray">v201711</text>
</g>
<g id="clust12" class="cluster">
<title>cluster_\Google\AdsApi\Dfp\Util\v201802</title>
<path fill="none" stroke="gray" d="M716,-452C716,-452 845,-452 845,-452 851,-452 857,-458 857,-464 857,-464 857,-782 857,-782 857,-788 851,-794 845,-794 845,-794 716,-794 716,-794 710,-794 704,-788 704,-782 704,-782 704,-464 704,-464 704,-458 710,-452 716,-452"/>
<text text-anchor="middle" x="780.5" y="-781.2" font-family="Times,serif" font-size="11.00" fill="gray">v201802</text>
</g>
<!-- \\Google\\AdsApi\\Common\\Testing\\AdsBuildersTestProvider -->
<g id="node1" class="node">
<title>\\Google\\AdsApi\\Common\\Testing\\AdsBuildersTestProvider</title>
<polygon fill="none" stroke="black" points="527.5,-2190 338.5,-2190 338.5,-2154 527.5,-2154 527.5,-2190"/>
<text text-anchor="middle" x="433" y="-2169.2" font-family="Courier,monospace" font-size="11.00">AdsBuildersTestProvider</text>
</g>
<!-- \\Google\\AdsApi\\Common\\Testing\\ApplicationNames -->
<g id="node2" class="node">
<title>\\Google\\AdsApi\\Common\\Testing\\ApplicationNames</title>
<polygon fill="none" stroke="black" points="501.5,-2136 364.5,-2136 364.5,-2100 501.5,-2100 501.5,-2136"/>
<text text-anchor="middle" x="433" y="-2115.2" font-family="Courier,monospace" font-size="11.00">ApplicationNames</text>
</g>
<!-- \\Google\\AdsApi\\Common\\Testing\\ConfigurationLoaderTestProvider -->
<g id="node3" class="node">
<title>\\Google\\AdsApi\\Common\\Testing\\ConfigurationLoaderTestProvider</title>
<polygon fill="none" stroke="black" points="557.5,-2082 308.5,-2082 308.5,-2046 557.5,-2046 557.5,-2082"/>
<text text-anchor="middle" x="433" y="-2061.2" font-family="Courier,monospace" font-size="11.00">ConfigurationLoaderTestProvider</text>
</g>
<!-- \\Google\\AdsApi\\Common\\Testing\\FakeHttpPayloadsAndLogsProvider -->
<g id="node4" class="node">
<title>\\Google\\AdsApi\\Common\\Testing\\FakeHttpPayloadsAndLogsProvider</title>
<polygon fill="none" stroke="black" points="557.5,-2028 308.5,-2028 308.5,-1992 557.5,-1992 557.5,-2028"/>
<text text-anchor="middle" x="433" y="-2007.2" font-family="Courier,monospace" font-size="11.00">FakeHttpPayloadsAndLogsProvider</text>
</g>
<!-- \\Google\\AdsApi\\Common\\Testing\\FakeInvalidMapEntry -->
<g id="node5" class="node">
<title>\\Google\\AdsApi\\Common\\Testing\\FakeInvalidMapEntry</title>
<polygon fill="none" stroke="black" points="512.5,-1974 353.5,-1974 353.5,-1938 512.5,-1938 512.5,-1974"/>
<text text-anchor="middle" x="433" y="-1953.2" font-family="Courier,monospace" font-size="11.00">FakeInvalidMapEntry</text>
</g>
<!-- \\Google\\AdsApi\\Common\\Testing\\FakeMapEntry -->
<g id="node6" class="node">
<title>\\Google\\AdsApi\\Common\\Testing\\FakeMapEntry</title>
<polygon fill="none" stroke="black" points="486.5,-1920 379.5,-1920 379.5,-1884 486.5,-1884 486.5,-1920"/>
<text text-anchor="middle" x="433" y="-1899.2" font-family="Courier,monospace" font-size="11.00">FakeMapEntry</text>
</g>
<!-- \\Google\\AdsApi\\Common\\Testing\\FakeSoapPayloadsAndLogsProvider -->
<g id="node7" class="node">
<title>\\Google\\AdsApi\\Common\\Testing\\FakeSoapPayloadsAndLogsProvider</title>
<polygon fill="none" stroke="black" points="557.5,-1866 308.5,-1866 308.5,-1830 557.5,-1830 557.5,-1866"/>
<text text-anchor="middle" x="433" y="-1845.2" font-family="Courier,monospace" font-size="11.00">FakeSoapPayloadsAndLogsProvider</text>
</g>
<!-- \\Google\\AdsApi\\Common\\Util\\EnvironmentalVariables -->
<g id="node8" class="node">
<title>\\Google\\AdsApi\\Common\\Util\\EnvironmentalVariables</title>
<polygon fill="none" stroke="black" points="524,-1786 342,-1786 342,-1750 524,-1750 524,-1786"/>
<text text-anchor="middle" x="433" y="-1765.2" font-family="Courier,monospace" font-size="11.00">EnvironmentalVariables</text>
</g>
<!-- \\Google\\AdsApi\\Common\\Util\\LogMessageScrubbers -->
<g id="node9" class="node">
<title>\\Google\\AdsApi\\Common\\Util\\LogMessageScrubbers</title>
<polygon fill="none" stroke="black" points="512.5,-1732 353.5,-1732 353.5,-1696 512.5,-1696 512.5,-1732"/>
<text text-anchor="middle" x="433" y="-1711.2" font-family="Courier,monospace" font-size="11.00">LogMessageScrubbers</text>
</g>
<!-- \\Google\\AdsApi\\Common\\Util\\MapEntries -->
<g id="node10" class="node">
<title>\\Google\\AdsApi\\Common\\Util\\MapEntries</title>
<polygon fill="none" stroke="black" points="479,-1678 387,-1678 387,-1642 479,-1642 479,-1678"/>
<text text-anchor="middle" x="433" y="-1657.2" font-family="Courier,monospace" font-size="11.00">MapEntries</text>
</g>
<!-- \\Google\\AdsApi\\Common\\Util\\OAuth2TokenRefresher -->
<g id="node11" class="node">
<title>\\Google\\AdsApi\\Common\\Util\\OAuth2TokenRefresher</title>
<polygon fill="none" stroke="black" points="516.5,-1624 349.5,-1624 349.5,-1588 516.5,-1588 516.5,-1624"/>
<text text-anchor="middle" x="433" y="-1603.2" font-family="Courier,monospace" font-size="11.00">OAuth2TokenRefresher</text>
</g>
<!-- \\Google\\AdsApi\\Common\\Util\\Reflection -->
<g id="node12" class="node">
<title>\\Google\\AdsApi\\Common\\Util\\Reflection</title>
<polygon fill="none" stroke="black" points="479,-1570 387,-1570 387,-1534 479,-1534 479,-1570"/>
<text text-anchor="middle" x="433" y="-1549.2" font-family="Courier,monospace" font-size="11.00">Reflection</text>
</g>
<!-- \\Google\\AdsApi\\Common\\Util\\SoapHeaders -->
<g id="node13" class="node">
<title>\\Google\\AdsApi\\Common\\Util\\SoapHeaders</title>
<polygon fill="none" stroke="black" points="482.5,-1516 383.5,-1516 383.5,-1480 482.5,-1480 482.5,-1516"/>
<text text-anchor="middle" x="433" y="-1495.2" font-family="Courier,monospace" font-size="11.00">SoapHeaders</text>
</g>
<!-- \\Google\\AdsApi\\Common\\Util\\SoapRequests -->
<g id="node14" class="node">
<title>\\Google\\AdsApi\\Common\\Util\\SoapRequests</title>
<polygon fill="none" stroke="black" points="486.5,-1462 379.5,-1462 379.5,-1426 486.5,-1426 486.5,-1462"/>
<text text-anchor="middle" x="433" y="-1441.2" font-family="Courier,monospace" font-size="11.00">SoapRequests</text>
</g>
<!-- \\Google\\AdsApi\\Common\\AdsGuzzleHttpClientFactory -->
<g id="node15" class="node">
<title>\\Google\\AdsApi\\Common\\AdsGuzzleHttpClientFactory</title>
<polygon fill="none" stroke="black" points="539,-1408 327,-1408 327,-1372 539,-1372 539,-1408"/>
<text text-anchor="middle" x="433" y="-1387.2" font-family="Courier,monospace" font-size="11.00">AdsGuzzleHttpClientFactory</text>
</g>
<!-- \\Google\\AdsApi\\Common\\GuzzleHttpClientFactory -->
<g id="node39" class="node">
<title>\\Google\\AdsApi\\Common\\GuzzleHttpClientFactory</title>
<polygon fill="none" stroke="black" points="229,-1408 40,-1408 40,-1372 229,-1372 229,-1408"/>
<text text-anchor="middle" x="134.5" y="-1387.2" font-family="Courier,monospace" font-size="11.00">GuzzleHttpClientFactory</text>
</g>
<!-- \\Google\\AdsApi\\Common\\AdsGuzzleHttpClientFactory&#45;&gt;\\Google\\AdsApi\\Common\\GuzzleHttpClientFactory -->
<g id="edge1" class="edge">
<title>\\Google\\AdsApi\\Common\\AdsGuzzleHttpClientFactory&#45;&gt;\\Google\\AdsApi\\Common\\GuzzleHttpClientFactory</title>
<path fill="none" stroke="black" stroke-dasharray="1,5" d="M326.9196,-1390C298.5631,-1390 267.9318,-1390 239.6269,-1390"/>
<polygon fill="none" stroke="black" points="239.3126,-1386.5001 229.3125,-1390 239.3125,-1393.5001 239.3126,-1386.5001"/>
</g>
<!-- \\Google\\AdsApi\\Common\\AdsGuzzleProxyHttpHandler -->
<g id="node16" class="node">
<title>\\Google\\AdsApi\\Common\\AdsGuzzleProxyHttpHandler</title>
<polygon fill="none" stroke="black" points="535,-1354 331,-1354 331,-1318 535,-1318 535,-1354"/>
<text text-anchor="middle" x="433" y="-1333.2" font-family="Courier,monospace" font-size="11.00">AdsGuzzleProxyHttpHandler</text>
</g>
<!-- \\Google\\AdsApi\\Common\\AdsHeaderFormatter -->
<g id="node17" class="node">
<title>\\Google\\AdsApi\\Common\\AdsHeaderFormatter</title>
<polygon fill="none" stroke="black" points="509,-1300 357,-1300 357,-1264 509,-1264 509,-1300"/>
<text text-anchor="middle" x="433" y="-1279.2" font-family="Courier,monospace" font-size="11.00">AdsHeaderFormatter</text>
</g>
<!-- \\Google\\AdsApi\\Common\\AdsLoggerFactory -->
<g id="node18" class="node">
<title>\\Google\\AdsApi\\Common\\AdsLoggerFactory</title>
<polygon fill="none" stroke="black" points="501.5,-1246 364.5,-1246 364.5,-1210 501.5,-1210 501.5,-1246"/>
<text text-anchor="middle" x="433" y="-1225.2" font-family="Courier,monospace" font-size="11.00">AdsLoggerFactory</text>
</g>
<!-- \\Google\\AdsApi\\Common\\AdsSoapClient -->
<g id="node19" class="node">
<title>\\Google\\AdsApi\\Common\\AdsSoapClient</title>
<polygon fill="none" stroke="black" points="490,-436 376,-436 376,-400 490,-400 490,-436"/>
<text text-anchor="middle" x="433" y="-415.2" font-family="Courier,monospace" font-size="11.00">AdsSoapClient</text>
</g>
<!-- \\SoapClient -->
<g id="node71" class="node">
<title>\\SoapClient</title>
<ellipse fill="none" stroke="black" cx="134.5" cy="-18" rx="64.189" ry="18"/>
<text text-anchor="middle" x="134.5" y="-14.3" font-family="Times,serif" font-size="14.00" fill="gray">\SoapClient</text>
</g>
<!-- \\Google\\AdsApi\\Common\\AdsSoapClient&#45;&gt;\\SoapClient -->
<g id="edge2" class="edge">
<title>\\Google\\AdsApi\\Common\\AdsSoapClient&#45;&gt;\\SoapClient</title>
<path fill="none" stroke="black" d="M375.8654,-419.8476C349.6684,-417.6424 320.1437,-410.3658 300.5,-391 194.5593,-286.5578 320.9766,-180.9269 229,-64 219.0055,-51.2944 204.6109,-41.8737 190.0587,-34.9859"/>
<polygon fill="none" stroke="black" points="191.0825,-31.6137 180.5177,-30.8164 188.2793,-38.028 191.0825,-31.6137"/>
</g>
<!-- \\Google\\AdsApi\\Common\\AdsSoapClientFactory -->
<g id="node20" class="node">
<title>\\Google\\AdsApi\\Common\\AdsSoapClientFactory</title>
<polygon fill="none" stroke="black" points="516.5,-1138 349.5,-1138 349.5,-1102 516.5,-1102 516.5,-1138"/>
<text text-anchor="middle" x="433" y="-1117.2" font-family="Courier,monospace" font-size="11.00">AdsSoapClientFactory</text>
</g>
<!-- \\Google\\AdsApi\\Common\\AdsUtility -->
<g id="node21" class="node">
<title>\\Google\\AdsApi\\Common\\AdsUtility</title>
<polygon fill="none" stroke="black" points="479,-1084 387,-1084 387,-1048 479,-1048 479,-1084"/>
<text text-anchor="middle" x="433" y="-1063.2" font-family="Courier,monospace" font-size="11.00">AdsUtility</text>
</g>
<!-- \\Google\\AdsApi\\Common\\AdsUtilityRegistry -->
<g id="node22" class="node">
<title>\\Google\\AdsApi\\Common\\AdsUtilityRegistry</title>
<polygon fill="none" stroke="black" points="509,-1030 357,-1030 357,-994 509,-994 509,-1030"/>
<text text-anchor="middle" x="433" y="-1009.2" font-family="Courier,monospace" font-size="11.00">AdsUtilityRegistry</text>
</g>
<!-- \\Google\\AdsApi\\Common\\Configuration -->
<g id="node23" class="node">
<title>\\Google\\AdsApi\\Common\\Configuration</title>
<polygon fill="none" stroke="black" points="490,-976 376,-976 376,-940 490,-940 490,-976"/>
<text text-anchor="middle" x="433" y="-955.2" font-family="Courier,monospace" font-size="11.00">Configuration</text>
</g>
<!-- \\Google\\AdsApi\\Common\\ConfigurationLoader -->
<g id="node24" class="node">
<title>\\Google\\AdsApi\\Common\\ConfigurationLoader</title>
<polygon fill="none" stroke="black" points="512.5,-922 353.5,-922 353.5,-886 512.5,-886 512.5,-922"/>
<text text-anchor="middle" x="433" y="-901.2" font-family="Courier,monospace" font-size="11.00">ConfigurationLoader</text>
</g>
<!-- \\Google\\AdsApi\\Common\\ConnectionSettings -->
<g id="node25" class="node">
<title>\\Google\\AdsApi\\Common\\ConnectionSettings</title>
<polygon fill="none" stroke="black" points="509,-868 357,-868 357,-832 509,-832 509,-868"/>
<text text-anchor="middle" x="433" y="-847.2" font-family="Courier,monospace" font-size="11.00">ConnectionSettings</text>
</g>
<!-- \\Google\\AdsApi\\Common\\ConnectionSettingsBuilder -->
<g id="node26" class="node">
<title>\\Google\\AdsApi\\Common\\ConnectionSettingsBuilder</title>
<polygon fill="none" stroke="black" points="535,-1192 331,-1192 331,-1156 535,-1156 535,-1192"/>
<text text-anchor="middle" x="433" y="-1171.2" font-family="Courier,monospace" font-size="11.00">ConnectionSettingsBuilder</text>
</g>
<!-- \\Google\\AdsApi\\Common\\AdsBuilder -->
<g id="node34" class="node">
<title>\\Google\\AdsApi\\Common\\AdsBuilder</title>
<polygon fill="none" stroke="black" points="180.5,-1003 88.5,-1003 88.5,-967 180.5,-967 180.5,-1003"/>
<text text-anchor="middle" x="134.5" y="-982.2" font-family="Courier,monospace" font-size="11.00">AdsBuilder</text>
</g>
<!-- \\Google\\AdsApi\\Common\\ConnectionSettingsBuilder&#45;&gt;\\Google\\AdsApi\\Common\\AdsBuilder -->
<g id="edge3" class="edge">
<title>\\Google\\AdsApi\\Common\\ConnectionSettingsBuilder&#45;&gt;\\Google\\AdsApi\\Common\\AdsBuilder</title>
<path fill="none" stroke="black" stroke-dasharray="1,5" d="M330.7152,-1159.397C320.2088,-1156.0753 309.9393,-1151.9998 300.5,-1147 237.0828,-1113.4089 181.5143,-1048.0784 153.5998,-1011.4777"/>
<polygon fill="none" stroke="black" points="156.2329,-1009.1553 147.4296,-1003.2601 150.6352,-1013.3584 156.2329,-1009.1553"/>
</g>
<!-- \\Google\\AdsApi\\Common\\GuzzleLogMessageFormatter -->
<g id="node27" class="node">
<title>\\Google\\AdsApi\\Common\\GuzzleLogMessageFormatter</title>
<polygon fill="none" stroke="black" points="535,-760 331,-760 331,-724 535,-724 535,-760"/>
<text text-anchor="middle" x="433" y="-739.2" font-family="Courier,monospace" font-size="11.00">GuzzleLogMessageFormatter</text>
</g>
<!-- \\Google\\AdsApi\\Common\\GuzzleLogMessageHandler -->
<g id="node28" class="node">
<title>\\Google\\AdsApi\\Common\\GuzzleLogMessageHandler</title>
<polygon fill="none" stroke="black" points="527.5,-706 338.5,-706 338.5,-670 527.5,-670 527.5,-706"/>
<text text-anchor="middle" x="433" y="-685.2" font-family="Courier,monospace" font-size="11.00">GuzzleLogMessageHandler</text>
</g>
<!-- \\Google\\AdsApi\\Common\\LibraryMetadataProvider -->
<g id="node29" class="node">
<title>\\Google\\AdsApi\\Common\\LibraryMetadataProvider</title>
<polygon fill="none" stroke="black" points="527.5,-652 338.5,-652 338.5,-616 527.5,-616 527.5,-652"/>
<text text-anchor="middle" x="433" y="-631.2" font-family="Courier,monospace" font-size="11.00">LibraryMetadataProvider</text>
</g>
<!-- \\Google\\AdsApi\\Common\\OAuth2TokenBuilder -->
<g id="node30" class="node">
<title>\\Google\\AdsApi\\Common\\OAuth2TokenBuilder</title>
<polygon fill="none" stroke="black" points="509,-814 357,-814 357,-778 509,-778 509,-814"/>
<text text-anchor="middle" x="433" y="-793.2" font-family="Courier,monospace" font-size="11.00">OAuth2TokenBuilder</text>
</g>
<!-- \\Google\\AdsApi\\Common\\OAuth2TokenBuilder&#45;&gt;\\Google\\AdsApi\\Common\\AdsBuilder -->
<g id="edge4" class="edge">
<title>\\Google\\AdsApi\\Common\\OAuth2TokenBuilder&#45;&gt;\\Google\\AdsApi\\Common\\AdsBuilder</title>
<path fill="none" stroke="black" stroke-dasharray="1,5" d="M356.8434,-803.8303C337.7005,-807.8348 317.7189,-813.8794 300.5,-823 237.0828,-856.5911 181.5143,-921.9216 153.5998,-958.5223"/>
<polygon fill="none" stroke="black" points="150.6352,-956.6416 147.4296,-966.7399 156.2329,-960.8447 150.6352,-956.6416"/>
</g>
<!-- \\Google\\AdsApi\\Common\\SoapLogMessageFormatter -->
<g id="node31" class="node">
<title>\\Google\\AdsApi\\Common\\SoapLogMessageFormatter</title>
<polygon fill="none" stroke="black" points="527.5,-544 338.5,-544 338.5,-508 527.5,-508 527.5,-544"/>
<text text-anchor="middle" x="433" y="-523.2" font-family="Courier,monospace" font-size="11.00">SoapLogMessageFormatter</text>
</g>
<!-- \\Google\\AdsApi\\Common\\SoapSettings -->
<g id="node32" class="node">
<title>\\Google\\AdsApi\\Common\\SoapSettings</title>
<polygon fill="none" stroke="black" points="486.5,-490 379.5,-490 379.5,-454 486.5,-454 486.5,-490"/>
<text text-anchor="middle" x="433" y="-469.2" font-family="Courier,monospace" font-size="11.00">SoapSettings</text>
</g>
<!-- \\Google\\AdsApi\\Common\\SoapSettingsBuilder -->
<g id="node33" class="node">
<title>\\Google\\AdsApi\\Common\\SoapSettingsBuilder</title>
<polygon fill="none" stroke="black" points="512.5,-598 353.5,-598 353.5,-562 512.5,-562 512.5,-598"/>
<text text-anchor="middle" x="433" y="-577.2" font-family="Courier,monospace" font-size="11.00">SoapSettingsBuilder</text>
</g>
<!-- \\Google\\AdsApi\\Common\\SoapSettingsBuilder&#45;&gt;\\Google\\AdsApi\\Common\\AdsBuilder -->
<g id="edge5" class="edge">
<title>\\Google\\AdsApi\\Common\\SoapSettingsBuilder&#45;&gt;\\Google\\AdsApi\\Common\\AdsBuilder</title>
<path fill="none" stroke="black" stroke-dasharray="1,5" d="M353.3366,-583.7086C334.4588,-587.7953 315.4806,-594.9102 300.5,-607 186.1706,-699.2667 148.5025,-886.1183 138.0291,-956.9347"/>
<polygon fill="none" stroke="black" points="134.5553,-956.5041 136.6244,-966.8949 141.4867,-957.4816 134.5553,-956.5041"/>
</g>
<!-- \\Google\\AdsApi\\Common\\AdsHeaderHandler -->
<g id="node35" class="node">
<title>\\Google\\AdsApi\\Common\\AdsHeaderHandler</title>
<polygon fill="none" stroke="black" points="501.5,-220 364.5,-220 364.5,-184 501.5,-184 501.5,-220"/>
<text text-anchor="middle" x="433" y="-199.2" font-family="Courier,monospace" font-size="11.00">AdsHeaderHandler</text>
</g>
<!-- \\Google\\AdsApi\\Common\\AdsServiceDescriptor -->
<g id="node36" class="node">
<title>\\Google\\AdsApi\\Common\\AdsServiceDescriptor</title>
<polygon fill="none" stroke="black" points="516.5,-166 349.5,-166 349.5,-130 516.5,-130 516.5,-166"/>
<text text-anchor="middle" x="433" y="-145.2" font-family="Courier,monospace" font-size="11.00">AdsServiceDescriptor</text>
</g>
<!-- \\Google\\AdsApi\\Common\\AdsServices -->
<g id="node37" class="node">
<title>\\Google\\AdsApi\\Common\\AdsServices</title>
<polygon fill="none" stroke="black" points="482.5,-112 383.5,-112 383.5,-76 482.5,-76 482.5,-112"/>
<text text-anchor="middle" x="433" y="-91.2" font-family="Courier,monospace" font-size="11.00">AdsServices</text>
</g>
<!-- \\Google\\AdsApi\\Common\\AdsSession -->
<g id="node38" class="node">
<title>\\Google\\AdsApi\\Common\\AdsSession</title>
<polygon fill="none" stroke="black" points="479,-382 387,-382 387,-346 479,-346 479,-382"/>
<text text-anchor="middle" x="433" y="-361.2" font-family="Courier,monospace" font-size="11.00">AdsSession</text>
</g>
<!-- \\Google\\AdsApi\\Common\\GuzzleLogMessageFormatterProvider -->
<g id="node40" class="node">
<title>\\Google\\AdsApi\\Common\\GuzzleLogMessageFormatterProvider</title>
<polygon fill="none" stroke="black" points="565,-328 301,-328 301,-292 565,-292 565,-328"/>
<text text-anchor="middle" x="433" y="-307.2" font-family="Courier,monospace" font-size="11.00">GuzzleLogMessageFormatterProvider</text>
</g>
<!-- \\Google\\AdsApi\\Common\\SoapLogMessageFormatterProvider -->
<g id="node41" class="node">
<title>\\Google\\AdsApi\\Common\\SoapLogMessageFormatterProvider</title>
<polygon fill="none" stroke="black" points="557.5,-274 308.5,-274 308.5,-238 557.5,-238 557.5,-274"/>
<text text-anchor="middle" x="433" y="-253.2" font-family="Courier,monospace" font-size="11.00">SoapLogMessageFormatterProvider</text>
</g>
<!-- \\Google\\AdsApi\\Dfp\\Util\\v201705\\DfpDateTimes -->
<g id="node42" class="node">
<title>\\Google\\AdsApi\\Dfp\\Util\\v201705\\DfpDateTimes</title>
<polygon fill="none" stroke="black" points="834,-1708 727,-1708 727,-1672 834,-1672 834,-1708"/>
<text text-anchor="middle" x="780.5" y="-1687.2" font-family="Courier,monospace" font-size="11.00">DfpDateTimes</text>
</g>
<!-- \\Google\\AdsApi\\Dfp\\Util\\v201705\\DfpDates -->
<g id="node43" class="node">
<title>\\Google\\AdsApi\\Dfp\\Util\\v201705\\DfpDates</title>
<polygon fill="none" stroke="black" points="819,-1654 742,-1654 742,-1618 819,-1618 819,-1654"/>
<text text-anchor="middle" x="780.5" y="-1633.2" font-family="Courier,monospace" font-size="11.00">DfpDates</text>
</g>
<!-- \\Google\\AdsApi\\Dfp\\Util\\v201705\\Pql -->
<g id="node44" class="node">
<title>\\Google\\AdsApi\\Dfp\\Util\\v201705\\Pql</title>
<polygon fill="none" stroke="black" points="807.5,-1600 753.5,-1600 753.5,-1564 807.5,-1564 807.5,-1600"/>
<text text-anchor="middle" x="780.5" y="-1579.2" font-family="Courier,monospace" font-size="11.00">Pql</text>
</g>
<!-- \\Google\\AdsApi\\Dfp\\Util\\v201705\\ReportDownloader -->
<g id="node45" class="node">
<title>\\Google\\AdsApi\\Dfp\\Util\\v201705\\ReportDownloader</title>
<polygon fill="none" stroke="black" points="849,-1546 712,-1546 712,-1510 849,-1510 849,-1546"/>
<text text-anchor="middle" x="780.5" y="-1525.2" font-family="Courier,monospace" font-size="11.00">ReportDownloader</text>
</g>
<!-- \\Google\\AdsApi\\Dfp\\Util\\v201705\\StatementBuilder -->
<g id="node46" class="node">
<title>\\Google\\AdsApi\\Dfp\\Util\\v201705\\StatementBuilder</title>
<polygon fill="none" stroke="black" points="849,-1492 712,-1492 712,-1456 849,-1456 849,-1492"/>
<text text-anchor="middle" x="780.5" y="-1471.2" font-family="Courier,monospace" font-size="11.00">StatementBuilder</text>
</g>
<!-- \\Google\\AdsApi\\Dfp\\Util\\v201708\\DfpDateTimes -->
<g id="node47" class="node">
<title>\\Google\\AdsApi\\Dfp\\Util\\v201708\\DfpDateTimes</title>
<polygon fill="none" stroke="black" points="834,-1412 727,-1412 727,-1376 834,-1376 834,-1412"/>
<text text-anchor="middle" x="780.5" y="-1391.2" font-family="Courier,monospace" font-size="11.00">DfpDateTimes</text>
</g>
<!-- \\Google\\AdsApi\\Dfp\\Util\\v201708\\DfpDates -->
<g id="node48" class="node">
<title>\\Google\\AdsApi\\Dfp\\Util\\v201708\\DfpDates</title>
<polygon fill="none" stroke="black" points="819,-1358 742,-1358 742,-1322 819,-1322 819,-1358"/>
<text text-anchor="middle" x="780.5" y="-1337.2" font-family="Courier,monospace" font-size="11.00">DfpDates</text>
</g>
<!-- \\Google\\AdsApi\\Dfp\\Util\\v201708\\Pql -->
<g id="node49" class="node">
<title>\\Google\\AdsApi\\Dfp\\Util\\v201708\\Pql</title>
<polygon fill="none" stroke="black" points="807.5,-1304 753.5,-1304 753.5,-1268 807.5,-1268 807.5,-1304"/>
<text text-anchor="middle" x="780.5" y="-1283.2" font-family="Courier,monospace" font-size="11.00">Pql</text>
</g>
<!-- \\Google\\AdsApi\\Dfp\\Util\\v201708\\ReportDownloader -->
<g id="node50" class="node">
<title>\\Google\\AdsApi\\Dfp\\Util\\v201708\\ReportDownloader</title>
<polygon fill="none" stroke="black" points="849,-1250 712,-1250 712,-1214 849,-1214 849,-1250"/>
<text text-anchor="middle" x="780.5" y="-1229.2" font-family="Courier,monospace" font-size="11.00">ReportDownloader</text>
</g>
<!-- \\Google\\AdsApi\\Dfp\\Util\\v201708\\StatementBuilder -->
<g id="node51" class="node">
<title>\\Google\\AdsApi\\Dfp\\Util\\v201708\\StatementBuilder</title>
<polygon fill="none" stroke="black" points="849,-1196 712,-1196 712,-1160 849,-1160 849,-1196"/>
<text text-anchor="middle" x="780.5" y="-1175.2" font-family="Courier,monospace" font-size="11.00">StatementBuilder</text>
</g>
<!-- \\Google\\AdsApi\\Dfp\\Util\\v201711\\CsvFiles -->
<g id="node52" class="node">
<title>\\Google\\AdsApi\\Dfp\\Util\\v201711\\CsvFiles</title>
<polygon fill="none" stroke="black" points="819,-1116 742,-1116 742,-1080 819,-1080 819,-1116"/>
<text text-anchor="middle" x="780.5" y="-1095.2" font-family="Courier,monospace" font-size="11.00">CsvFiles</text>
</g>
<!-- \\Google\\AdsApi\\Dfp\\Util\\v201711\\DfpDateTimes -->
<g id="node53" class="node">
<title>\\Google\\AdsApi\\Dfp\\Util\\v201711\\DfpDateTimes</title>
<polygon fill="none" stroke="black" points="834,-1062 727,-1062 727,-1026 834,-1026 834,-1062"/>
<text text-anchor="middle" x="780.5" y="-1041.2" font-family="Courier,monospace" font-size="11.00">DfpDateTimes</text>
</g>
<!-- \\Google\\AdsApi\\Dfp\\Util\\v201711\\DfpDates -->
<g id="node54" class="node">
<title>\\Google\\AdsApi\\Dfp\\Util\\v201711\\DfpDates</title>
<polygon fill="none" stroke="black" points="819,-1008 742,-1008 742,-972 819,-972 819,-1008"/>
<text text-anchor="middle" x="780.5" y="-987.2" font-family="Courier,monospace" font-size="11.00">DfpDates</text>
</g>
<!-- \\Google\\AdsApi\\Dfp\\Util\\v201711\\Pql -->
<g id="node55" class="node">
<title>\\Google\\AdsApi\\Dfp\\Util\\v201711\\Pql</title>
<polygon fill="none" stroke="black" points="807.5,-954 753.5,-954 753.5,-918 807.5,-918 807.5,-954"/>
<text text-anchor="middle" x="780.5" y="-933.2" font-family="Courier,monospace" font-size="11.00">Pql</text>
</g>
<!-- \\Google\\AdsApi\\Dfp\\Util\\v201711\\ReportDownloader -->
<g id="node56" class="node">
<title>\\Google\\AdsApi\\Dfp\\Util\\v201711\\ReportDownloader</title>
<polygon fill="none" stroke="black" points="849,-900 712,-900 712,-864 849,-864 849,-900"/>
<text text-anchor="middle" x="780.5" y="-879.2" font-family="Courier,monospace" font-size="11.00">ReportDownloader</text>
</g>
<!-- \\Google\\AdsApi\\Dfp\\Util\\v201711\\StatementBuilder -->
<g id="node57" class="node">
<title>\\Google\\AdsApi\\Dfp\\Util\\v201711\\StatementBuilder</title>
<polygon fill="none" stroke="black" points="849,-846 712,-846 712,-810 849,-810 849,-846"/>
<text text-anchor="middle" x="780.5" y="-825.2" font-family="Courier,monospace" font-size="11.00">StatementBuilder</text>
</g>
<!-- \\Google\\AdsApi\\Dfp\\Util\\v201802\\CsvFiles -->
<g id="node58" class="node">
<title>\\Google\\AdsApi\\Dfp\\Util\\v201802\\CsvFiles</title>
<polygon fill="none" stroke="black" points="819,-766 742,-766 742,-730 819,-730 819,-766"/>
<text text-anchor="middle" x="780.5" y="-745.2" font-family="Courier,monospace" font-size="11.00">CsvFiles</text>
</g>
<!-- \\Google\\AdsApi\\Dfp\\Util\\v201802\\DfpDateTimes -->
<g id="node59" class="node">
<title>\\Google\\AdsApi\\Dfp\\Util\\v201802\\DfpDateTimes</title>
<polygon fill="none" stroke="black" points="834,-712 727,-712 727,-676 834,-676 834,-712"/>
<text text-anchor="middle" x="780.5" y="-691.2" font-family="Courier,monospace" font-size="11.00">DfpDateTimes</text>
</g>
<!-- \\Google\\AdsApi\\Dfp\\Util\\v201802\\DfpDates -->
<g id="node60" class="node">
<title>\\Google\\AdsApi\\Dfp\\Util\\v201802\\DfpDates</title>
<polygon fill="none" stroke="black" points="819,-658 742,-658 742,-622 819,-622 819,-658"/>
<text text-anchor="middle" x="780.5" y="-637.2" font-family="Courier,monospace" font-size="11.00">DfpDates</text>
</g>
<!-- \\Google\\AdsApi\\Dfp\\Util\\v201802\\Pql -->
<g id="node61" class="node">
<title>\\Google\\AdsApi\\Dfp\\Util\\v201802\\Pql</title>
<polygon fill="none" stroke="black" points="807.5,-604 753.5,-604 753.5,-568 807.5,-568 807.5,-604"/>
<text text-anchor="middle" x="780.5" y="-583.2" font-family="Courier,monospace" font-size="11.00">Pql</text>
</g>
<!-- \\Google\\AdsApi\\Dfp\\Util\\v201802\\ReportDownloader -->
<g id="node62" class="node">
<title>\\Google\\AdsApi\\Dfp\\Util\\v201802\\ReportDownloader</title>
<polygon fill="none" stroke="black" points="849,-550 712,-550 712,-514 849,-514 849,-550"/>
<text text-anchor="middle" x="780.5" y="-529.2" font-family="Courier,monospace" font-size="11.00">ReportDownloader</text>
</g>
<!-- \\Google\\AdsApi\\Dfp\\Util\\v201802\\StatementBuilder -->
<g id="node63" class="node">
<title>\\Google\\AdsApi\\Dfp\\Util\\v201802\\StatementBuilder</title>
<polygon fill="none" stroke="black" points="849,-496 712,-496 712,-460 849,-460 849,-496"/>
<text text-anchor="middle" x="780.5" y="-475.2" font-family="Courier,monospace" font-size="11.00">StatementBuilder</text>
</g>
<!-- \\Google\\AdsApi\\Dfp\\DfpGuzzleLogMessageFormatterProvider -->
<g id="node64" class="node">
<title>\\Google\\AdsApi\\Dfp\\DfpGuzzleLogMessageFormatterProvider</title>
<polygon fill="none" stroke="black" points="924,-328 637,-328 637,-292 924,-292 924,-328"/>
<text text-anchor="middle" x="780.5" y="-307.2" font-family="Courier,monospace" font-size="11.00">DfpGuzzleLogMessageFormatterProvider</text>
</g>
<!-- \\Google\\AdsApi\\Dfp\\DfpGuzzleLogMessageFormatterProvider&#45;&gt;\\Google\\AdsApi\\Common\\GuzzleLogMessageFormatterProvider -->
<g id="edge6" class="edge">
<title>\\Google\\AdsApi\\Dfp\\DfpGuzzleLogMessageFormatterProvider&#45;&gt;\\Google\\AdsApi\\Common\\GuzzleLogMessageFormatterProvider</title>
<path fill="none" stroke="black" stroke-dasharray="1,5" d="M636.9011,-310C616.6022,-310 595.7368,-310 575.4595,-310"/>
<polygon fill="none" stroke="black" points="575.2379,-306.5001 565.2378,-310 575.2378,-313.5001 575.2379,-306.5001"/>
</g>
<!-- \\Google\\AdsApi\\Dfp\\DfpHeaderHandler -->
<g id="node65" class="node">
<title>\\Google\\AdsApi\\Dfp\\DfpHeaderHandler</title>
<polygon fill="none" stroke="black" points="849,-220 712,-220 712,-184 849,-184 849,-220"/>
<text text-anchor="middle" x="780.5" y="-199.2" font-family="Courier,monospace" font-size="11.00">DfpHeaderHandler</text>
</g>
<!-- \\Google\\AdsApi\\Dfp\\DfpHeaderHandler&#45;&gt;\\Google\\AdsApi\\Common\\AdsHeaderHandler -->
<g id="edge7" class="edge">
<title>\\Google\\AdsApi\\Dfp\\DfpHeaderHandler&#45;&gt;\\Google\\AdsApi\\Common\\AdsHeaderHandler</title>
<path fill="none" stroke="black" stroke-dasharray="1,5" d="M711.8452,-202C654.2553,-202 571.9913,-202 511.7391,-202"/>
<polygon fill="none" stroke="black" points="511.5122,-198.5001 501.5122,-202 511.5122,-205.5001 511.5122,-198.5001"/>
</g>
<!-- \\Google\\AdsApi\\Dfp\\DfpServiceDescriptor -->
<g id="node66" class="node">
<title>\\Google\\AdsApi\\Dfp\\DfpServiceDescriptor</title>
<polygon fill="none" stroke="black" points="864,-166 697,-166 697,-130 864,-130 864,-166"/>
<text text-anchor="middle" x="780.5" y="-145.2" font-family="Courier,monospace" font-size="11.00">DfpServiceDescriptor</text>
</g>
<!-- \\Google\\AdsApi\\Dfp\\DfpServiceDescriptor&#45;&gt;\\Google\\AdsApi\\Common\\AdsServiceDescriptor -->
<g id="edge8" class="edge">
<title>\\Google\\AdsApi\\Dfp\\DfpServiceDescriptor&#45;&gt;\\Google\\AdsApi\\Common\\AdsServiceDescriptor</title>
<path fill="none" stroke="black" stroke-dasharray="1,5" d="M696.8229,-148C645.5046,-148 579.6962,-148 526.6439,-148"/>
<polygon fill="none" stroke="black" points="526.5527,-144.5001 516.5527,-148 526.5526,-151.5001 526.5527,-144.5001"/>
</g>
<!-- \\Google\\AdsApi\\Dfp\\DfpServices -->
<g id="node67" class="node">
<title>\\Google\\AdsApi\\Dfp\\DfpServices</title>
<polygon fill="none" stroke="black" points="830,-112 731,-112 731,-76 830,-76 830,-112"/>
<text text-anchor="middle" x="780.5" y="-91.2" font-family="Courier,monospace" font-size="11.00">DfpServices</text>
</g>
<!-- \\Google\\AdsApi\\Dfp\\DfpServices&#45;&gt;\\Google\\AdsApi\\Common\\AdsServices -->
<g id="edge9" class="edge">
<title>\\Google\\AdsApi\\Dfp\\DfpServices&#45;&gt;\\Google\\AdsApi\\Common\\AdsServices</title>
<path fill="none" stroke="black" stroke-dasharray="1,5" d="M730.7117,-94C667.8776,-94 559.9127,-94 492.7113,-94"/>
<polygon fill="none" stroke="black" points="492.696,-90.5001 482.6959,-94 492.6959,-97.5001 492.696,-90.5001"/>
</g>
<!-- \\Google\\AdsApi\\Dfp\\DfpSession -->
<g id="node68" class="node">
<title>\\Google\\AdsApi\\Dfp\\DfpSession</title>
<polygon fill="none" stroke="black" points="826.5,-382 734.5,-382 734.5,-346 826.5,-346 826.5,-382"/>
<text text-anchor="middle" x="780.5" y="-361.2" font-family="Courier,monospace" font-size="11.00">DfpSession</text>
</g>
<!-- \\Google\\AdsApi\\Dfp\\DfpSession&#45;&gt;\\Google\\AdsApi\\Common\\AdsSession -->
<g id="edge10" class="edge">
<title>\\Google\\AdsApi\\Dfp\\DfpSession&#45;&gt;\\Google\\AdsApi\\Common\\AdsSession</title>
<path fill="none" stroke="black" stroke-dasharray="1,5" d="M734.3547,-364C671.048,-364 557.3713,-364 489.1871,-364"/>
<polygon fill="none" stroke="black" points="489.0591,-360.5001 479.0591,-364 489.0591,-367.5001 489.0591,-360.5001"/>
</g>
<!-- \\Google\\AdsApi\\Dfp\\DfpSessionBuilder -->
<g id="node69" class="node">
<title>\\Google\\AdsApi\\Dfp\\DfpSessionBuilder</title>
<polygon fill="none" stroke="black" points="852.5,-436 708.5,-436 708.5,-400 852.5,-400 852.5,-436"/>
<text text-anchor="middle" x="780.5" y="-415.2" font-family="Courier,monospace" font-size="11.00">DfpSessionBuilder</text>
</g>
<!-- \\Google\\AdsApi\\Dfp\\DfpSessionBuilder&#45;&gt;\\Google\\AdsApi\\Common\\AdsBuilder -->
<g id="edge11" class="edge">
<title>\\Google\\AdsApi\\Dfp\\DfpSessionBuilder&#45;&gt;\\Google\\AdsApi\\Common\\AdsBuilder</title>
<path fill="none" stroke="black" stroke-dasharray="1,5" d="M708.2732,-414.123C679.2871,-416.6448 648.2481,-425.2998 629,-448 501.4598,-598.4138 715.1103,-2084.7508 573.5,-2222 529.9366,-2264.2218 345.1415,-2263.0801 300.5,-2222 230.0244,-2157.1468 244.6378,-1457.4892 229,-1363 207.022,-1230.2013 162.1148,-1075.4663 143.2029,-1013.133"/>
<polygon fill="none" stroke="black" points="146.4578,-1011.8075 140.1912,-1003.2647 139.7627,-1013.8509 146.4578,-1011.8075"/>
</g>
<!-- \\Google\\AdsApi\\Dfp\\DfpSoapLogMessageFormatterProvider -->
<g id="node70" class="node">
<title>\\Google\\AdsApi\\Dfp\\DfpSoapLogMessageFormatterProvider</title>
<polygon fill="none" stroke="black" points="916.5,-274 644.5,-274 644.5,-238 916.5,-238 916.5,-274"/>
<text text-anchor="middle" x="780.5" y="-253.2" font-family="Courier,monospace" font-size="11.00">DfpSoapLogMessageFormatterProvider</text>
</g>
<!-- \\Google\\AdsApi\\Dfp\\DfpSoapLogMessageFormatterProvider&#45;&gt;\\Google\\AdsApi\\Common\\SoapLogMessageFormatterProvider -->
<g id="edge12" class="edge">
<title>\\Google\\AdsApi\\Dfp\\DfpSoapLogMessageFormatterProvider&#45;&gt;\\Google\\AdsApi\\Common\\SoapLogMessageFormatterProvider</title>
<path fill="none" stroke="black" stroke-dasharray="1,5" d="M644.1562,-256C619.0883,-256 592.9298,-256 567.9045,-256"/>
<polygon fill="none" stroke="black" points="567.6311,-252.5001 557.631,-256 567.631,-259.5001 567.6311,-252.5001"/>
</g>
</g>
</svg>
