<?xml version="1.0" encoding="UTF-8" standalone="no"?>
<!DOCTYPE svg PUBLIC "-//W3C//DTD SVG 1.1//EN"
 "http://www.w3.org/Graphics/SVG/1.1/DTD/svg11.dtd">
<!-- Generated by graphviz version 2.38.0 (20140413.2041)
 -->
<!-- Title: G Pages: 1 -->
<svg width="970pt" height="2346pt"
 viewBox="0.00 0.00 970.00 2346.00" xmlns="http://www.w3.org/2000/svg" xmlns:xlink="http://www.w3.org/1999/xlink">
<g id="graph0" class="graph" transform="scale(1 1) rotate(0) translate(4 2342)">
<title>G</title>
<polygon fill="white" stroke="none" points="-4,4 -4,-2342 966,-2342 966,4 -4,4"/>
<g id="clust1" class="cluster"><title>cluster_Global</title>
<path fill="none" stroke="gray" d="M20,-44C20,-44 942,-44 942,-44 948,-44 954,-50 954,-56 954,-56 954,-2318 954,-2318 954,-2324 948,-2330 942,-2330 942,-2330 20,-2330 20,-2330 14,-2330 8,-2324 8,-2318 8,-2318 8,-56 8,-56 8,-50 14,-44 20,-44"/>
<text text-anchor="middle" x="481" y="-2317.2" font-family="Times,serif" font-size="11.00" fill="gray">Global</text>
</g>
<g id="clust2" class="cluster"><title>cluster_\Google</title>
<path fill="none" stroke="gray" d="M28,-52C28,-52 934,-52 934,-52 940,-52 946,-58 946,-64 946,-64 946,-2290 946,-2290 946,-2296 940,-2302 934,-2302 934,-2302 28,-2302 28,-2302 22,-2302 16,-2296 16,-2290 16,-2290 16,-64 16,-64 16,-58 22,-52 28,-52"/>
<text text-anchor="middle" x="481" y="-2289.2" font-family="Times,serif" font-size="11.00" fill="gray">Google</text>
</g>
<g id="clust3" class="cluster"><title>cluster_\Google\AdsApi</title>
<path fill="none" stroke="gray" d="M36,-60C36,-60 926,-60 926,-60 932,-60 938,-66 938,-72 938,-72 938,-2262 938,-2262 938,-2268 932,-2274 926,-2274 926,-2274 36,-2274 36,-2274 30,-2274 24,-2268 24,-2262 24,-2262 24,-72 24,-72 24,-66 30,-60 36,-60"/>
<text text-anchor="middle" x="481" y="-2261.2" font-family="Times,serif" font-size="11.00" fill="gray">AdsApi</text>
</g>
<g id="clust4" class="cluster"><title>cluster_\Google\AdsApi\AdManager</title>
<path fill="none" stroke="gray" d="M626,-68C626,-68 918,-68 918,-68 924,-68 930,-74 930,-80 930,-80 930,-1888 930,-1888 930,-1894 924,-1900 918,-1900 918,-1900 626,-1900 626,-1900 620,-1900 614,-1894 614,-1888 614,-1888 614,-80 614,-80 614,-74 620,-68 626,-68"/>
<text text-anchor="middle" x="772" y="-1887.2" font-family="Times,serif" font-size="11.00" fill="gray">AdManager</text>
</g>
<g id="clust5" class="cluster"><title>cluster_\Google\AdsApi\AdManager\Util</title>
<path fill="none" stroke="gray" d="M699,-444C699,-444 845,-444 845,-444 851,-444 857,-450 857,-456 857,-456 857,-1860 857,-1860 857,-1866 851,-1872 845,-1872 845,-1872 699,-1872 699,-1872 693,-1872 687,-1866 687,-1860 687,-1860 687,-456 687,-456 687,-450 693,-444 699,-444"/>
<text text-anchor="middle" x="772" y="-1859.2" font-family="Times,serif" font-size="11.00" fill="gray">Util</text>
</g>
<g id="clust6" class="cluster"><title>cluster_\Google\AdsApi\AdManager\Util\v201802</title>
<path fill="none" stroke="gray" d="M707,-1502C707,-1502 837,-1502 837,-1502 843,-1502 849,-1508 849,-1514 849,-1514 849,-1832 849,-1832 849,-1838 843,-1844 837,-1844 837,-1844 707,-1844 707,-1844 701,-1844 695,-1838 695,-1832 695,-1832 695,-1514 695,-1514 695,-1508 701,-1502 707,-1502"/>
<text text-anchor="middle" x="772" y="-1831.2" font-family="Times,serif" font-size="11.00" fill="gray">v201802</text>
</g>
<g id="clust7" class="cluster"><title>cluster_\Google\AdsApi\AdManager\Util\v201811</title>
<path fill="none" stroke="gray" d="M707,-1152C707,-1152 837,-1152 837,-1152 843,-1152 849,-1158 849,-1164 849,-1164 849,-1482 849,-1482 849,-1488 843,-1494 837,-1494 837,-1494 707,-1494 707,-1494 701,-1494 695,-1488 695,-1482 695,-1482 695,-1164 695,-1164 695,-1158 701,-1152 707,-1152"/>
<text text-anchor="middle" x="772" y="-1481.2" font-family="Times,serif" font-size="11.00" fill="gray">v201811</text>
</g>
<g id="clust8" class="cluster"><title>cluster_\Google\AdsApi\AdManager\Util\v201805</title>
<path fill="none" stroke="gray" d="M707,-802C707,-802 837,-802 837,-802 843,-802 849,-808 849,-814 849,-814 849,-1132 849,-1132 849,-1138 843,-1144 837,-1144 837,-1144 707,-1144 707,-1144 701,-1144 695,-1138 695,-1132 695,-1132 695,-814 695,-814 695,-808 701,-802 707,-802"/>
<text text-anchor="middle" x="772" y="-1131.2" font-family="Times,serif" font-size="11.00" fill="gray">v201805</text>
</g>
<g id="clust9" class="cluster"><title>cluster_\Google\AdsApi\AdManager\Util\v201808</title>
<path fill="none" stroke="gray" d="M707,-452C707,-452 837,-452 837,-452 843,-452 849,-458 849,-464 849,-464 849,-782 849,-782 849,-788 843,-794 837,-794 837,-794 707,-794 707,-794 701,-794 695,-788 695,-782 695,-782 695,-464 695,-464 695,-458 701,-452 707,-452"/>
<text text-anchor="middle" x="772" y="-781.2" font-family="Times,serif" font-size="11.00" fill="gray">v201808</text>
</g>
<g id="clust10" class="cluster"><title>cluster_\Google\AdsApi\Common</title>
<path fill="none" stroke="gray" d="M44,-68C44,-68 547.5,-68 547.5,-68 553.5,-68 559.5,-74 559.5,-80 559.5,-80 559.5,-2234 559.5,-2234 559.5,-2240 553.5,-2246 547.5,-2246 547.5,-2246 44,-2246 44,-2246 38,-2246 32,-2240 32,-2234 32,-2234 32,-80 32,-80 32,-74 38,-68 44,-68"/>
<text text-anchor="middle" x="295.75" y="-2233.2" font-family="Times,serif" font-size="11.00" fill="gray">Common</text>
</g>
<g id="clust11" class="cluster"><title>cluster_\Google\AdsApi\Common\Util</title>
<path fill="none" stroke="gray" d="M352,-1822C352,-1822 509,-1822 509,-1822 515,-1822 521,-1828 521,-1834 521,-1834 521,-2206 521,-2206 521,-2212 515,-2218 509,-2218 509,-2218 352,-2218 352,-2218 346,-2218 340,-2212 340,-2206 340,-2206 340,-1834 340,-1834 340,-1828 346,-1822 352,-1822"/>
<text text-anchor="middle" x="430.5" y="-2205.2" font-family="Times,serif" font-size="11.00" fill="gray">Util</text>
</g>
<g id="clust12" class="cluster"><title>cluster_\Google\AdsApi\Common\Testing</title>
<path fill="none" stroke="gray" d="M321.5,-1418C321.5,-1418 539.5,-1418 539.5,-1418 545.5,-1418 551.5,-1424 551.5,-1430 551.5,-1430 551.5,-1802 551.5,-1802 551.5,-1808 545.5,-1814 539.5,-1814 539.5,-1814 321.5,-1814 321.5,-1814 315.5,-1814 309.5,-1808 309.5,-1802 309.5,-1802 309.5,-1430 309.5,-1430 309.5,-1424 315.5,-1418 321.5,-1418"/>
<text text-anchor="middle" x="430.5" y="-1801.2" font-family="Times,serif" font-size="11.00" fill="gray">Testing</text>
</g>
<!-- \\Google\\AdsApi\\AdManager\\Util\\v201802\\Pql -->
<g id="node1" class="node"><title>\\Google\\AdsApi\\AdManager\\Util\\v201802\\Pql</title>
<polygon fill="none" stroke="black" points="799,-1816 745,-1816 745,-1780 799,-1780 799,-1816"/>
<text text-anchor="middle" x="772" y="-1795.2" font-family="Courier,monospace" font-size="11.00">Pql</text>
</g>
<!-- \\Google\\AdsApi\\AdManager\\Util\\v201802\\AdManagerDates -->
<g id="node2" class="node"><title>\\Google\\AdsApi\\AdManager\\Util\\v201802\\AdManagerDates</title>
<polygon fill="none" stroke="black" points="827.5,-1762 716.5,-1762 716.5,-1726 827.5,-1726 827.5,-1762"/>
<text text-anchor="middle" x="772" y="-1741.2" font-family="Courier,monospace" font-size="11.00">AdManagerDates</text>
</g>
<!-- \\Google\\AdsApi\\AdManager\\Util\\v201802\\AdManagerDateTimes -->
<g id="node3" class="node"><title>\\Google\\AdsApi\\AdManager\\Util\\v201802\\AdManagerDateTimes</title>
<polygon fill="none" stroke="black" points="841,-1708 703,-1708 703,-1672 841,-1672 841,-1708"/>
<text text-anchor="middle" x="772" y="-1687.2" font-family="Courier,monospace" font-size="11.00">AdManagerDateTimes</text>
</g>
<!-- \\Google\\AdsApi\\AdManager\\Util\\v201802\\StatementBuilder -->
<g id="node4" class="node"><title>\\Google\\AdsApi\\AdManager\\Util\\v201802\\StatementBuilder</title>
<polygon fill="none" stroke="black" points="834.5,-1654 709.5,-1654 709.5,-1618 834.5,-1618 834.5,-1654"/>
<text text-anchor="middle" x="772" y="-1633.2" font-family="Courier,monospace" font-size="11.00">StatementBuilder</text>
</g>
<!-- \\Google\\AdsApi\\AdManager\\Util\\v201802\\CsvFiles -->
<g id="node5" class="node"><title>\\Google\\AdsApi\\AdManager\\Util\\v201802\\CsvFiles</title>
<polygon fill="none" stroke="black" points="807.5,-1600 736.5,-1600 736.5,-1564 807.5,-1564 807.5,-1600"/>
<text text-anchor="middle" x="772" y="-1579.2" font-family="Courier,monospace" font-size="11.00">CsvFiles</text>
</g>
<!-- \\Google\\AdsApi\\AdManager\\Util\\v201802\\ReportDownloader -->
<g id="node6" class="node"><title>\\Google\\AdsApi\\AdManager\\Util\\v201802\\ReportDownloader</title>
<polygon fill="none" stroke="black" points="834.5,-1546 709.5,-1546 709.5,-1510 834.5,-1510 834.5,-1546"/>
<text text-anchor="middle" x="772" y="-1525.2" font-family="Courier,monospace" font-size="11.00">ReportDownloader</text>
</g>
<!-- \\Google\\AdsApi\\AdManager\\Util\\v201811\\Pql -->
<g id="node7" class="node"><title>\\Google\\AdsApi\\AdManager\\Util\\v201811\\Pql</title>
<polygon fill="none" stroke="black" points="799,-1466 745,-1466 745,-1430 799,-1430 799,-1466"/>
<text text-anchor="middle" x="772" y="-1445.2" font-family="Courier,monospace" font-size="11.00">Pql</text>
</g>
<!-- \\Google\\AdsApi\\AdManager\\Util\\v201811\\AdManagerDates -->
<g id="node8" class="node"><title>\\Google\\AdsApi\\AdManager\\Util\\v201811\\AdManagerDates</title>
<polygon fill="none" stroke="black" points="827.5,-1412 716.5,-1412 716.5,-1376 827.5,-1376 827.5,-1412"/>
<text text-anchor="middle" x="772" y="-1391.2" font-family="Courier,monospace" font-size="11.00">AdManagerDates</text>
</g>
<!-- \\Google\\AdsApi\\AdManager\\Util\\v201811\\AdManagerDateTimes -->
<g id="node9" class="node"><title>\\Google\\AdsApi\\AdManager\\Util\\v201811\\AdManagerDateTimes</title>
<polygon fill="none" stroke="black" points="841,-1358 703,-1358 703,-1322 841,-1322 841,-1358"/>
<text text-anchor="middle" x="772" y="-1337.2" font-family="Courier,monospace" font-size="11.00">AdManagerDateTimes</text>
</g>
<!-- \\Google\\AdsApi\\AdManager\\Util\\v201811\\StatementBuilder -->
<g id="node10" class="node"><title>\\Google\\AdsApi\\AdManager\\Util\\v201811\\StatementBuilder</title>
<polygon fill="none" stroke="black" points="834.5,-1304 709.5,-1304 709.5,-1268 834.5,-1268 834.5,-1304"/>
<text text-anchor="middle" x="772" y="-1283.2" font-family="Courier,monospace" font-size="11.00">StatementBuilder</text>
</g>
<!-- \\Google\\AdsApi\\AdManager\\Util\\v201811\\CsvFiles -->
<g id="node11" class="node"><title>\\Google\\AdsApi\\AdManager\\Util\\v201811\\CsvFiles</title>
<polygon fill="none" stroke="black" points="807.5,-1250 736.5,-1250 736.5,-1214 807.5,-1214 807.5,-1250"/>
<text text-anchor="middle" x="772" y="-1229.2" font-family="Courier,monospace" font-size="11.00">CsvFiles</text>
</g>
<!-- \\Google\\AdsApi\\AdManager\\Util\\v201811\\ReportDownloader -->
<g id="node12" class="node"><title>\\Google\\AdsApi\\AdManager\\Util\\v201811\\ReportDownloader</title>
<polygon fill="none" stroke="black" points="834.5,-1196 709.5,-1196 709.5,-1160 834.5,-1160 834.5,-1196"/>
<text text-anchor="middle" x="772" y="-1175.2" font-family="Courier,monospace" font-size="11.00">ReportDownloader</text>
</g>
<!-- \\Google\\AdsApi\\AdManager\\Util\\v201805\\Pql -->
<g id="node13" class="node"><title>\\Google\\AdsApi\\AdManager\\Util\\v201805\\Pql</title>
<polygon fill="none" stroke="black" points="799,-1116 745,-1116 745,-1080 799,-1080 799,-1116"/>
<text text-anchor="middle" x="772" y="-1095.2" font-family="Courier,monospace" font-size="11.00">Pql</text>
</g>
<!-- \\Google\\AdsApi\\AdManager\\Util\\v201805\\AdManagerDates -->
<g id="node14" class="node"><title>\\Google\\AdsApi\\AdManager\\Util\\v201805\\AdManagerDates</title>
<polygon fill="none" stroke="black" points="827.5,-1062 716.5,-1062 716.5,-1026 827.5,-1026 827.5,-1062"/>
<text text-anchor="middle" x="772" y="-1041.2" font-family="Courier,monospace" font-size="11.00">AdManagerDates</text>
</g>
<!-- \\Google\\AdsApi\\AdManager\\Util\\v201805\\AdManagerDateTimes -->
<g id="node15" class="node"><title>\\Google\\AdsApi\\AdManager\\Util\\v201805\\AdManagerDateTimes</title>
<polygon fill="none" stroke="black" points="841,-1008 703,-1008 703,-972 841,-972 841,-1008"/>
<text text-anchor="middle" x="772" y="-987.2" font-family="Courier,monospace" font-size="11.00">AdManagerDateTimes</text>
</g>
<!-- \\Google\\AdsApi\\AdManager\\Util\\v201805\\StatementBuilder -->
<g id="node16" class="node"><title>\\Google\\AdsApi\\AdManager\\Util\\v201805\\StatementBuilder</title>
<polygon fill="none" stroke="black" points="834.5,-954 709.5,-954 709.5,-918 834.5,-918 834.5,-954"/>
<text text-anchor="middle" x="772" y="-933.2" font-family="Courier,monospace" font-size="11.00">StatementBuilder</text>
</g>
<!-- \\Google\\AdsApi\\AdManager\\Util\\v201805\\CsvFiles -->
<g id="node17" class="node"><title>\\Google\\AdsApi\\AdManager\\Util\\v201805\\CsvFiles</title>
<polygon fill="none" stroke="black" points="807.5,-900 736.5,-900 736.5,-864 807.5,-864 807.5,-900"/>
<text text-anchor="middle" x="772" y="-879.2" font-family="Courier,monospace" font-size="11.00">CsvFiles</text>
</g>
<!-- \\Google\\AdsApi\\AdManager\\Util\\v201805\\ReportDownloader -->
<g id="node18" class="node"><title>\\Google\\AdsApi\\AdManager\\Util\\v201805\\ReportDownloader</title>
<polygon fill="none" stroke="black" points="834.5,-846 709.5,-846 709.5,-810 834.5,-810 834.5,-846"/>
<text text-anchor="middle" x="772" y="-825.2" font-family="Courier,monospace" font-size="11.00">ReportDownloader</text>
</g>
<!-- \\Google\\AdsApi\\AdManager\\Util\\v201808\\Pql -->
<g id="node19" class="node"><title>\\Google\\AdsApi\\AdManager\\Util\\v201808\\Pql</title>
<polygon fill="none" stroke="black" points="799,-766 745,-766 745,-730 799,-730 799,-766"/>
<text text-anchor="middle" x="772" y="-745.2" font-family="Courier,monospace" font-size="11.00">Pql</text>
</g>
<!-- \\Google\\AdsApi\\AdManager\\Util\\v201808\\AdManagerDates -->
<g id="node20" class="node"><title>\\Google\\AdsApi\\AdManager\\Util\\v201808\\AdManagerDates</title>
<polygon fill="none" stroke="black" points="827.5,-712 716.5,-712 716.5,-676 827.5,-676 827.5,-712"/>
<text text-anchor="middle" x="772" y="-691.2" font-family="Courier,monospace" font-size="11.00">AdManagerDates</text>
</g>
<!-- \\Google\\AdsApi\\AdManager\\Util\\v201808\\AdManagerDateTimes -->
<g id="node21" class="node"><title>\\Google\\AdsApi\\AdManager\\Util\\v201808\\AdManagerDateTimes</title>
<polygon fill="none" stroke="black" points="841,-658 703,-658 703,-622 841,-622 841,-658"/>
<text text-anchor="middle" x="772" y="-637.2" font-family="Courier,monospace" font-size="11.00">AdManagerDateTimes</text>
</g>
<!-- \\Google\\AdsApi\\AdManager\\Util\\v201808\\StatementBuilder -->
<g id="node22" class="node"><title>\\Google\\AdsApi\\AdManager\\Util\\v201808\\StatementBuilder</title>
<polygon fill="none" stroke="black" points="834.5,-604 709.5,-604 709.5,-568 834.5,-568 834.5,-604"/>
<text text-anchor="middle" x="772" y="-583.2" font-family="Courier,monospace" font-size="11.00">StatementBuilder</text>
</g>
<!-- \\Google\\AdsApi\\AdManager\\Util\\v201808\\CsvFiles -->
<g id="node23" class="node"><title>\\Google\\AdsApi\\AdManager\\Util\\v201808\\CsvFiles</title>
<polygon fill="none" stroke="black" points="807.5,-550 736.5,-550 736.5,-514 807.5,-514 807.5,-550"/>
<text text-anchor="middle" x="772" y="-529.2" font-family="Courier,monospace" font-size="11.00">CsvFiles</text>
</g>
<!-- \\Google\\AdsApi\\AdManager\\Util\\v201808\\ReportDownloader -->
<g id="node24" class="node"><title>\\Google\\AdsApi\\AdManager\\Util\\v201808\\ReportDownloader</title>
<polygon fill="none" stroke="black" points="834.5,-496 709.5,-496 709.5,-460 834.5,-460 834.5,-496"/>
<text text-anchor="middle" x="772" y="-475.2" font-family="Courier,monospace" font-size="11.00">ReportDownloader</text>
</g>
<!-- \\Google\\AdsApi\\AdManager\\AdManagerGuzzleLogMessageFormatterProvider -->
<g id="node25" class="node"><title>\\Google\\AdsApi\\AdManager\\AdManagerGuzzleLogMessageFormatterProvider</title>
<polygon fill="none" stroke="black" points="922,-328 622,-328 622,-292 922,-292 922,-328"/>
<text text-anchor="middle" x="772" y="-307.2" font-family="Courier,monospace" font-size="11.00">AdManagerGuzzleLogMessageFormatterProvider</text>
</g>
<!-- \\Google\\AdsApi\\Common\\GuzzleLogMessageFormatterProvider -->
<g id="node72" class="node"><title>\\Google\\AdsApi\\Common\\GuzzleLogMessageFormatterProvider</title>
<polygon fill="none" stroke="black" points="550,-328 311,-328 311,-292 550,-292 550,-328"/>
<text text-anchor="middle" x="430.5" y="-307.2" font-family="Courier,monospace" font-size="11.00">GuzzleLogMessageFormatterProvider</text>
</g>
<!-- \\Google\\AdsApi\\AdManager\\AdManagerGuzzleLogMessageFormatterProvider&#45;&gt;\\Google\\AdsApi\\Common\\GuzzleLogMessageFormatterProvider -->
<g id="edge1" class="edge"><title>\\Google\\AdsApi\\AdManager\\AdManagerGuzzleLogMessageFormatterProvider&#45;&gt;\\Google\\AdsApi\\Common\\GuzzleLogMessageFormatterProvider</title>
<path fill="none" stroke="black" stroke-dasharray="1,5" d="M621.596,-310C601.127,-310 580.258,-310 560.202,-310"/>
<polygon fill="none" stroke="black" points="560.112,-306.5 550.112,-310 560.112,-313.5 560.112,-306.5"/>
</g>
<!-- \\Google\\AdsApi\\AdManager\\AdManagerHeaderHandler -->
<g id="node26" class="node"><title>\\Google\\AdsApi\\AdManager\\AdManagerHeaderHandler</title>
<polygon fill="none" stroke="black" points="854.5,-274 689.5,-274 689.5,-238 854.5,-238 854.5,-274"/>
<text text-anchor="middle" x="772" y="-253.2" font-family="Courier,monospace" font-size="11.00">AdManagerHeaderHandler</text>
</g>
<!-- \\Google\\AdsApi\\Common\\AdsHeaderHandler -->
<g id="node65" class="node"><title>\\Google\\AdsApi\\Common\\AdsHeaderHandler</title>
<polygon fill="none" stroke="black" points="493,-274 368,-274 368,-238 493,-238 493,-274"/>
<text text-anchor="middle" x="430.5" y="-253.2" font-family="Courier,monospace" font-size="11.00">AdsHeaderHandler</text>
</g>
<!-- \\Google\\AdsApi\\AdManager\\AdManagerHeaderHandler&#45;&gt;\\Google\\AdsApi\\Common\\AdsHeaderHandler -->
<g id="edge2" class="edge"><title>\\Google\\AdsApi\\AdManager\\AdManagerHeaderHandler&#45;&gt;\\Google\\AdsApi\\Common\\AdsHeaderHandler</title>
<path fill="none" stroke="black" stroke-dasharray="1,5" d="M689.249,-256C632.569,-256 557.795,-256 503.39,-256"/>
<polygon fill="none" stroke="black" points="503.135,-252.5 493.135,-256 503.135,-259.5 503.135,-252.5"/>
</g>
<!-- \\Google\\AdsApi\\AdManager\\AdManagerServiceDescriptor -->
<g id="node27" class="node"><title>\\Google\\AdsApi\\AdManager\\AdManagerServiceDescriptor</title>
<polygon fill="none" stroke="black" points="868,-220 676,-220 676,-184 868,-184 868,-220"/>
<text text-anchor="middle" x="772" y="-199.2" font-family="Courier,monospace" font-size="11.00">AdManagerServiceDescriptor</text>
</g>
<!-- \\Google\\AdsApi\\Common\\AdsServiceDescriptor -->
<g id="node67" class="node"><title>\\Google\\AdsApi\\Common\\AdsServiceDescriptor</title>
<polygon fill="none" stroke="black" points="506.5,-220 354.5,-220 354.5,-184 506.5,-184 506.5,-220"/>
<text text-anchor="middle" x="430.5" y="-199.2" font-family="Courier,monospace" font-size="11.00">AdsServiceDescriptor</text>
</g>
<!-- \\Google\\AdsApi\\AdManager\\AdManagerServiceDescriptor&#45;&gt;\\Google\\AdsApi\\Common\\AdsServiceDescriptor -->
<g id="edge3" class="edge"><title>\\Google\\AdsApi\\AdManager\\AdManagerServiceDescriptor&#45;&gt;\\Google\\AdsApi\\Common\\AdsServiceDescriptor</title>
<path fill="none" stroke="black" stroke-dasharray="1,5" d="M675.979,-202C625.982,-202 565.18,-202 516.719,-202"/>
<polygon fill="none" stroke="black" points="516.574,-198.5 506.574,-202 516.574,-205.5 516.574,-198.5"/>
</g>
<!-- \\Google\\AdsApi\\AdManager\\AdManagerSessionBuilder -->
<g id="node28" class="node"><title>\\Google\\AdsApi\\AdManager\\AdManagerSessionBuilder</title>
<polygon fill="none" stroke="black" points="858,-436 686,-436 686,-400 858,-400 858,-436"/>
<text text-anchor="middle" x="772" y="-415.2" font-family="Courier,monospace" font-size="11.00">AdManagerSessionBuilder</text>
</g>
<!-- \\Google\\AdsApi\\Common\\AdsBuilder -->
<g id="node73" class="node"><title>\\Google\\AdsApi\\Common\\AdsBuilder</title>
<polygon fill="none" stroke="black" points="181.5,-1165 97.5,-1165 97.5,-1129 181.5,-1129 181.5,-1165"/>
<text text-anchor="middle" x="139.5" y="-1144.2" font-family="Courier,monospace" font-size="11.00">AdsBuilder</text>
</g>
<!-- \\Google\\AdsApi\\AdManager\\AdManagerSessionBuilder&#45;&gt;\\Google\\AdsApi\\Common\\AdsBuilder -->
<g id="edge4" class="edge"><title>\\Google\\AdsApi\\AdManager\\AdManagerSessionBuilder&#45;&gt;\\Google\\AdsApi\\Common\\AdsBuilder</title>
<path fill="none" stroke="black" stroke-dasharray="1,5" d="M685.989,-414.482C659.073,-417.973 631.741,-427.206 614,-448 486.002,-598.02 701.069,-2084.71 559.5,-2222 519.618,-2260.68 350.268,-2259.74 309.5,-2222 234.836,-2152.88 270.202,-1405.84 239,-1309 222.115,-1256.59 185.242,-1203.51 161.71,-1173"/>
<polygon fill="none" stroke="black" points="164.377,-1170.73 155.454,-1165.02 158.866,-1175.05 164.377,-1170.73"/>
</g>
<!-- \\Google\\AdsApi\\AdManager\\AdManagerSession -->
<g id="node29" class="node"><title>\\Google\\AdsApi\\AdManager\\AdManagerSession</title>
<polygon fill="none" stroke="black" points="834.5,-112 709.5,-112 709.5,-76 834.5,-76 834.5,-112"/>
<text text-anchor="middle" x="772" y="-91.2" font-family="Courier,monospace" font-size="11.00">AdManagerSession</text>
</g>
<!-- \\Google\\AdsApi\\Common\\AdsSession -->
<g id="node70" class="node"><title>\\Google\\AdsApi\\Common\\AdsSession</title>
<polygon fill="none" stroke="black" points="472.5,-112 388.5,-112 388.5,-76 472.5,-76 472.5,-112"/>
<text text-anchor="middle" x="430.5" y="-91.2" font-family="Courier,monospace" font-size="11.00">AdsSession</text>
</g>
<!-- \\Google\\AdsApi\\AdManager\\AdManagerSession&#45;&gt;\\Google\\AdsApi\\Common\\AdsSession -->
<g id="edge5" class="edge"><title>\\Google\\AdsApi\\AdManager\\AdManagerSession&#45;&gt;\\Google\\AdsApi\\Common\\AdsSession</title>
<path fill="none" stroke="black" stroke-dasharray="1,5" d="M709.125,-94C644.219,-94 543.384,-94 482.766,-94"/>
<polygon fill="none" stroke="black" points="482.664,-90.5001 472.664,-94 482.664,-97.5001 482.664,-90.5001"/>
</g>
<!-- \\Google\\AdsApi\\AdManager\\AdManagerServices -->
<g id="node30" class="node"><title>\\Google\\AdsApi\\AdManager\\AdManagerServices</title>
<polygon fill="none" stroke="black" points="837.5,-382 706.5,-382 706.5,-346 837.5,-346 837.5,-382"/>
<text text-anchor="middle" x="772" y="-361.2" font-family="Courier,monospace" font-size="11.00">AdManagerServices</text>
</g>
<!-- \\Google\\AdsApi\\Common\\AdsServices -->
<g id="node71" class="node"><title>\\Google\\AdsApi\\Common\\AdsServices</title>
<polygon fill="none" stroke="black" points="476,-382 385,-382 385,-346 476,-346 476,-382"/>
<text text-anchor="middle" x="430.5" y="-361.2" font-family="Courier,monospace" font-size="11.00">AdsServices</text>
</g>
<!-- \\Google\\AdsApi\\AdManager\\AdManagerServices&#45;&gt;\\Google\\AdsApi\\Common\\AdsServices -->
<g id="edge6" class="edge"><title>\\Google\\AdsApi\\AdManager\\AdManagerServices&#45;&gt;\\Google\\AdsApi\\Common\\AdsServices</title>
<path fill="none" stroke="black" stroke-dasharray="1,5" d="M706.344,-364C642.599,-364 546.258,-364 486.203,-364"/>
<polygon fill="none" stroke="black" points="486.158,-360.5 476.158,-364 486.158,-367.5 486.158,-360.5"/>
</g>
<!-- \\Google\\AdsApi\\AdManager\\AdManagerSoapLogMessageFormatterProvider -->
<g id="node31" class="node"><title>\\Google\\AdsApi\\AdManager\\AdManagerSoapLogMessageFormatterProvider</title>
<polygon fill="none" stroke="black" points="915.5,-166 628.5,-166 628.5,-130 915.5,-130 915.5,-166"/>
<text text-anchor="middle" x="772" y="-145.2" font-family="Courier,monospace" font-size="11.00">AdManagerSoapLogMessageFormatterProvider</text>
</g>
<!-- \\Google\\AdsApi\\Common\\SoapLogMessageFormatterProvider -->
<g id="node68" class="node"><title>\\Google\\AdsApi\\Common\\SoapLogMessageFormatterProvider</title>
<polygon fill="none" stroke="black" points="543.5,-166 317.5,-166 317.5,-130 543.5,-130 543.5,-166"/>
<text text-anchor="middle" x="430.5" y="-145.2" font-family="Courier,monospace" font-size="11.00">SoapLogMessageFormatterProvider</text>
</g>
<!-- \\Google\\AdsApi\\AdManager\\AdManagerSoapLogMessageFormatterProvider&#45;&gt;\\Google\\AdsApi\\Common\\SoapLogMessageFormatterProvider -->
<g id="edge7" class="edge"><title>\\Google\\AdsApi\\AdManager\\AdManagerSoapLogMessageFormatterProvider&#45;&gt;\\Google\\AdsApi\\Common\\SoapLogMessageFormatterProvider</title>
<path fill="none" stroke="black" stroke-dasharray="1,5" d="M628.497,-148C603.728,-148 578.164,-148 553.989,-148"/>
<polygon fill="none" stroke="black" points="553.72,-144.5 543.72,-148 553.72,-151.5 553.72,-144.5"/>
</g>
<!-- \\Google\\AdsApi\\Common\\Util\\EnvironmentalVariables -->
<g id="node32" class="node"><title>\\Google\\AdsApi\\Common\\Util\\EnvironmentalVariables</title>
<polygon fill="none" stroke="black" points="513,-2190 348,-2190 348,-2154 513,-2154 513,-2190"/>
<text text-anchor="middle" x="430.5" y="-2169.2" font-family="Courier,monospace" font-size="11.00">EnvironmentalVariables</text>
</g>
<!-- \\Google\\AdsApi\\Common\\Util\\SoapHeaders -->
<g id="node33" class="node"><title>\\Google\\AdsApi\\Common\\Util\\SoapHeaders</title>
<polygon fill="none" stroke="black" points="476,-2136 385,-2136 385,-2100 476,-2100 476,-2136"/>
<text text-anchor="middle" x="430.5" y="-2115.2" font-family="Courier,monospace" font-size="11.00">SoapHeaders</text>
</g>
<!-- \\Google\\AdsApi\\Common\\Util\\SoapRequests -->
<g id="node34" class="node"><title>\\Google\\AdsApi\\Common\\Util\\SoapRequests</title>
<polygon fill="none" stroke="black" points="479.5,-2082 381.5,-2082 381.5,-2046 479.5,-2046 479.5,-2082"/>
<text text-anchor="middle" x="430.5" y="-2061.2" font-family="Courier,monospace" font-size="11.00">SoapRequests</text>
</g>
<!-- \\Google\\AdsApi\\Common\\Util\\Reflection -->
<g id="node35" class="node"><title>\\Google\\AdsApi\\Common\\Util\\Reflection</title>
<polygon fill="none" stroke="black" points="472.5,-2028 388.5,-2028 388.5,-1992 472.5,-1992 472.5,-2028"/>
<text text-anchor="middle" x="430.5" y="-2007.2" font-family="Courier,monospace" font-size="11.00">Reflection</text>
</g>
<!-- \\Google\\AdsApi\\Common\\Util\\MapEntries -->
<g id="node36" class="node"><title>\\Google\\AdsApi\\Common\\Util\\MapEntries</title>
<polygon fill="none" stroke="black" points="472.5,-1974 388.5,-1974 388.5,-1938 472.5,-1938 472.5,-1974"/>
<text text-anchor="middle" x="430.5" y="-1953.2" font-family="Courier,monospace" font-size="11.00">MapEntries</text>
</g>
<!-- \\Google\\AdsApi\\Common\\Util\\LogMessageScrubbers -->
<g id="node37" class="node"><title>\\Google\\AdsApi\\Common\\Util\\LogMessageScrubbers</title>
<polygon fill="none" stroke="black" points="503,-1920 358,-1920 358,-1884 503,-1884 503,-1920"/>
<text text-anchor="middle" x="430.5" y="-1899.2" font-family="Courier,monospace" font-size="11.00">LogMessageScrubbers</text>
</g>
<!-- \\Google\\AdsApi\\Common\\Util\\OAuth2TokenRefresher -->
<g id="node38" class="node"><title>\\Google\\AdsApi\\Common\\Util\\OAuth2TokenRefresher</title>
<polygon fill="none" stroke="black" points="506.5,-1866 354.5,-1866 354.5,-1830 506.5,-1830 506.5,-1866"/>
<text text-anchor="middle" x="430.5" y="-1845.2" font-family="Courier,monospace" font-size="11.00">OAuth2TokenRefresher</text>
</g>
<!-- \\Google\\AdsApi\\Common\\Testing\\ConfigurationLoaderTestProvider -->
<g id="node39" class="node"><title>\\Google\\AdsApi\\Common\\Testing\\ConfigurationLoaderTestProvider</title>
<polygon fill="none" stroke="black" points="543.5,-1786 317.5,-1786 317.5,-1750 543.5,-1750 543.5,-1786"/>
<text text-anchor="middle" x="430.5" y="-1765.2" font-family="Courier,monospace" font-size="11.00">ConfigurationLoaderTestProvider</text>
</g>
<!-- \\Google\\AdsApi\\Common\\Testing\\FakeInvalidMapEntry -->
<g id="node40" class="node"><title>\\Google\\AdsApi\\Common\\Testing\\FakeInvalidMapEntry</title>
<polygon fill="none" stroke="black" points="503,-1732 358,-1732 358,-1696 503,-1696 503,-1732"/>
<text text-anchor="middle" x="430.5" y="-1711.2" font-family="Courier,monospace" font-size="11.00">FakeInvalidMapEntry</text>
</g>
<!-- \\Google\\AdsApi\\Common\\Testing\\FakeHttpPayloadsAndLogsProvider -->
<g id="node41" class="node"><title>\\Google\\AdsApi\\Common\\Testing\\FakeHttpPayloadsAndLogsProvider</title>
<polygon fill="none" stroke="black" points="543.5,-1678 317.5,-1678 317.5,-1642 543.5,-1642 543.5,-1678"/>
<text text-anchor="middle" x="430.5" y="-1657.2" font-family="Courier,monospace" font-size="11.00">FakeHttpPayloadsAndLogsProvider</text>
</g>
<!-- \\Google\\AdsApi\\Common\\Testing\\AdsBuildersTestProvider -->
<g id="node42" class="node"><title>\\Google\\AdsApi\\Common\\Testing\\AdsBuildersTestProvider</title>
<polygon fill="none" stroke="black" points="516.5,-1624 344.5,-1624 344.5,-1588 516.5,-1588 516.5,-1624"/>
<text text-anchor="middle" x="430.5" y="-1603.2" font-family="Courier,monospace" font-size="11.00">AdsBuildersTestProvider</text>
</g>
<!-- \\Google\\AdsApi\\Common\\Testing\\FakeSoapPayloadsAndLogsProvider -->
<g id="node43" class="node"><title>\\Google\\AdsApi\\Common\\Testing\\FakeSoapPayloadsAndLogsProvider</title>
<polygon fill="none" stroke="black" points="543.5,-1570 317.5,-1570 317.5,-1534 543.5,-1534 543.5,-1570"/>
<text text-anchor="middle" x="430.5" y="-1549.2" font-family="Courier,monospace" font-size="11.00">FakeSoapPayloadsAndLogsProvider</text>
</g>
<!-- \\Google\\AdsApi\\Common\\Testing\\FakeMapEntry -->
<g id="node44" class="node"><title>\\Google\\AdsApi\\Common\\Testing\\FakeMapEntry</title>
<polygon fill="none" stroke="black" points="479.5,-1516 381.5,-1516 381.5,-1480 479.5,-1480 479.5,-1516"/>
<text text-anchor="middle" x="430.5" y="-1495.2" font-family="Courier,monospace" font-size="11.00">FakeMapEntry</text>
</g>
<!-- \\Google\\AdsApi\\Common\\Testing\\ApplicationNames -->
<g id="node45" class="node"><title>\\Google\\AdsApi\\Common\\Testing\\ApplicationNames</title>
<polygon fill="none" stroke="black" points="493,-1462 368,-1462 368,-1426 493,-1426 493,-1462"/>
<text text-anchor="middle" x="430.5" y="-1441.2" font-family="Courier,monospace" font-size="11.00">ApplicationNames</text>
</g>
<!-- \\Google\\AdsApi\\Common\\AdsGuzzleHttpClientFactory -->
<g id="node46" class="node"><title>\\Google\\AdsApi\\Common\\AdsGuzzleHttpClientFactory</title>
<polygon fill="none" stroke="black" points="526.5,-1408 334.5,-1408 334.5,-1372 526.5,-1372 526.5,-1408"/>
<text text-anchor="middle" x="430.5" y="-1387.2" font-family="Courier,monospace" font-size="11.00">AdsGuzzleHttpClientFactory</text>
</g>
<!-- \\Google\\AdsApi\\Common\\GuzzleHttpClientFactory -->
<g id="node66" class="node"><title>\\Google\\AdsApi\\Common\\GuzzleHttpClientFactory</title>
<polygon fill="none" stroke="black" points="225.5,-1408 53.5,-1408 53.5,-1372 225.5,-1372 225.5,-1408"/>
<text text-anchor="middle" x="139.5" y="-1387.2" font-family="Courier,monospace" font-size="11.00">GuzzleHttpClientFactory</text>
</g>
<!-- \\Google\\AdsApi\\Common\\AdsGuzzleHttpClientFactory&#45;&gt;\\Google\\AdsApi\\Common\\GuzzleHttpClientFactory -->
<g id="edge8" class="edge"><title>\\Google\\AdsApi\\Common\\AdsGuzzleHttpClientFactory&#45;&gt;\\Google\\AdsApi\\Common\\GuzzleHttpClientFactory</title>
<path fill="none" stroke="black" stroke-dasharray="1,5" d="M334.47,-1390C302.85,-1390 267.636,-1390 235.982,-1390"/>
<polygon fill="none" stroke="black" points="235.839,-1386.5 225.839,-1390 235.839,-1393.5 235.839,-1386.5"/>
</g>
<!-- \\Google\\AdsApi\\Common\\AdsUtilityRegistry -->
<g id="node47" class="node"><title>\\Google\\AdsApi\\Common\\AdsUtilityRegistry</title>
<polygon fill="none" stroke="black" points="499.5,-1354 361.5,-1354 361.5,-1318 499.5,-1318 499.5,-1354"/>
<text text-anchor="middle" x="430.5" y="-1333.2" font-family="Courier,monospace" font-size="11.00">AdsUtilityRegistry</text>
</g>
<!-- \\Google\\AdsApi\\Common\\AdsUtilityRegistryInterface -->
<g id="node69" class="node"><title>\\Google\\AdsApi\\Common\\AdsUtilityRegistryInterface</title>
<polygon fill="none" stroke="black" points="239,-1354 40,-1354 40,-1318 239,-1318 239,-1354"/>
<text text-anchor="middle" x="139.5" y="-1333.2" font-family="Courier,monospace" font-size="11.00">AdsUtilityRegistryInterface</text>
</g>
<!-- \\Google\\AdsApi\\Common\\AdsUtilityRegistry&#45;&gt;\\Google\\AdsApi\\Common\\AdsUtilityRegistryInterface -->
<g id="edge9" class="edge"><title>\\Google\\AdsApi\\Common\\AdsUtilityRegistry&#45;&gt;\\Google\\AdsApi\\Common\\AdsUtilityRegistryInterface</title>
<path fill="none" stroke="black" stroke-dasharray="1,5" d="M361.377,-1336C327.905,-1336 286.761,-1336 249.093,-1336"/>
<polygon fill="none" stroke="black" points="249.086,-1332.5 239.086,-1336 249.086,-1339.5 249.086,-1332.5"/>
</g>
<!-- \\Google\\AdsApi\\Common\\Configuration -->
<g id="node48" class="node"><title>\\Google\\AdsApi\\Common\\Configuration</title>
<polygon fill="none" stroke="black" points="482.5,-1300 378.5,-1300 378.5,-1264 482.5,-1264 482.5,-1300"/>
<text text-anchor="middle" x="430.5" y="-1279.2" font-family="Courier,monospace" font-size="11.00">Configuration</text>
</g>
<!-- \\Google\\AdsApi\\Common\\OAuth2TokenBuilder -->
<g id="node49" class="node"><title>\\Google\\AdsApi\\Common\\OAuth2TokenBuilder</title>
<polygon fill="none" stroke="black" points="499.5,-1246 361.5,-1246 361.5,-1210 499.5,-1210 499.5,-1246"/>
<text text-anchor="middle" x="430.5" y="-1225.2" font-family="Courier,monospace" font-size="11.00">OAuth2TokenBuilder</text>
</g>
<!-- \\Google\\AdsApi\\Common\\OAuth2TokenBuilder&#45;&gt;\\Google\\AdsApi\\Common\\AdsBuilder -->
<g id="edge10" class="edge"><title>\\Google\\AdsApi\\Common\\OAuth2TokenBuilder&#45;&gt;\\Google\\AdsApi\\Common\\AdsBuilder</title>
<path fill="none" stroke="black" stroke-dasharray="1,5" d="M361.339,-1213.76C344.334,-1209.9 326.192,-1205.54 309.5,-1201 269.325,-1190.08 224.464,-1175.64 191.064,-1164.44"/>
<polygon fill="none" stroke="black" points="192.118,-1161.1 181.523,-1161.22 189.881,-1167.74 192.118,-1161.1"/>
</g>
<!-- \\Google\\AdsApi\\Common\\AdsUtility -->
<g id="node50" class="node"><title>\\Google\\AdsApi\\Common\\AdsUtility</title>
<polygon fill="none" stroke="black" points="472.5,-1192 388.5,-1192 388.5,-1156 472.5,-1156 472.5,-1192"/>
<text text-anchor="middle" x="430.5" y="-1171.2" font-family="Courier,monospace" font-size="11.00">AdsUtility</text>
</g>
<!-- \\Google\\AdsApi\\Common\\AdsSoapClientFactory -->
<g id="node51" class="node"><title>\\Google\\AdsApi\\Common\\AdsSoapClientFactory</title>
<polygon fill="none" stroke="black" points="506.5,-1138 354.5,-1138 354.5,-1102 506.5,-1102 506.5,-1138"/>
<text text-anchor="middle" x="430.5" y="-1117.2" font-family="Courier,monospace" font-size="11.00">AdsSoapClientFactory</text>
</g>
<!-- \\Google\\AdsApi\\Common\\SoapSettingsBuilder -->
<g id="node52" class="node"><title>\\Google\\AdsApi\\Common\\SoapSettingsBuilder</title>
<polygon fill="none" stroke="black" points="503,-1084 358,-1084 358,-1048 503,-1048 503,-1084"/>
<text text-anchor="middle" x="430.5" y="-1063.2" font-family="Courier,monospace" font-size="11.00">SoapSettingsBuilder</text>
</g>
<!-- \\Google\\AdsApi\\Common\\SoapSettingsBuilder&#45;&gt;\\Google\\AdsApi\\Common\\AdsBuilder -->
<g id="edge11" class="edge"><title>\\Google\\AdsApi\\Common\\SoapSettingsBuilder&#45;&gt;\\Google\\AdsApi\\Common\\AdsBuilder</title>
<path fill="none" stroke="black" stroke-dasharray="1,5" d="M357.86,-1081.04C341.877,-1084.69 325.058,-1088.77 309.5,-1093 269.325,-1103.92 224.464,-1118.36 191.064,-1129.56"/>
<polygon fill="none" stroke="black" points="189.881,-1126.26 181.523,-1132.78 192.118,-1132.9 189.881,-1126.26"/>
</g>
<!-- \\Google\\AdsApi\\Common\\SoapSettings -->
<g id="node53" class="node"><title>\\Google\\AdsApi\\Common\\SoapSettings</title>
<polygon fill="none" stroke="black" points="479.5,-1030 381.5,-1030 381.5,-994 479.5,-994 479.5,-1030"/>
<text text-anchor="middle" x="430.5" y="-1009.2" font-family="Courier,monospace" font-size="11.00">SoapSettings</text>
</g>
<!-- \\Google\\AdsApi\\Common\\AdsGuzzleProxyHttpHandler -->
<g id="node54" class="node"><title>\\Google\\AdsApi\\Common\\AdsGuzzleProxyHttpHandler</title>
<polygon fill="none" stroke="black" points="523,-976 338,-976 338,-940 523,-940 523,-976"/>
<text text-anchor="middle" x="430.5" y="-955.2" font-family="Courier,monospace" font-size="11.00">AdsGuzzleProxyHttpHandler</text>
</g>
<!-- \\Google\\AdsApi\\Common\\ConfigurationLoader -->
<g id="node55" class="node"><title>\\Google\\AdsApi\\Common\\ConfigurationLoader</title>
<polygon fill="none" stroke="black" points="503,-922 358,-922 358,-886 503,-886 503,-922"/>
<text text-anchor="middle" x="430.5" y="-901.2" font-family="Courier,monospace" font-size="11.00">ConfigurationLoader</text>
</g>
<!-- \\Google\\AdsApi\\Common\\ConnectionSettingsBuilder -->
<g id="node56" class="node"><title>\\Google\\AdsApi\\Common\\ConnectionSettingsBuilder</title>
<polygon fill="none" stroke="black" points="523,-868 338,-868 338,-832 523,-832 523,-868"/>
<text text-anchor="middle" x="430.5" y="-847.2" font-family="Courier,monospace" font-size="11.00">ConnectionSettingsBuilder</text>
</g>
<!-- \\Google\\AdsApi\\Common\\ConnectionSettingsBuilder&#45;&gt;\\Google\\AdsApi\\Common\\AdsBuilder -->
<g id="edge12" class="edge"><title>\\Google\\AdsApi\\Common\\ConnectionSettingsBuilder&#45;&gt;\\Google\\AdsApi\\Common\\AdsBuilder</title>
<path fill="none" stroke="black" stroke-dasharray="1,5" d="M337.753,-862.546C327.703,-866.228 318.038,-870.951 309.5,-877 221.357,-939.451 169.329,-1063.8 149.622,-1119.23"/>
<polygon fill="none" stroke="black" points="146.292,-1118.15 146.317,-1128.74 152.905,-1120.44 146.292,-1118.15"/>
</g>
<!-- \\Google\\AdsApi\\Common\\GuzzleLogMessageHandler -->
<g id="node57" class="node"><title>\\Google\\AdsApi\\Common\\GuzzleLogMessageHandler</title>
<polygon fill="none" stroke="black" points="516.5,-814 344.5,-814 344.5,-778 516.5,-778 516.5,-814"/>
<text text-anchor="middle" x="430.5" y="-793.2" font-family="Courier,monospace" font-size="11.00">GuzzleLogMessageHandler</text>
</g>
<!-- \\Google\\AdsApi\\Common\\SoapLogMessageFormatter -->
<g id="node58" class="node"><title>\\Google\\AdsApi\\Common\\SoapLogMessageFormatter</title>
<polygon fill="none" stroke="black" points="516.5,-760 344.5,-760 344.5,-724 516.5,-724 516.5,-760"/>
<text text-anchor="middle" x="430.5" y="-739.2" font-family="Courier,monospace" font-size="11.00">SoapLogMessageFormatter</text>
</g>
<!-- \\Google\\AdsApi\\Common\\LibraryMetadataProvider -->
<g id="node59" class="node"><title>\\Google\\AdsApi\\Common\\LibraryMetadataProvider</title>
<polygon fill="none" stroke="black" points="516.5,-706 344.5,-706 344.5,-670 516.5,-670 516.5,-706"/>
<text text-anchor="middle" x="430.5" y="-685.2" font-family="Courier,monospace" font-size="11.00">LibraryMetadataProvider</text>
</g>
<!-- \\Google\\AdsApi\\Common\\AdsSoapClient -->
<g id="node60" class="node"><title>\\Google\\AdsApi\\Common\\AdsSoapClient</title>
<polygon fill="none" stroke="black" points="482.5,-652 378.5,-652 378.5,-616 482.5,-616 482.5,-652"/>
<text text-anchor="middle" x="430.5" y="-631.2" font-family="Courier,monospace" font-size="11.00">AdsSoapClient</text>
</g>
<!-- \\SoapClient -->
<g id="node74" class="node"><title>\\SoapClient</title>
<ellipse fill="none" stroke="black" cx="139.5" cy="-18" rx="51.9908" ry="18"/>
<text text-anchor="middle" x="139.5" y="-14.3" font-family="Times,serif" font-size="14.00" fill="gray">\SoapClient</text>
</g>
<!-- \\Google\\AdsApi\\Common\\AdsSoapClient&#45;&gt;\\SoapClient -->
<g id="edge13" class="edge"><title>\\Google\\AdsApi\\Common\\AdsSoapClient&#45;&gt;\\SoapClient</title>
<path fill="none" stroke="black" d="M378.197,-635.24C353.983,-632.992 326.693,-625.857 309.5,-607 145.532,-427.172 382.669,-260.425 239,-64 227.766,-48.6402 210.101,-38.2438 192.814,-31.2838"/>
<polygon fill="none" stroke="black" points="193.885,-27.9484 183.292,-27.761 191.456,-34.5135 193.885,-27.9484"/>
</g>
<!-- \\Google\\AdsApi\\Common\\ConnectionSettings -->
<g id="node61" class="node"><title>\\Google\\AdsApi\\Common\\ConnectionSettings</title>
<polygon fill="none" stroke="black" points="499.5,-598 361.5,-598 361.5,-562 499.5,-562 499.5,-598"/>
<text text-anchor="middle" x="430.5" y="-577.2" font-family="Courier,monospace" font-size="11.00">ConnectionSettings</text>
</g>
<!-- \\Google\\AdsApi\\Common\\AdsHeaderFormatter -->
<g id="node62" class="node"><title>\\Google\\AdsApi\\Common\\AdsHeaderFormatter</title>
<polygon fill="none" stroke="black" points="499.5,-544 361.5,-544 361.5,-508 499.5,-508 499.5,-544"/>
<text text-anchor="middle" x="430.5" y="-523.2" font-family="Courier,monospace" font-size="11.00">AdsHeaderFormatter</text>
</g>
<!-- \\Google\\AdsApi\\Common\\GuzzleLogMessageFormatter -->
<g id="node63" class="node"><title>\\Google\\AdsApi\\Common\\GuzzleLogMessageFormatter</title>
<polygon fill="none" stroke="black" points="523,-490 338,-490 338,-454 523,-454 523,-490"/>
<text text-anchor="middle" x="430.5" y="-469.2" font-family="Courier,monospace" font-size="11.00">GuzzleLogMessageFormatter</text>
</g>
<!-- \\Google\\AdsApi\\Common\\AdsLoggerFactory -->
<g id="node64" class="node"><title>\\Google\\AdsApi\\Common\\AdsLoggerFactory</title>
<polygon fill="none" stroke="black" points="493,-436 368,-436 368,-400 493,-400 493,-436"/>
<text text-anchor="middle" x="430.5" y="-415.2" font-family="Courier,monospace" font-size="11.00">AdsLoggerFactory</text>
</g>
</g>
</svg>
