<?xml version="1.0" encoding="UTF-8" standalone="no"?>
<!DOCTYPE svg PUBLIC "-//W3C//DTD SVG 1.1//EN"
 "http://www.w3.org/Graphics/SVG/1.1/DTD/svg11.dtd">
<!-- Generated by graphviz version 2.43.0 (0)
 -->
<!-- Title: G Pages: 1 -->
<svg width="970pt" height="2000pt"
 viewBox="0.00 0.00 970.00 2000.00" xmlns="http://www.w3.org/2000/svg" xmlns:xlink="http://www.w3.org/1999/xlink">
<g id="graph0" class="graph" transform="scale(1 1) rotate(0) translate(4 1996)">
<title>G</title>
<polygon fill="white" stroke="transparent" points="-4,4 -4,-1996 966,-1996 966,4 -4,4"/>
<g id="clust1" class="cluster">
<title>cluster_Global</title>
<path fill="none" stroke="gray" d="M20,-44C20,-44 942,-44 942,-44 948,-44 954,-50 954,-56 954,-56 954,-1972 954,-1972 954,-1978 948,-1984 942,-1984 942,-1984 20,-1984 20,-1984 14,-1984 8,-1978 8,-1972 8,-1972 8,-56 8,-56 8,-50 14,-44 20,-44"/>
<text text-anchor="middle" x="481" y="-1971.2" font-family="Times,serif" font-size="11.00" fill="gray">Global</text>
</g>
<g id="clust2" class="cluster">
<title>cluster_\Google</title>
<path fill="none" stroke="gray" d="M28,-52C28,-52 934,-52 934,-52 940,-52 946,-58 946,-64 946,-64 946,-1944 946,-1944 946,-1950 940,-1956 934,-1956 934,-1956 28,-1956 28,-1956 22,-1956 16,-1950 16,-1944 16,-1944 16,-64 16,-64 16,-58 22,-52 28,-52"/>
<text text-anchor="middle" x="481" y="-1943.2" font-family="Times,serif" font-size="11.00" fill="gray">Google</text>
</g>
<g id="clust3" class="cluster">
<title>cluster_\Google\AdsApi</title>
<path fill="none" stroke="gray" d="M36,-60C36,-60 926,-60 926,-60 932,-60 938,-66 938,-72 938,-72 938,-1916 938,-1916 938,-1922 932,-1928 926,-1928 926,-1928 36,-1928 36,-1928 30,-1928 24,-1922 24,-1916 24,-1916 24,-72 24,-72 24,-66 30,-60 36,-60"/>
<text text-anchor="middle" x="481" y="-1915.2" font-family="Times,serif" font-size="11.00" fill="gray">AdsApi</text>
</g>
<g id="clust4" class="cluster">
<title>cluster_\Google\AdsApi\AdManager</title>
<path fill="none" stroke="gray" d="M626,-68C626,-68 918,-68 918,-68 924,-68 930,-74 930,-80 930,-80 930,-1888 930,-1888 930,-1894 924,-1900 918,-1900 918,-1900 626,-1900 626,-1900 620,-1900 614,-1894 614,-1888 614,-1888 614,-80 614,-80 614,-74 620,-68 626,-68"/>
<text text-anchor="middle" x="772" y="-1887.2" font-family="Times,serif" font-size="11.00" fill="gray">AdManager</text>
</g>
<g id="clust5" class="cluster">
<title>cluster_\Google\AdsApi\AdManager\Util</title>
<path fill="none" stroke="gray" d="M699,-444C699,-444 845,-444 845,-444 851,-444 857,-450 857,-456 857,-456 857,-1860 857,-1860 857,-1866 851,-1872 845,-1872 845,-1872 699,-1872 699,-1872 693,-1872 687,-1866 687,-1860 687,-1860 687,-456 687,-456 687,-450 693,-444 699,-444"/>
<text text-anchor="middle" x="772" y="-1859.2" font-family="Times,serif" font-size="11.00" fill="gray">Util</text>
</g>
<g id="clust6" class="cluster">
<title>cluster_\Google\AdsApi\AdManager\Util\v202108</title>
<path fill="none" stroke="gray" d="M707,-1502C707,-1502 837,-1502 837,-1502 843,-1502 849,-1508 849,-1514 849,-1514 849,-1832 849,-1832 849,-1838 843,-1844 837,-1844 837,-1844 707,-1844 707,-1844 701,-1844 695,-1838 695,-1832 695,-1832 695,-1514 695,-1514 695,-1508 701,-1502 707,-1502"/>
<text text-anchor="middle" x="772" y="-1831.2" font-family="Times,serif" font-size="11.00" fill="gray">v202108</text>
</g>
<g id="clust7" class="cluster">
<title>cluster_\Google\AdsApi\AdManager\Util\v202105</title>
<path fill="none" stroke="gray" d="M707,-1152C707,-1152 837,-1152 837,-1152 843,-1152 849,-1158 849,-1164 849,-1164 849,-1482 849,-1482 849,-1488 843,-1494 837,-1494 837,-1494 707,-1494 707,-1494 701,-1494 695,-1488 695,-1482 695,-1482 695,-1164 695,-1164 695,-1158 701,-1152 707,-1152"/>
<text text-anchor="middle" x="772" y="-1481.2" font-family="Times,serif" font-size="11.00" fill="gray">v202105</text>
</g>
<g id="clust8" class="cluster">
<title>cluster_\Google\AdsApi\AdManager\Util\v202102</title>
<path fill="none" stroke="gray" d="M707,-802C707,-802 837,-802 837,-802 843,-802 849,-808 849,-814 849,-814 849,-1132 849,-1132 849,-1138 843,-1144 837,-1144 837,-1144 707,-1144 707,-1144 701,-1144 695,-1138 695,-1132 695,-1132 695,-814 695,-814 695,-808 701,-802 707,-802"/>
<text text-anchor="middle" x="772" y="-1131.2" font-family="Times,serif" font-size="11.00" fill="gray">v202102</text>
</g>
<g id="clust9" class="cluster">
<title>cluster_\Google\AdsApi\AdManager\Util\v202011</title>
<path fill="none" stroke="gray" d="M707,-452C707,-452 837,-452 837,-452 843,-452 849,-458 849,-464 849,-464 849,-782 849,-782 849,-788 843,-794 837,-794 837,-794 707,-794 707,-794 701,-794 695,-788 695,-782 695,-782 695,-464 695,-464 695,-458 701,-452 707,-452"/>
<text text-anchor="middle" x="772" y="-781.2" font-family="Times,serif" font-size="11.00" fill="gray">v202011</text>
</g>
<g id="clust10" class="cluster">
<title>cluster_\Google\AdsApi\Common</title>
<path fill="none" stroke="gray" d="M44,-68C44,-68 546,-68 546,-68 552,-68 558,-74 558,-80 558,-80 558,-1776 558,-1776 558,-1782 552,-1788 546,-1788 546,-1788 44,-1788 44,-1788 38,-1788 32,-1782 32,-1776 32,-1776 32,-80 32,-80 32,-74 38,-68 44,-68"/>
<text text-anchor="middle" x="295" y="-1775.2" font-family="Times,serif" font-size="11.00" fill="gray">Common</text>
</g>
<g id="clust11" class="cluster">
<title>cluster_\Google\AdsApi\Common\Util</title>
<path fill="none" stroke="gray" d="M352,-1418C352,-1418 509,-1418 509,-1418 515,-1418 521,-1424 521,-1430 521,-1430 521,-1748 521,-1748 521,-1754 515,-1760 509,-1760 509,-1760 352,-1760 352,-1760 346,-1760 340,-1754 340,-1748 340,-1748 340,-1430 340,-1430 340,-1424 346,-1418 352,-1418"/>
<text text-anchor="middle" x="430.5" y="-1747.2" font-family="Times,serif" font-size="11.00" fill="gray">Util</text>
</g>
<!-- \\Google\\AdsApi\\AdManager\\Util\\v202108\\StatementBuilder -->
<g id="node1" class="node">
<title>\\Google\\AdsApi\\AdManager\\Util\\v202108\\StatementBuilder</title>
<polygon fill="none" stroke="black" points="834.5,-1816 709.5,-1816 709.5,-1780 834.5,-1780 834.5,-1816"/>
<text text-anchor="middle" x="772" y="-1795.2" font-family="Courier,monospace" font-size="11.00">StatementBuilder</text>
</g>
<!-- \\Google\\AdsApi\\AdManager\\Util\\v202108\\ReportDownloader -->
<g id="node2" class="node">
<title>\\Google\\AdsApi\\AdManager\\Util\\v202108\\ReportDownloader</title>
<polygon fill="none" stroke="black" points="834.5,-1762 709.5,-1762 709.5,-1726 834.5,-1726 834.5,-1762"/>
<text text-anchor="middle" x="772" y="-1741.2" font-family="Courier,monospace" font-size="11.00">ReportDownloader</text>
</g>
<!-- \\Google\\AdsApi\\AdManager\\Util\\v202108\\CsvFiles -->
<g id="node3" class="node">
<title>\\Google\\AdsApi\\AdManager\\Util\\v202108\\CsvFiles</title>
<polygon fill="none" stroke="black" points="807.5,-1708 736.5,-1708 736.5,-1672 807.5,-1672 807.5,-1708"/>
<text text-anchor="middle" x="772" y="-1687.2" font-family="Courier,monospace" font-size="11.00">CsvFiles</text>
</g>
<!-- \\Google\\AdsApi\\AdManager\\Util\\v202108\\AdManagerDates -->
<g id="node4" class="node">
<title>\\Google\\AdsApi\\AdManager\\Util\\v202108\\AdManagerDates</title>
<polygon fill="none" stroke="black" points="827.5,-1654 716.5,-1654 716.5,-1618 827.5,-1618 827.5,-1654"/>
<text text-anchor="middle" x="772" y="-1633.2" font-family="Courier,monospace" font-size="11.00">AdManagerDates</text>
</g>
<!-- \\Google\\AdsApi\\AdManager\\Util\\v202108\\AdManagerDateTimes -->
<g id="node5" class="node">
<title>\\Google\\AdsApi\\AdManager\\Util\\v202108\\AdManagerDateTimes</title>
<polygon fill="none" stroke="black" points="841,-1600 703,-1600 703,-1564 841,-1564 841,-1600"/>
<text text-anchor="middle" x="772" y="-1579.2" font-family="Courier,monospace" font-size="11.00">AdManagerDateTimes</text>
</g>
<!-- \\Google\\AdsApi\\AdManager\\Util\\v202108\\Pql -->
<g id="node6" class="node">
<title>\\Google\\AdsApi\\AdManager\\Util\\v202108\\Pql</title>
<polygon fill="none" stroke="black" points="799,-1546 745,-1546 745,-1510 799,-1510 799,-1546"/>
<text text-anchor="middle" x="772" y="-1525.2" font-family="Courier,monospace" font-size="11.00">Pql</text>
</g>
<!-- \\Google\\AdsApi\\AdManager\\Util\\v202105\\StatementBuilder -->
<g id="node7" class="node">
<title>\\Google\\AdsApi\\AdManager\\Util\\v202105\\StatementBuilder</title>
<polygon fill="none" stroke="black" points="834.5,-1466 709.5,-1466 709.5,-1430 834.5,-1430 834.5,-1466"/>
<text text-anchor="middle" x="772" y="-1445.2" font-family="Courier,monospace" font-size="11.00">StatementBuilder</text>
</g>
<!-- \\Google\\AdsApi\\AdManager\\Util\\v202105\\ReportDownloader -->
<g id="node8" class="node">
<title>\\Google\\AdsApi\\AdManager\\Util\\v202105\\ReportDownloader</title>
<polygon fill="none" stroke="black" points="834.5,-1412 709.5,-1412 709.5,-1376 834.5,-1376 834.5,-1412"/>
<text text-anchor="middle" x="772" y="-1391.2" font-family="Courier,monospace" font-size="11.00">ReportDownloader</text>
</g>
<!-- \\Google\\AdsApi\\AdManager\\Util\\v202105\\CsvFiles -->
<g id="node9" class="node">
<title>\\Google\\AdsApi\\AdManager\\Util\\v202105\\CsvFiles</title>
<polygon fill="none" stroke="black" points="807.5,-1358 736.5,-1358 736.5,-1322 807.5,-1322 807.5,-1358"/>
<text text-anchor="middle" x="772" y="-1337.2" font-family="Courier,monospace" font-size="11.00">CsvFiles</text>
</g>
<!-- \\Google\\AdsApi\\AdManager\\Util\\v202105\\AdManagerDates -->
<g id="node10" class="node">
<title>\\Google\\AdsApi\\AdManager\\Util\\v202105\\AdManagerDates</title>
<polygon fill="none" stroke="black" points="827.5,-1304 716.5,-1304 716.5,-1268 827.5,-1268 827.5,-1304"/>
<text text-anchor="middle" x="772" y="-1283.2" font-family="Courier,monospace" font-size="11.00">AdManagerDates</text>
</g>
<!-- \\Google\\AdsApi\\AdManager\\Util\\v202105\\AdManagerDateTimes -->
<g id="node11" class="node">
<title>\\Google\\AdsApi\\AdManager\\Util\\v202105\\AdManagerDateTimes</title>
<polygon fill="none" stroke="black" points="841,-1250 703,-1250 703,-1214 841,-1214 841,-1250"/>
<text text-anchor="middle" x="772" y="-1229.2" font-family="Courier,monospace" font-size="11.00">AdManagerDateTimes</text>
</g>
<!-- \\Google\\AdsApi\\AdManager\\Util\\v202105\\Pql -->
<g id="node12" class="node">
<title>\\Google\\AdsApi\\AdManager\\Util\\v202105\\Pql</title>
<polygon fill="none" stroke="black" points="799,-1196 745,-1196 745,-1160 799,-1160 799,-1196"/>
<text text-anchor="middle" x="772" y="-1175.2" font-family="Courier,monospace" font-size="11.00">Pql</text>
</g>
<!-- \\Google\\AdsApi\\AdManager\\Util\\v202102\\StatementBuilder -->
<g id="node13" class="node">
<title>\\Google\\AdsApi\\AdManager\\Util\\v202102\\StatementBuilder</title>
<polygon fill="none" stroke="black" points="834.5,-1116 709.5,-1116 709.5,-1080 834.5,-1080 834.5,-1116"/>
<text text-anchor="middle" x="772" y="-1095.2" font-family="Courier,monospace" font-size="11.00">StatementBuilder</text>
</g>
<!-- \\Google\\AdsApi\\AdManager\\Util\\v202102\\ReportDownloader -->
<g id="node14" class="node">
<title>\\Google\\AdsApi\\AdManager\\Util\\v202102\\ReportDownloader</title>
<polygon fill="none" stroke="black" points="834.5,-1062 709.5,-1062 709.5,-1026 834.5,-1026 834.5,-1062"/>
<text text-anchor="middle" x="772" y="-1041.2" font-family="Courier,monospace" font-size="11.00">ReportDownloader</text>
</g>
<!-- \\Google\\AdsApi\\AdManager\\Util\\v202102\\CsvFiles -->
<g id="node15" class="node">
<title>\\Google\\AdsApi\\AdManager\\Util\\v202102\\CsvFiles</title>
<polygon fill="none" stroke="black" points="807.5,-1008 736.5,-1008 736.5,-972 807.5,-972 807.5,-1008"/>
<text text-anchor="middle" x="772" y="-987.2" font-family="Courier,monospace" font-size="11.00">CsvFiles</text>
</g>
<!-- \\Google\\AdsApi\\AdManager\\Util\\v202102\\AdManagerDates -->
<g id="node16" class="node">
<title>\\Google\\AdsApi\\AdManager\\Util\\v202102\\AdManagerDates</title>
<polygon fill="none" stroke="black" points="827.5,-954 716.5,-954 716.5,-918 827.5,-918 827.5,-954"/>
<text text-anchor="middle" x="772" y="-933.2" font-family="Courier,monospace" font-size="11.00">AdManagerDates</text>
</g>
<!-- \\Google\\AdsApi\\AdManager\\Util\\v202102\\AdManagerDateTimes -->
<g id="node17" class="node">
<title>\\Google\\AdsApi\\AdManager\\Util\\v202102\\AdManagerDateTimes</title>
<polygon fill="none" stroke="black" points="841,-900 703,-900 703,-864 841,-864 841,-900"/>
<text text-anchor="middle" x="772" y="-879.2" font-family="Courier,monospace" font-size="11.00">AdManagerDateTimes</text>
</g>
<!-- \\Google\\AdsApi\\AdManager\\Util\\v202102\\Pql -->
<g id="node18" class="node">
<title>\\Google\\AdsApi\\AdManager\\Util\\v202102\\Pql</title>
<polygon fill="none" stroke="black" points="799,-846 745,-846 745,-810 799,-810 799,-846"/>
<text text-anchor="middle" x="772" y="-825.2" font-family="Courier,monospace" font-size="11.00">Pql</text>
</g>
<!-- \\Google\\AdsApi\\AdManager\\Util\\v202011\\StatementBuilder -->
<g id="node19" class="node">
<title>\\Google\\AdsApi\\AdManager\\Util\\v202011\\StatementBuilder</title>
<polygon fill="none" stroke="black" points="834.5,-766 709.5,-766 709.5,-730 834.5,-730 834.5,-766"/>
<text text-anchor="middle" x="772" y="-745.2" font-family="Courier,monospace" font-size="11.00">StatementBuilder</text>
</g>
<!-- \\Google\\AdsApi\\AdManager\\Util\\v202011\\ReportDownloader -->
<g id="node20" class="node">
<title>\\Google\\AdsApi\\AdManager\\Util\\v202011\\ReportDownloader</title>
<polygon fill="none" stroke="black" points="834.5,-712 709.5,-712 709.5,-676 834.5,-676 834.5,-712"/>
<text text-anchor="middle" x="772" y="-691.2" font-family="Courier,monospace" font-size="11.00">ReportDownloader</text>
</g>
<!-- \\Google\\AdsApi\\AdManager\\Util\\v202011\\CsvFiles -->
<g id="node21" class="node">
<title>\\Google\\AdsApi\\AdManager\\Util\\v202011\\CsvFiles</title>
<polygon fill="none" stroke="black" points="807.5,-658 736.5,-658 736.5,-622 807.5,-622 807.5,-658"/>
<text text-anchor="middle" x="772" y="-637.2" font-family="Courier,monospace" font-size="11.00">CsvFiles</text>
</g>
<!-- \\Google\\AdsApi\\AdManager\\Util\\v202011\\AdManagerDates -->
<g id="node22" class="node">
<title>\\Google\\AdsApi\\AdManager\\Util\\v202011\\AdManagerDates</title>
<polygon fill="none" stroke="black" points="827.5,-604 716.5,-604 716.5,-568 827.5,-568 827.5,-604"/>
<text text-anchor="middle" x="772" y="-583.2" font-family="Courier,monospace" font-size="11.00">AdManagerDates</text>
</g>
<!-- \\Google\\AdsApi\\AdManager\\Util\\v202011\\AdManagerDateTimes -->
<g id="node23" class="node">
<title>\\Google\\AdsApi\\AdManager\\Util\\v202011\\AdManagerDateTimes</title>
<polygon fill="none" stroke="black" points="841,-550 703,-550 703,-514 841,-514 841,-550"/>
<text text-anchor="middle" x="772" y="-529.2" font-family="Courier,monospace" font-size="11.00">AdManagerDateTimes</text>
</g>
<!-- \\Google\\AdsApi\\AdManager\\Util\\v202011\\Pql -->
<g id="node24" class="node">
<title>\\Google\\AdsApi\\AdManager\\Util\\v202011\\Pql</title>
<polygon fill="none" stroke="black" points="799,-496 745,-496 745,-460 799,-460 799,-496"/>
<text text-anchor="middle" x="772" y="-475.2" font-family="Courier,monospace" font-size="11.00">Pql</text>
</g>
<!-- \\Google\\AdsApi\\AdManager\\AdManagerGuzzleLogMessageFormatterProvider -->
<g id="node25" class="node">
<title>\\Google\\AdsApi\\AdManager\\AdManagerGuzzleLogMessageFormatterProvider</title>
<polygon fill="none" stroke="black" points="922,-328 622,-328 622,-292 922,-292 922,-328"/>
<text text-anchor="middle" x="772" y="-307.2" font-family="Courier,monospace" font-size="11.00">AdManagerGuzzleLogMessageFormatterProvider</text>
</g>
<!-- \\Google\\AdsApi\\Common\\GuzzleLogMessageFormatterProvider -->
<g id="node65" class="node">
<title>\\Google\\AdsApi\\Common\\GuzzleLogMessageFormatterProvider</title>
<polygon fill="none" stroke="black" points="550,-328 311,-328 311,-292 550,-292 550,-328"/>
<text text-anchor="middle" x="430.5" y="-307.2" font-family="Courier,monospace" font-size="11.00">GuzzleLogMessageFormatterProvider</text>
</g>
<!-- \\Google\\AdsApi\\AdManager\\AdManagerGuzzleLogMessageFormatterProvider&#45;&gt;\\Google\\AdsApi\\Common\\GuzzleLogMessageFormatterProvider -->
<g id="edge1" class="edge">
<title>\\Google\\AdsApi\\AdManager\\AdManagerGuzzleLogMessageFormatterProvider&#45;&gt;\\Google\\AdsApi\\Common\\GuzzleLogMessageFormatterProvider</title>
<path fill="none" stroke="black" stroke-dasharray="1,5" d="M621.6,-310C601.13,-310 580.26,-310 560.2,-310"/>
<polygon fill="none" stroke="black" points="560.11,-306.5 550.11,-310 560.11,-313.5 560.11,-306.5"/>
</g>
<!-- \\Google\\AdsApi\\AdManager\\AdManagerServiceDescriptor -->
<g id="node26" class="node">
<title>\\Google\\AdsApi\\AdManager\\AdManagerServiceDescriptor</title>
<polygon fill="none" stroke="black" points="868,-274 676,-274 676,-238 868,-238 868,-274"/>
<text text-anchor="middle" x="772" y="-253.2" font-family="Courier,monospace" font-size="11.00">AdManagerServiceDescriptor</text>
</g>
<!-- \\Google\\AdsApi\\Common\\AdsServiceDescriptor -->
<g id="node60" class="node">
<title>\\Google\\AdsApi\\Common\\AdsServiceDescriptor</title>
<polygon fill="none" stroke="black" points="506.5,-274 354.5,-274 354.5,-238 506.5,-238 506.5,-274"/>
<text text-anchor="middle" x="430.5" y="-253.2" font-family="Courier,monospace" font-size="11.00">AdsServiceDescriptor</text>
</g>
<!-- \\Google\\AdsApi\\AdManager\\AdManagerServiceDescriptor&#45;&gt;\\Google\\AdsApi\\Common\\AdsServiceDescriptor -->
<g id="edge2" class="edge">
<title>\\Google\\AdsApi\\AdManager\\AdManagerServiceDescriptor&#45;&gt;\\Google\\AdsApi\\Common\\AdsServiceDescriptor</title>
<path fill="none" stroke="black" stroke-dasharray="1,5" d="M675.98,-256C625.98,-256 565.18,-256 516.72,-256"/>
<polygon fill="none" stroke="black" points="516.57,-252.5 506.57,-256 516.57,-259.5 516.57,-252.5"/>
</g>
<!-- \\Google\\AdsApi\\AdManager\\AdManagerSession -->
<g id="node27" class="node">
<title>\\Google\\AdsApi\\AdManager\\AdManagerSession</title>
<polygon fill="none" stroke="black" points="834.5,-220 709.5,-220 709.5,-184 834.5,-184 834.5,-220"/>
<text text-anchor="middle" x="772" y="-199.2" font-family="Courier,monospace" font-size="11.00">AdManagerSession</text>
</g>
<!-- \\Google\\AdsApi\\Common\\AdsSession -->
<g id="node62" class="node">
<title>\\Google\\AdsApi\\Common\\AdsSession</title>
<polygon fill="none" stroke="black" points="472.5,-220 388.5,-220 388.5,-184 472.5,-184 472.5,-220"/>
<text text-anchor="middle" x="430.5" y="-199.2" font-family="Courier,monospace" font-size="11.00">AdsSession</text>
</g>
<!-- \\Google\\AdsApi\\AdManager\\AdManagerSession&#45;&gt;\\Google\\AdsApi\\Common\\AdsSession -->
<g id="edge3" class="edge">
<title>\\Google\\AdsApi\\AdManager\\AdManagerSession&#45;&gt;\\Google\\AdsApi\\Common\\AdsSession</title>
<path fill="none" stroke="black" stroke-dasharray="1,5" d="M709.13,-202C644.22,-202 543.38,-202 482.77,-202"/>
<polygon fill="none" stroke="black" points="482.66,-198.5 472.66,-202 482.66,-205.5 482.66,-198.5"/>
</g>
<!-- \\Google\\AdsApi\\AdManager\\AdManagerSessionBuilder -->
<g id="node28" class="node">
<title>\\Google\\AdsApi\\AdManager\\AdManagerSessionBuilder</title>
<polygon fill="none" stroke="black" points="858,-436 686,-436 686,-400 858,-400 858,-436"/>
<text text-anchor="middle" x="772" y="-415.2" font-family="Courier,monospace" font-size="11.00">AdManagerSessionBuilder</text>
</g>
<!-- \\Google\\AdsApi\\Common\\AdsBuilder -->
<g id="node63" class="node">
<title>\\Google\\AdsApi\\Common\\AdsBuilder</title>
<polygon fill="none" stroke="black" points="181.5,-1165 97.5,-1165 97.5,-1129 181.5,-1129 181.5,-1165"/>
<text text-anchor="middle" x="139.5" y="-1144.2" font-family="Courier,monospace" font-size="11.00">AdsBuilder</text>
</g>
<!-- \\Google\\AdsApi\\AdManager\\AdManagerSessionBuilder&#45;&gt;\\Google\\AdsApi\\Common\\AdsBuilder -->
<g id="edge4" class="edge">
<title>\\Google\\AdsApi\\AdManager\\AdManagerSessionBuilder&#45;&gt;\\Google\\AdsApi\\Common\\AdsBuilder</title>
<path fill="none" stroke="black" stroke-dasharray="1,5" d="M685.72,-414.65C658.95,-418.2 631.77,-427.42 614,-448 518.35,-558.77 663.67,-1662.74 558,-1764 478.74,-1839.96 395.2,-1834.43 311,-1764 172.11,-1647.83 292.99,-1535.84 239,-1363 216.87,-1292.16 177.14,-1214.11 155.52,-1174.04"/>
<polygon fill="none" stroke="black" points="158.54,-1172.27 150.68,-1165.16 152.39,-1175.62 158.54,-1172.27"/>
</g>
<!-- \\Google\\AdsApi\\AdManager\\AdManagerServices -->
<g id="node29" class="node">
<title>\\Google\\AdsApi\\AdManager\\AdManagerServices</title>
<polygon fill="none" stroke="black" points="837.5,-112 706.5,-112 706.5,-76 837.5,-76 837.5,-112"/>
<text text-anchor="middle" x="772" y="-91.2" font-family="Courier,monospace" font-size="11.00">AdManagerServices</text>
</g>
<!-- \\Google\\AdsApi\\Common\\AdsServices -->
<g id="node58" class="node">
<title>\\Google\\AdsApi\\Common\\AdsServices</title>
<polygon fill="none" stroke="black" points="476,-112 385,-112 385,-76 476,-76 476,-112"/>
<text text-anchor="middle" x="430.5" y="-91.2" font-family="Courier,monospace" font-size="11.00">AdsServices</text>
</g>
<!-- \\Google\\AdsApi\\AdManager\\AdManagerServices&#45;&gt;\\Google\\AdsApi\\Common\\AdsServices -->
<g id="edge5" class="edge">
<title>\\Google\\AdsApi\\AdManager\\AdManagerServices&#45;&gt;\\Google\\AdsApi\\Common\\AdsServices</title>
<path fill="none" stroke="black" stroke-dasharray="1,5" d="M706.34,-94C642.6,-94 546.26,-94 486.2,-94"/>
<polygon fill="none" stroke="black" points="486.16,-90.5 476.16,-94 486.16,-97.5 486.16,-90.5"/>
</g>
<!-- \\Google\\AdsApi\\AdManager\\AdManagerHeaderHandler -->
<g id="node30" class="node">
<title>\\Google\\AdsApi\\AdManager\\AdManagerHeaderHandler</title>
<polygon fill="none" stroke="black" points="854.5,-382 689.5,-382 689.5,-346 854.5,-346 854.5,-382"/>
<text text-anchor="middle" x="772" y="-361.2" font-family="Courier,monospace" font-size="11.00">AdManagerHeaderHandler</text>
</g>
<!-- \\Google\\AdsApi\\Common\\AdsHeaderHandler -->
<g id="node61" class="node">
<title>\\Google\\AdsApi\\Common\\AdsHeaderHandler</title>
<polygon fill="none" stroke="black" points="493,-382 368,-382 368,-346 493,-346 493,-382"/>
<text text-anchor="middle" x="430.5" y="-361.2" font-family="Courier,monospace" font-size="11.00">AdsHeaderHandler</text>
</g>
<!-- \\Google\\AdsApi\\AdManager\\AdManagerHeaderHandler&#45;&gt;\\Google\\AdsApi\\Common\\AdsHeaderHandler -->
<g id="edge6" class="edge">
<title>\\Google\\AdsApi\\AdManager\\AdManagerHeaderHandler&#45;&gt;\\Google\\AdsApi\\Common\\AdsHeaderHandler</title>
<path fill="none" stroke="black" stroke-dasharray="1,5" d="M689.25,-364C632.57,-364 557.8,-364 503.39,-364"/>
<polygon fill="none" stroke="black" points="503.14,-360.5 493.14,-364 503.13,-367.5 503.14,-360.5"/>
</g>
<!-- \\Google\\AdsApi\\AdManager\\AdManagerSoapLogMessageFormatterProvider -->
<g id="node31" class="node">
<title>\\Google\\AdsApi\\AdManager\\AdManagerSoapLogMessageFormatterProvider</title>
<polygon fill="none" stroke="black" points="915.5,-166 628.5,-166 628.5,-130 915.5,-130 915.5,-166"/>
<text text-anchor="middle" x="772" y="-145.2" font-family="Courier,monospace" font-size="11.00">AdManagerSoapLogMessageFormatterProvider</text>
</g>
<!-- \\Google\\AdsApi\\Common\\SoapLogMessageFormatterProvider -->
<g id="node64" class="node">
<title>\\Google\\AdsApi\\Common\\SoapLogMessageFormatterProvider</title>
<polygon fill="none" stroke="black" points="543.5,-166 317.5,-166 317.5,-130 543.5,-130 543.5,-166"/>
<text text-anchor="middle" x="430.5" y="-145.2" font-family="Courier,monospace" font-size="11.00">SoapLogMessageFormatterProvider</text>
</g>
<!-- \\Google\\AdsApi\\AdManager\\AdManagerSoapLogMessageFormatterProvider&#45;&gt;\\Google\\AdsApi\\Common\\SoapLogMessageFormatterProvider -->
<g id="edge7" class="edge">
<title>\\Google\\AdsApi\\AdManager\\AdManagerSoapLogMessageFormatterProvider&#45;&gt;\\Google\\AdsApi\\Common\\SoapLogMessageFormatterProvider</title>
<path fill="none" stroke="black" stroke-dasharray="1,5" d="M628.5,-148C603.73,-148 578.16,-148 553.99,-148"/>
<polygon fill="none" stroke="black" points="553.72,-144.5 543.72,-148 553.72,-151.5 553.72,-144.5"/>
</g>
<!-- \\Google\\AdsApi\\Common\\Util\\Reflection -->
<g id="node32" class="node">
<title>\\Google\\AdsApi\\Common\\Util\\Reflection</title>
<polygon fill="none" stroke="black" points="472.5,-1732 388.5,-1732 388.5,-1696 472.5,-1696 472.5,-1732"/>
<text text-anchor="middle" x="430.5" y="-1711.2" font-family="Courier,monospace" font-size="11.00">Reflection</text>
</g>
<!-- \\Google\\AdsApi\\Common\\Util\\LogMessageScrubbers -->
<g id="node33" class="node">
<title>\\Google\\AdsApi\\Common\\Util\\LogMessageScrubbers</title>
<polygon fill="none" stroke="black" points="503,-1678 358,-1678 358,-1642 503,-1642 503,-1678"/>
<text text-anchor="middle" x="430.5" y="-1657.2" font-family="Courier,monospace" font-size="11.00">LogMessageScrubbers</text>
</g>
<!-- \\Google\\AdsApi\\Common\\Util\\MapEntries -->
<g id="node34" class="node">
<title>\\Google\\AdsApi\\Common\\Util\\MapEntries</title>
<polygon fill="none" stroke="black" points="472.5,-1624 388.5,-1624 388.5,-1588 472.5,-1588 472.5,-1624"/>
<text text-anchor="middle" x="430.5" y="-1603.2" font-family="Courier,monospace" font-size="11.00">MapEntries</text>
</g>
<!-- \\Google\\AdsApi\\Common\\Util\\SoapHeaders -->
<g id="node35" class="node">
<title>\\Google\\AdsApi\\Common\\Util\\SoapHeaders</title>
<polygon fill="none" stroke="black" points="476,-1570 385,-1570 385,-1534 476,-1534 476,-1570"/>
<text text-anchor="middle" x="430.5" y="-1549.2" font-family="Courier,monospace" font-size="11.00">SoapHeaders</text>
</g>
<!-- \\Google\\AdsApi\\Common\\Util\\OAuth2TokenRefresher -->
<g id="node36" class="node">
<title>\\Google\\AdsApi\\Common\\Util\\OAuth2TokenRefresher</title>
<polygon fill="none" stroke="black" points="506.5,-1516 354.5,-1516 354.5,-1480 506.5,-1480 506.5,-1516"/>
<text text-anchor="middle" x="430.5" y="-1495.2" font-family="Courier,monospace" font-size="11.00">OAuth2TokenRefresher</text>
</g>
<!-- \\Google\\AdsApi\\Common\\Util\\EnvironmentalVariables -->
<g id="node37" class="node">
<title>\\Google\\AdsApi\\Common\\Util\\EnvironmentalVariables</title>
<polygon fill="none" stroke="black" points="513,-1462 348,-1462 348,-1426 513,-1426 513,-1462"/>
<text text-anchor="middle" x="430.5" y="-1441.2" font-family="Courier,monospace" font-size="11.00">EnvironmentalVariables</text>
</g>
<!-- \\Google\\AdsApi\\Common\\AdsUtilityRegistry -->
<g id="node38" class="node">
<title>\\Google\\AdsApi\\Common\\AdsUtilityRegistry</title>
<polygon fill="none" stroke="black" points="499.5,-1408 361.5,-1408 361.5,-1372 499.5,-1372 499.5,-1408"/>
<text text-anchor="middle" x="430.5" y="-1387.2" font-family="Courier,monospace" font-size="11.00">AdsUtilityRegistry</text>
</g>
<!-- \\Google\\AdsApi\\Common\\AdsUtilityRegistryInterface -->
<g id="node59" class="node">
<title>\\Google\\AdsApi\\Common\\AdsUtilityRegistryInterface</title>
<polygon fill="none" stroke="black" points="239,-1408 40,-1408 40,-1372 239,-1372 239,-1408"/>
<text text-anchor="middle" x="139.5" y="-1387.2" font-family="Courier,monospace" font-size="11.00">AdsUtilityRegistryInterface</text>
</g>
<!-- \\Google\\AdsApi\\Common\\AdsUtilityRegistry&#45;&gt;\\Google\\AdsApi\\Common\\AdsUtilityRegistryInterface -->
<g id="edge8" class="edge">
<title>\\Google\\AdsApi\\Common\\AdsUtilityRegistry&#45;&gt;\\Google\\AdsApi\\Common\\AdsUtilityRegistryInterface</title>
<path fill="none" stroke="black" stroke-dasharray="1,5" d="M361.38,-1390C327.91,-1390 286.76,-1390 249.09,-1390"/>
<polygon fill="none" stroke="black" points="249.09,-1386.5 239.09,-1390 249.09,-1393.5 249.09,-1386.5"/>
</g>
<!-- \\Google\\AdsApi\\Common\\OAuth2TokenBuilder -->
<g id="node39" class="node">
<title>\\Google\\AdsApi\\Common\\OAuth2TokenBuilder</title>
<polygon fill="none" stroke="black" points="499.5,-1354 361.5,-1354 361.5,-1318 499.5,-1318 499.5,-1354"/>
<text text-anchor="middle" x="430.5" y="-1333.2" font-family="Courier,monospace" font-size="11.00">OAuth2TokenBuilder</text>
</g>
<!-- \\Google\\AdsApi\\Common\\OAuth2TokenBuilder&#45;&gt;\\Google\\AdsApi\\Common\\AdsBuilder -->
<g id="edge9" class="edge">
<title>\\Google\\AdsApi\\Common\\OAuth2TokenBuilder&#45;&gt;\\Google\\AdsApi\\Common\\AdsBuilder</title>
<path fill="none" stroke="black" stroke-dasharray="1,5" d="M361.44,-1327.01C344.32,-1323.02 326.44,-1317.27 311,-1309 246.86,-1274.63 189.4,-1209.61 160.39,-1173.26"/>
<polygon fill="none" stroke="black" points="162.91,-1170.8 153.98,-1165.1 157.41,-1175.13 162.91,-1170.8"/>
</g>
<!-- \\Google\\AdsApi\\Common\\GuzzleLogMessageFormatter -->
<g id="node40" class="node">
<title>\\Google\\AdsApi\\Common\\GuzzleLogMessageFormatter</title>
<polygon fill="none" stroke="black" points="523,-1300 338,-1300 338,-1264 523,-1264 523,-1300"/>
<text text-anchor="middle" x="430.5" y="-1279.2" font-family="Courier,monospace" font-size="11.00">GuzzleLogMessageFormatter</text>
</g>
<!-- \\Google\\AdsApi\\Common\\AdsLoggerFactory -->
<g id="node41" class="node">
<title>\\Google\\AdsApi\\Common\\AdsLoggerFactory</title>
<polygon fill="none" stroke="black" points="493,-1246 368,-1246 368,-1210 493,-1210 493,-1246"/>
<text text-anchor="middle" x="430.5" y="-1225.2" font-family="Courier,monospace" font-size="11.00">AdsLoggerFactory</text>
</g>
<!-- \\Google\\AdsApi\\Common\\AdsUtility -->
<g id="node42" class="node">
<title>\\Google\\AdsApi\\Common\\AdsUtility</title>
<polygon fill="none" stroke="black" points="472.5,-1192 388.5,-1192 388.5,-1156 472.5,-1156 472.5,-1192"/>
<text text-anchor="middle" x="430.5" y="-1171.2" font-family="Courier,monospace" font-size="11.00">AdsUtility</text>
</g>
<!-- \\Google\\AdsApi\\Common\\SoapLogMessageFormatter -->
<g id="node43" class="node">
<title>\\Google\\AdsApi\\Common\\SoapLogMessageFormatter</title>
<polygon fill="none" stroke="black" points="516.5,-1138 344.5,-1138 344.5,-1102 516.5,-1102 516.5,-1138"/>
<text text-anchor="middle" x="430.5" y="-1117.2" font-family="Courier,monospace" font-size="11.00">SoapLogMessageFormatter</text>
</g>
<!-- \\Google\\AdsApi\\Common\\Configuration -->
<g id="node44" class="node">
<title>\\Google\\AdsApi\\Common\\Configuration</title>
<polygon fill="none" stroke="black" points="482.5,-1084 378.5,-1084 378.5,-1048 482.5,-1048 482.5,-1084"/>
<text text-anchor="middle" x="430.5" y="-1063.2" font-family="Courier,monospace" font-size="11.00">Configuration</text>
</g>
<!-- \\Google\\AdsApi\\Common\\LibraryMetadataProvider -->
<g id="node45" class="node">
<title>\\Google\\AdsApi\\Common\\LibraryMetadataProvider</title>
<polygon fill="none" stroke="black" points="516.5,-1030 344.5,-1030 344.5,-994 516.5,-994 516.5,-1030"/>
<text text-anchor="middle" x="430.5" y="-1009.2" font-family="Courier,monospace" font-size="11.00">LibraryMetadataProvider</text>
</g>
<!-- \\Google\\AdsApi\\Common\\ConnectionSettingsBuilder -->
<g id="node46" class="node">
<title>\\Google\\AdsApi\\Common\\ConnectionSettingsBuilder</title>
<polygon fill="none" stroke="black" points="523,-976 338,-976 338,-940 523,-940 523,-976"/>
<text text-anchor="middle" x="430.5" y="-955.2" font-family="Courier,monospace" font-size="11.00">ConnectionSettingsBuilder</text>
</g>
<!-- \\Google\\AdsApi\\Common\\ConnectionSettingsBuilder&#45;&gt;\\Google\\AdsApi\\Common\\AdsBuilder -->
<g id="edge10" class="edge">
<title>\\Google\\AdsApi\\Common\\ConnectionSettingsBuilder&#45;&gt;\\Google\\AdsApi\\Common\\AdsBuilder</title>
<path fill="none" stroke="black" stroke-dasharray="1,5" d="M337.75,-973.65C328.46,-976.77 319.37,-980.52 311,-985 246.86,-1019.37 189.4,-1084.39 160.39,-1120.74"/>
<polygon fill="none" stroke="black" points="157.41,-1118.87 153.98,-1128.9 162.91,-1123.2 157.41,-1118.87"/>
</g>
<!-- \\Google\\AdsApi\\Common\\GuzzleLogMessageHandler -->
<g id="node47" class="node">
<title>\\Google\\AdsApi\\Common\\GuzzleLogMessageHandler</title>
<polygon fill="none" stroke="black" points="516.5,-922 344.5,-922 344.5,-886 516.5,-886 516.5,-922"/>
<text text-anchor="middle" x="430.5" y="-901.2" font-family="Courier,monospace" font-size="11.00">GuzzleLogMessageHandler</text>
</g>
<!-- \\Google\\AdsApi\\Common\\AdsGuzzleProxyHttpHandler -->
<g id="node48" class="node">
<title>\\Google\\AdsApi\\Common\\AdsGuzzleProxyHttpHandler</title>
<polygon fill="none" stroke="black" points="523,-868 338,-868 338,-832 523,-832 523,-868"/>
<text text-anchor="middle" x="430.5" y="-847.2" font-family="Courier,monospace" font-size="11.00">AdsGuzzleProxyHttpHandler</text>
</g>
<!-- \\Google\\AdsApi\\Common\\SoapSettingsBuilder -->
<g id="node49" class="node">
<title>\\Google\\AdsApi\\Common\\SoapSettingsBuilder</title>
<polygon fill="none" stroke="black" points="503,-814 358,-814 358,-778 503,-778 503,-814"/>
<text text-anchor="middle" x="430.5" y="-793.2" font-family="Courier,monospace" font-size="11.00">SoapSettingsBuilder</text>
</g>
<!-- \\Google\\AdsApi\\Common\\SoapSettingsBuilder&#45;&gt;\\Google\\AdsApi\\Common\\AdsBuilder -->
<g id="edge11" class="edge">
<title>\\Google\\AdsApi\\Common\\SoapSettingsBuilder&#45;&gt;\\Google\\AdsApi\\Common\\AdsBuilder</title>
<path fill="none" stroke="black" stroke-dasharray="1,5" d="M357.77,-802.08C341.18,-806.14 324.47,-812.65 311,-823 209.99,-900.62 162.64,-1055.27 146.84,-1118.78"/>
<polygon fill="none" stroke="black" points="143.35,-1118.31 144.41,-1128.85 150.16,-1119.95 143.35,-1118.31"/>
</g>
<!-- \\Google\\AdsApi\\Common\\AdsSoapClient -->
<g id="node50" class="node">
<title>\\Google\\AdsApi\\Common\\AdsSoapClient</title>
<polygon fill="none" stroke="black" points="482.5,-598 378.5,-598 378.5,-562 482.5,-562 482.5,-598"/>
<text text-anchor="middle" x="430.5" y="-577.2" font-family="Courier,monospace" font-size="11.00">AdsSoapClient</text>
</g>
<!-- \\SoapClient -->
<g id="node66" class="node">
<title>\\SoapClient</title>
<ellipse fill="none" stroke="black" cx="139.5" cy="-18" rx="51.99" ry="18"/>
<text text-anchor="middle" x="139.5" y="-14.3" font-family="Times,serif" font-size="14.00" fill="gray">\SoapClient</text>
</g>
<!-- \\Google\\AdsApi\\Common\\AdsSoapClient&#45;&gt;\\SoapClient -->
<g id="edge12" class="edge">
<title>\\Google\\AdsApi\\Common\\AdsSoapClient&#45;&gt;\\SoapClient</title>
<path fill="none" stroke="black" d="M378.36,-580.89C354.63,-578.5 327.98,-571.35 311,-553 161.83,-391.74 370.2,-240.2 239,-64 227.63,-48.74 209.94,-38.36 192.67,-31.39"/>
<polygon fill="none" stroke="black" points="193.75,-28.06 183.16,-27.86 191.32,-34.62 193.75,-28.06"/>
</g>
<!-- \\Google\\AdsApi\\Common\\AdsSoapClientFactory -->
<g id="node51" class="node">
<title>\\Google\\AdsApi\\Common\\AdsSoapClientFactory</title>
<polygon fill="none" stroke="black" points="506.5,-706 354.5,-706 354.5,-670 506.5,-670 506.5,-706"/>
<text text-anchor="middle" x="430.5" y="-685.2" font-family="Courier,monospace" font-size="11.00">AdsSoapClientFactory</text>
</g>
<!-- \\Google\\AdsApi\\Common\\ConnectionSettings -->
<g id="node52" class="node">
<title>\\Google\\AdsApi\\Common\\ConnectionSettings</title>
<polygon fill="none" stroke="black" points="499.5,-652 361.5,-652 361.5,-616 499.5,-616 499.5,-652"/>
<text text-anchor="middle" x="430.5" y="-631.2" font-family="Courier,monospace" font-size="11.00">ConnectionSettings</text>
</g>
<!-- \\Google\\AdsApi\\Common\\AdsGuzzleHttpClientFactory -->
<g id="node53" class="node">
<title>\\Google\\AdsApi\\Common\\AdsGuzzleHttpClientFactory</title>
<polygon fill="none" stroke="black" points="526.5,-760 334.5,-760 334.5,-724 526.5,-724 526.5,-760"/>
<text text-anchor="middle" x="430.5" y="-739.2" font-family="Courier,monospace" font-size="11.00">AdsGuzzleHttpClientFactory</text>
</g>
<!-- \\Google\\AdsApi\\Common\\GuzzleHttpClientFactory -->
<g id="node57" class="node">
<title>\\Google\\AdsApi\\Common\\GuzzleHttpClientFactory</title>
<polygon fill="none" stroke="black" points="225.5,-760 53.5,-760 53.5,-724 225.5,-724 225.5,-760"/>
<text text-anchor="middle" x="139.5" y="-739.2" font-family="Courier,monospace" font-size="11.00">GuzzleHttpClientFactory</text>
</g>
<!-- \\Google\\AdsApi\\Common\\AdsGuzzleHttpClientFactory&#45;&gt;\\Google\\AdsApi\\Common\\GuzzleHttpClientFactory -->
<g id="edge13" class="edge">
<title>\\Google\\AdsApi\\Common\\AdsGuzzleHttpClientFactory&#45;&gt;\\Google\\AdsApi\\Common\\GuzzleHttpClientFactory</title>
<path fill="none" stroke="black" stroke-dasharray="1,5" d="M334.47,-742C302.85,-742 267.64,-742 235.98,-742"/>
<polygon fill="none" stroke="black" points="235.84,-738.5 225.84,-742 235.84,-745.5 235.84,-738.5"/>
</g>
<!-- \\Google\\AdsApi\\Common\\ConfigurationLoader -->
<g id="node54" class="node">
<title>\\Google\\AdsApi\\Common\\ConfigurationLoader</title>
<polygon fill="none" stroke="black" points="503,-544 358,-544 358,-508 503,-508 503,-544"/>
<text text-anchor="middle" x="430.5" y="-523.2" font-family="Courier,monospace" font-size="11.00">ConfigurationLoader</text>
</g>
<!-- \\Google\\AdsApi\\Common\\SoapSettings -->
<g id="node55" class="node">
<title>\\Google\\AdsApi\\Common\\SoapSettings</title>
<polygon fill="none" stroke="black" points="479.5,-490 381.5,-490 381.5,-454 479.5,-454 479.5,-490"/>
<text text-anchor="middle" x="430.5" y="-469.2" font-family="Courier,monospace" font-size="11.00">SoapSettings</text>
</g>
<!-- \\Google\\AdsApi\\Common\\AdsHeaderFormatter -->
<g id="node56" class="node">
<title>\\Google\\AdsApi\\Common\\AdsHeaderFormatter</title>
<polygon fill="none" stroke="black" points="499.5,-436 361.5,-436 361.5,-400 499.5,-400 499.5,-436"/>
<text text-anchor="middle" x="430.5" y="-415.2" font-family="Courier,monospace" font-size="11.00">AdsHeaderFormatter</text>
</g>
</g>
</svg>
