<?xml version="1.0" encoding="UTF-8" standalone="no"?>
<!DOCTYPE svg PUBLIC "-//W3C//DTD SVG 1.1//EN"
 "http://www.w3.org/Graphics/SVG/1.1/DTD/svg11.dtd">
<!-- Generated by graphviz version 2.40.1 (20161225.0304)
 -->
<!-- Title: G Pages: 1 -->
<svg width="970pt" height="2350pt"
 viewBox="0.00 0.00 970.00 2350.00" xmlns="http://www.w3.org/2000/svg" xmlns:xlink="http://www.w3.org/1999/xlink">
<g id="graph0" class="graph" transform="scale(1 1) rotate(0) translate(4 2346)">
<title>G</title>
<polygon fill="#ffffff" stroke="transparent" points="-4,4 -4,-2346 966,-2346 966,4 -4,4"/>
<g id="clust1" class="cluster">
<title>cluster_Global</title>
<path fill="none" stroke="#c0c0c0" d="M20,-44C20,-44 942,-44 942,-44 948,-44 954,-50 954,-56 954,-56 954,-2322 954,-2322 954,-2328 948,-2334 942,-2334 942,-2334 20,-2334 20,-2334 14,-2334 8,-2328 8,-2322 8,-2322 8,-56 8,-56 8,-50 14,-44 20,-44"/>
<text text-anchor="middle" x="481" y="-2321.2" font-family="Times,serif" font-size="11.00" fill="#c0c0c0">Global</text>
</g>
<g id="clust2" class="cluster">
<title>cluster_\Google</title>
<path fill="none" stroke="#c0c0c0" d="M28,-52C28,-52 934,-52 934,-52 940,-52 946,-58 946,-64 946,-64 946,-2294 946,-2294 946,-2300 940,-2306 934,-2306 934,-2306 28,-2306 28,-2306 22,-2306 16,-2300 16,-2294 16,-2294 16,-64 16,-64 16,-58 22,-52 28,-52"/>
<text text-anchor="middle" x="481" y="-2293.2" font-family="Times,serif" font-size="11.00" fill="#c0c0c0">Google</text>
</g>
<g id="clust3" class="cluster">
<title>cluster_\Google\AdsApi</title>
<path fill="none" stroke="#c0c0c0" d="M36,-60C36,-60 926,-60 926,-60 932,-60 938,-66 938,-72 938,-72 938,-2266 938,-2266 938,-2272 932,-2278 926,-2278 926,-2278 36,-2278 36,-2278 30,-2278 24,-2272 24,-2266 24,-2266 24,-72 24,-72 24,-66 30,-60 36,-60"/>
<text text-anchor="middle" x="481" y="-2265.2" font-family="Times,serif" font-size="11.00" fill="#c0c0c0">AdsApi</text>
</g>
<g id="clust4" class="cluster">
<title>cluster_\Google\AdsApi\AdManager</title>
<path fill="none" stroke="#c0c0c0" d="M626,-68C626,-68 918,-68 918,-68 924,-68 930,-74 930,-80 930,-80 930,-2238 930,-2238 930,-2244 924,-2250 918,-2250 918,-2250 626,-2250 626,-2250 620,-2250 614,-2244 614,-2238 614,-2238 614,-80 614,-80 614,-74 620,-68 626,-68"/>
<text text-anchor="middle" x="772" y="-2237.2" font-family="Times,serif" font-size="11.00" fill="#c0c0c0">AdManager</text>
</g>
<g id="clust5" class="cluster">
<title>cluster_\Google\AdsApi\AdManager\Util</title>
<path fill="none" stroke="#c0c0c0" d="M699,-444C699,-444 845,-444 845,-444 851,-444 857,-450 857,-456 857,-456 857,-2210 857,-2210 857,-2216 851,-2222 845,-2222 845,-2222 699,-2222 699,-2222 693,-2222 687,-2216 687,-2210 687,-2210 687,-456 687,-456 687,-450 693,-444 699,-444"/>
<text text-anchor="middle" x="772" y="-2209.2" font-family="Times,serif" font-size="11.00" fill="#c0c0c0">Util</text>
</g>
<g id="clust6" class="cluster">
<title>cluster_\Google\AdsApi\AdManager\Util\v201908</title>
<path fill="none" stroke="#c0c0c0" d="M707,-1852C707,-1852 837,-1852 837,-1852 843,-1852 849,-1858 849,-1864 849,-1864 849,-2182 849,-2182 849,-2188 843,-2194 837,-2194 837,-2194 707,-2194 707,-2194 701,-2194 695,-2188 695,-2182 695,-2182 695,-1864 695,-1864 695,-1858 701,-1852 707,-1852"/>
<text text-anchor="middle" x="772" y="-2181.2" font-family="Times,serif" font-size="11.00" fill="#c0c0c0">v201908</text>
</g>
<g id="clust7" class="cluster">
<title>cluster_\Google\AdsApi\AdManager\Util\v201808</title>
<path fill="none" stroke="#c0c0c0" d="M707,-1502C707,-1502 837,-1502 837,-1502 843,-1502 849,-1508 849,-1514 849,-1514 849,-1832 849,-1832 849,-1838 843,-1844 837,-1844 837,-1844 707,-1844 707,-1844 701,-1844 695,-1838 695,-1832 695,-1832 695,-1514 695,-1514 695,-1508 701,-1502 707,-1502"/>
<text text-anchor="middle" x="772" y="-1831.2" font-family="Times,serif" font-size="11.00" fill="#c0c0c0">v201808</text>
</g>
<g id="clust8" class="cluster">
<title>cluster_\Google\AdsApi\AdManager\Util\v202002</title>
<path fill="none" stroke="#c0c0c0" d="M707,-1152C707,-1152 837,-1152 837,-1152 843,-1152 849,-1158 849,-1164 849,-1164 849,-1482 849,-1482 849,-1488 843,-1494 837,-1494 837,-1494 707,-1494 707,-1494 701,-1494 695,-1488 695,-1482 695,-1482 695,-1164 695,-1164 695,-1158 701,-1152 707,-1152"/>
<text text-anchor="middle" x="772" y="-1481.2" font-family="Times,serif" font-size="11.00" fill="#c0c0c0">v202002</text>
</g>
<g id="clust9" class="cluster">
<title>cluster_\Google\AdsApi\AdManager\Util\v201911</title>
<path fill="none" stroke="#c0c0c0" d="M707,-802C707,-802 837,-802 837,-802 843,-802 849,-808 849,-814 849,-814 849,-1132 849,-1132 849,-1138 843,-1144 837,-1144 837,-1144 707,-1144 707,-1144 701,-1144 695,-1138 695,-1132 695,-1132 695,-814 695,-814 695,-808 701,-802 707,-802"/>
<text text-anchor="middle" x="772" y="-1131.2" font-family="Times,serif" font-size="11.00" fill="#c0c0c0">v201911</text>
</g>
<g id="clust10" class="cluster">
<title>cluster_\Google\AdsApi\AdManager\Util\v201905</title>
<path fill="none" stroke="#c0c0c0" d="M707,-452C707,-452 837,-452 837,-452 843,-452 849,-458 849,-464 849,-464 849,-782 849,-782 849,-788 843,-794 837,-794 837,-794 707,-794 707,-794 701,-794 695,-788 695,-782 695,-782 695,-464 695,-464 695,-458 701,-452 707,-452"/>
<text text-anchor="middle" x="772" y="-781.2" font-family="Times,serif" font-size="11.00" fill="#c0c0c0">v201905</text>
</g>
<g id="clust11" class="cluster">
<title>cluster_\Google\AdsApi\Common</title>
<path fill="none" stroke="#c0c0c0" d="M44,-68C44,-68 547.5,-68 547.5,-68 553.5,-68 559.5,-74 559.5,-80 559.5,-80 559.5,-2234 559.5,-2234 559.5,-2240 553.5,-2246 547.5,-2246 547.5,-2246 44,-2246 44,-2246 38,-2246 32,-2240 32,-2234 32,-2234 32,-80 32,-80 32,-74 38,-68 44,-68"/>
<text text-anchor="middle" x="295.75" y="-2233.2" font-family="Times,serif" font-size="11.00" fill="#c0c0c0">Common</text>
</g>
<g id="clust12" class="cluster">
<title>cluster_\Google\AdsApi\Common\Util</title>
<path fill="none" stroke="#c0c0c0" d="M352,-1822C352,-1822 509,-1822 509,-1822 515,-1822 521,-1828 521,-1834 521,-1834 521,-2206 521,-2206 521,-2212 515,-2218 509,-2218 509,-2218 352,-2218 352,-2218 346,-2218 340,-2212 340,-2206 340,-2206 340,-1834 340,-1834 340,-1828 346,-1822 352,-1822"/>
<text text-anchor="middle" x="430.5" y="-2205.2" font-family="Times,serif" font-size="11.00" fill="#c0c0c0">Util</text>
</g>
<g id="clust13" class="cluster">
<title>cluster_\Google\AdsApi\Common\Testing</title>
<path fill="none" stroke="#c0c0c0" d="M321.5,-1418C321.5,-1418 539.5,-1418 539.5,-1418 545.5,-1418 551.5,-1424 551.5,-1430 551.5,-1430 551.5,-1802 551.5,-1802 551.5,-1808 545.5,-1814 539.5,-1814 539.5,-1814 321.5,-1814 321.5,-1814 315.5,-1814 309.5,-1808 309.5,-1802 309.5,-1802 309.5,-1430 309.5,-1430 309.5,-1424 315.5,-1418 321.5,-1418"/>
<text text-anchor="middle" x="430.5" y="-1801.2" font-family="Times,serif" font-size="11.00" fill="#c0c0c0">Testing</text>
</g>
<!-- \\Google\\AdsApi\\AdManager\\Util\\v201908\\ReportDownloader -->
<g id="node1" class="node">
<title>\\Google\\AdsApi\\AdManager\\Util\\v201908\\ReportDownloader</title>
<polygon fill="none" stroke="#000000" points="834.5,-2166 709.5,-2166 709.5,-2130 834.5,-2130 834.5,-2166"/>
<text text-anchor="middle" x="772" y="-2145.2" font-family="Courier,monospace" font-size="11.00" fill="#000000">ReportDownloader</text>
</g>
<!-- \\Google\\AdsApi\\AdManager\\Util\\v201908\\CsvFiles -->
<g id="node2" class="node">
<title>\\Google\\AdsApi\\AdManager\\Util\\v201908\\CsvFiles</title>
<polygon fill="none" stroke="#000000" points="807.5,-2112 736.5,-2112 736.5,-2076 807.5,-2076 807.5,-2112"/>
<text text-anchor="middle" x="772" y="-2091.2" font-family="Courier,monospace" font-size="11.00" fill="#000000">CsvFiles</text>
</g>
<!-- \\Google\\AdsApi\\AdManager\\Util\\v201908\\AdManagerDates -->
<g id="node3" class="node">
<title>\\Google\\AdsApi\\AdManager\\Util\\v201908\\AdManagerDates</title>
<polygon fill="none" stroke="#000000" points="827.5,-2058 716.5,-2058 716.5,-2022 827.5,-2022 827.5,-2058"/>
<text text-anchor="middle" x="772" y="-2037.2" font-family="Courier,monospace" font-size="11.00" fill="#000000">AdManagerDates</text>
</g>
<!-- \\Google\\AdsApi\\AdManager\\Util\\v201908\\AdManagerDateTimes -->
<g id="node4" class="node">
<title>\\Google\\AdsApi\\AdManager\\Util\\v201908\\AdManagerDateTimes</title>
<polygon fill="none" stroke="#000000" points="841,-2004 703,-2004 703,-1968 841,-1968 841,-2004"/>
<text text-anchor="middle" x="772" y="-1983.2" font-family="Courier,monospace" font-size="11.00" fill="#000000">AdManagerDateTimes</text>
</g>
<!-- \\Google\\AdsApi\\AdManager\\Util\\v201908\\Pql -->
<g id="node5" class="node">
<title>\\Google\\AdsApi\\AdManager\\Util\\v201908\\Pql</title>
<polygon fill="none" stroke="#000000" points="799,-1950 745,-1950 745,-1914 799,-1914 799,-1950"/>
<text text-anchor="middle" x="772" y="-1929.2" font-family="Courier,monospace" font-size="11.00" fill="#000000">Pql</text>
</g>
<!-- \\Google\\AdsApi\\AdManager\\Util\\v201908\\StatementBuilder -->
<g id="node6" class="node">
<title>\\Google\\AdsApi\\AdManager\\Util\\v201908\\StatementBuilder</title>
<polygon fill="none" stroke="#000000" points="834.5,-1896 709.5,-1896 709.5,-1860 834.5,-1860 834.5,-1896"/>
<text text-anchor="middle" x="772" y="-1875.2" font-family="Courier,monospace" font-size="11.00" fill="#000000">StatementBuilder</text>
</g>
<!-- \\Google\\AdsApi\\AdManager\\Util\\v201808\\ReportDownloader -->
<g id="node7" class="node">
<title>\\Google\\AdsApi\\AdManager\\Util\\v201808\\ReportDownloader</title>
<polygon fill="none" stroke="#000000" points="834.5,-1816 709.5,-1816 709.5,-1780 834.5,-1780 834.5,-1816"/>
<text text-anchor="middle" x="772" y="-1795.2" font-family="Courier,monospace" font-size="11.00" fill="#000000">ReportDownloader</text>
</g>
<!-- \\Google\\AdsApi\\AdManager\\Util\\v201808\\CsvFiles -->
<g id="node8" class="node">
<title>\\Google\\AdsApi\\AdManager\\Util\\v201808\\CsvFiles</title>
<polygon fill="none" stroke="#000000" points="807.5,-1762 736.5,-1762 736.5,-1726 807.5,-1726 807.5,-1762"/>
<text text-anchor="middle" x="772" y="-1741.2" font-family="Courier,monospace" font-size="11.00" fill="#000000">CsvFiles</text>
</g>
<!-- \\Google\\AdsApi\\AdManager\\Util\\v201808\\AdManagerDates -->
<g id="node9" class="node">
<title>\\Google\\AdsApi\\AdManager\\Util\\v201808\\AdManagerDates</title>
<polygon fill="none" stroke="#000000" points="827.5,-1708 716.5,-1708 716.5,-1672 827.5,-1672 827.5,-1708"/>
<text text-anchor="middle" x="772" y="-1687.2" font-family="Courier,monospace" font-size="11.00" fill="#000000">AdManagerDates</text>
</g>
<!-- \\Google\\AdsApi\\AdManager\\Util\\v201808\\AdManagerDateTimes -->
<g id="node10" class="node">
<title>\\Google\\AdsApi\\AdManager\\Util\\v201808\\AdManagerDateTimes</title>
<polygon fill="none" stroke="#000000" points="841,-1654 703,-1654 703,-1618 841,-1618 841,-1654"/>
<text text-anchor="middle" x="772" y="-1633.2" font-family="Courier,monospace" font-size="11.00" fill="#000000">AdManagerDateTimes</text>
</g>
<!-- \\Google\\AdsApi\\AdManager\\Util\\v201808\\Pql -->
<g id="node11" class="node">
<title>\\Google\\AdsApi\\AdManager\\Util\\v201808\\Pql</title>
<polygon fill="none" stroke="#000000" points="799,-1600 745,-1600 745,-1564 799,-1564 799,-1600"/>
<text text-anchor="middle" x="772" y="-1579.2" font-family="Courier,monospace" font-size="11.00" fill="#000000">Pql</text>
</g>
<!-- \\Google\\AdsApi\\AdManager\\Util\\v201808\\StatementBuilder -->
<g id="node12" class="node">
<title>\\Google\\AdsApi\\AdManager\\Util\\v201808\\StatementBuilder</title>
<polygon fill="none" stroke="#000000" points="834.5,-1546 709.5,-1546 709.5,-1510 834.5,-1510 834.5,-1546"/>
<text text-anchor="middle" x="772" y="-1525.2" font-family="Courier,monospace" font-size="11.00" fill="#000000">StatementBuilder</text>
</g>
<!-- \\Google\\AdsApi\\AdManager\\Util\\v202002\\ReportDownloader -->
<g id="node13" class="node">
<title>\\Google\\AdsApi\\AdManager\\Util\\v202002\\ReportDownloader</title>
<polygon fill="none" stroke="#000000" points="834.5,-1466 709.5,-1466 709.5,-1430 834.5,-1430 834.5,-1466"/>
<text text-anchor="middle" x="772" y="-1445.2" font-family="Courier,monospace" font-size="11.00" fill="#000000">ReportDownloader</text>
</g>
<!-- \\Google\\AdsApi\\AdManager\\Util\\v202002\\CsvFiles -->
<g id="node14" class="node">
<title>\\Google\\AdsApi\\AdManager\\Util\\v202002\\CsvFiles</title>
<polygon fill="none" stroke="#000000" points="807.5,-1412 736.5,-1412 736.5,-1376 807.5,-1376 807.5,-1412"/>
<text text-anchor="middle" x="772" y="-1391.2" font-family="Courier,monospace" font-size="11.00" fill="#000000">CsvFiles</text>
</g>
<!-- \\Google\\AdsApi\\AdManager\\Util\\v202002\\AdManagerDates -->
<g id="node15" class="node">
<title>\\Google\\AdsApi\\AdManager\\Util\\v202002\\AdManagerDates</title>
<polygon fill="none" stroke="#000000" points="827.5,-1358 716.5,-1358 716.5,-1322 827.5,-1322 827.5,-1358"/>
<text text-anchor="middle" x="772" y="-1337.2" font-family="Courier,monospace" font-size="11.00" fill="#000000">AdManagerDates</text>
</g>
<!-- \\Google\\AdsApi\\AdManager\\Util\\v202002\\AdManagerDateTimes -->
<g id="node16" class="node">
<title>\\Google\\AdsApi\\AdManager\\Util\\v202002\\AdManagerDateTimes</title>
<polygon fill="none" stroke="#000000" points="841,-1304 703,-1304 703,-1268 841,-1268 841,-1304"/>
<text text-anchor="middle" x="772" y="-1283.2" font-family="Courier,monospace" font-size="11.00" fill="#000000">AdManagerDateTimes</text>
</g>
<!-- \\Google\\AdsApi\\AdManager\\Util\\v202002\\Pql -->
<g id="node17" class="node">
<title>\\Google\\AdsApi\\AdManager\\Util\\v202002\\Pql</title>
<polygon fill="none" stroke="#000000" points="799,-1250 745,-1250 745,-1214 799,-1214 799,-1250"/>
<text text-anchor="middle" x="772" y="-1229.2" font-family="Courier,monospace" font-size="11.00" fill="#000000">Pql</text>
</g>
<!-- \\Google\\AdsApi\\AdManager\\Util\\v202002\\StatementBuilder -->
<g id="node18" class="node">
<title>\\Google\\AdsApi\\AdManager\\Util\\v202002\\StatementBuilder</title>
<polygon fill="none" stroke="#000000" points="834.5,-1196 709.5,-1196 709.5,-1160 834.5,-1160 834.5,-1196"/>
<text text-anchor="middle" x="772" y="-1175.2" font-family="Courier,monospace" font-size="11.00" fill="#000000">StatementBuilder</text>
</g>
<!-- \\Google\\AdsApi\\AdManager\\Util\\v201911\\ReportDownloader -->
<g id="node19" class="node">
<title>\\Google\\AdsApi\\AdManager\\Util\\v201911\\ReportDownloader</title>
<polygon fill="none" stroke="#000000" points="834.5,-1116 709.5,-1116 709.5,-1080 834.5,-1080 834.5,-1116"/>
<text text-anchor="middle" x="772" y="-1095.2" font-family="Courier,monospace" font-size="11.00" fill="#000000">ReportDownloader</text>
</g>
<!-- \\Google\\AdsApi\\AdManager\\Util\\v201911\\CsvFiles -->
<g id="node20" class="node">
<title>\\Google\\AdsApi\\AdManager\\Util\\v201911\\CsvFiles</title>
<polygon fill="none" stroke="#000000" points="807.5,-1062 736.5,-1062 736.5,-1026 807.5,-1026 807.5,-1062"/>
<text text-anchor="middle" x="772" y="-1041.2" font-family="Courier,monospace" font-size="11.00" fill="#000000">CsvFiles</text>
</g>
<!-- \\Google\\AdsApi\\AdManager\\Util\\v201911\\AdManagerDates -->
<g id="node21" class="node">
<title>\\Google\\AdsApi\\AdManager\\Util\\v201911\\AdManagerDates</title>
<polygon fill="none" stroke="#000000" points="827.5,-1008 716.5,-1008 716.5,-972 827.5,-972 827.5,-1008"/>
<text text-anchor="middle" x="772" y="-987.2" font-family="Courier,monospace" font-size="11.00" fill="#000000">AdManagerDates</text>
</g>
<!-- \\Google\\AdsApi\\AdManager\\Util\\v201911\\AdManagerDateTimes -->
<g id="node22" class="node">
<title>\\Google\\AdsApi\\AdManager\\Util\\v201911\\AdManagerDateTimes</title>
<polygon fill="none" stroke="#000000" points="841,-954 703,-954 703,-918 841,-918 841,-954"/>
<text text-anchor="middle" x="772" y="-933.2" font-family="Courier,monospace" font-size="11.00" fill="#000000">AdManagerDateTimes</text>
</g>
<!-- \\Google\\AdsApi\\AdManager\\Util\\v201911\\Pql -->
<g id="node23" class="node">
<title>\\Google\\AdsApi\\AdManager\\Util\\v201911\\Pql</title>
<polygon fill="none" stroke="#000000" points="799,-900 745,-900 745,-864 799,-864 799,-900"/>
<text text-anchor="middle" x="772" y="-879.2" font-family="Courier,monospace" font-size="11.00" fill="#000000">Pql</text>
</g>
<!-- \\Google\\AdsApi\\AdManager\\Util\\v201911\\StatementBuilder -->
<g id="node24" class="node">
<title>\\Google\\AdsApi\\AdManager\\Util\\v201911\\StatementBuilder</title>
<polygon fill="none" stroke="#000000" points="834.5,-846 709.5,-846 709.5,-810 834.5,-810 834.5,-846"/>
<text text-anchor="middle" x="772" y="-825.2" font-family="Courier,monospace" font-size="11.00" fill="#000000">StatementBuilder</text>
</g>
<!-- \\Google\\AdsApi\\AdManager\\Util\\v201905\\ReportDownloader -->
<g id="node25" class="node">
<title>\\Google\\AdsApi\\AdManager\\Util\\v201905\\ReportDownloader</title>
<polygon fill="none" stroke="#000000" points="834.5,-766 709.5,-766 709.5,-730 834.5,-730 834.5,-766"/>
<text text-anchor="middle" x="772" y="-745.2" font-family="Courier,monospace" font-size="11.00" fill="#000000">ReportDownloader</text>
</g>
<!-- \\Google\\AdsApi\\AdManager\\Util\\v201905\\CsvFiles -->
<g id="node26" class="node">
<title>\\Google\\AdsApi\\AdManager\\Util\\v201905\\CsvFiles</title>
<polygon fill="none" stroke="#000000" points="807.5,-712 736.5,-712 736.5,-676 807.5,-676 807.5,-712"/>
<text text-anchor="middle" x="772" y="-691.2" font-family="Courier,monospace" font-size="11.00" fill="#000000">CsvFiles</text>
</g>
<!-- \\Google\\AdsApi\\AdManager\\Util\\v201905\\AdManagerDates -->
<g id="node27" class="node">
<title>\\Google\\AdsApi\\AdManager\\Util\\v201905\\AdManagerDates</title>
<polygon fill="none" stroke="#000000" points="827.5,-658 716.5,-658 716.5,-622 827.5,-622 827.5,-658"/>
<text text-anchor="middle" x="772" y="-637.2" font-family="Courier,monospace" font-size="11.00" fill="#000000">AdManagerDates</text>
</g>
<!-- \\Google\\AdsApi\\AdManager\\Util\\v201905\\AdManagerDateTimes -->
<g id="node28" class="node">
<title>\\Google\\AdsApi\\AdManager\\Util\\v201905\\AdManagerDateTimes</title>
<polygon fill="none" stroke="#000000" points="841,-604 703,-604 703,-568 841,-568 841,-604"/>
<text text-anchor="middle" x="772" y="-583.2" font-family="Courier,monospace" font-size="11.00" fill="#000000">AdManagerDateTimes</text>
</g>
<!-- \\Google\\AdsApi\\AdManager\\Util\\v201905\\Pql -->
<g id="node29" class="node">
<title>\\Google\\AdsApi\\AdManager\\Util\\v201905\\Pql</title>
<polygon fill="none" stroke="#000000" points="799,-550 745,-550 745,-514 799,-514 799,-550"/>
<text text-anchor="middle" x="772" y="-529.2" font-family="Courier,monospace" font-size="11.00" fill="#000000">Pql</text>
</g>
<!-- \\Google\\AdsApi\\AdManager\\Util\\v201905\\StatementBuilder -->
<g id="node30" class="node">
<title>\\Google\\AdsApi\\AdManager\\Util\\v201905\\StatementBuilder</title>
<polygon fill="none" stroke="#000000" points="834.5,-496 709.5,-496 709.5,-460 834.5,-460 834.5,-496"/>
<text text-anchor="middle" x="772" y="-475.2" font-family="Courier,monospace" font-size="11.00" fill="#000000">StatementBuilder</text>
</g>
<!-- \\Google\\AdsApi\\AdManager\\AdManagerSession -->
<g id="node31" class="node">
<title>\\Google\\AdsApi\\AdManager\\AdManagerSession</title>
<polygon fill="none" stroke="#000000" points="834.5,-328 709.5,-328 709.5,-292 834.5,-292 834.5,-328"/>
<text text-anchor="middle" x="772" y="-307.2" font-family="Courier,monospace" font-size="11.00" fill="#000000">AdManagerSession</text>
</g>
<!-- \\Google\\AdsApi\\Common\\AdsSession -->
<g id="node79" class="node">
<title>\\Google\\AdsApi\\Common\\AdsSession</title>
<polygon fill="none" stroke="#000000" points="472.5,-328 388.5,-328 388.5,-292 472.5,-292 472.5,-328"/>
<text text-anchor="middle" x="430.5" y="-307.2" font-family="Courier,monospace" font-size="11.00" fill="#000000">AdsSession</text>
</g>
<!-- \\Google\\AdsApi\\AdManager\\AdManagerSession&#45;&gt;\\Google\\AdsApi\\Common\\AdsSession -->
<g id="edge1" class="edge">
<title>\\Google\\AdsApi\\AdManager\\AdManagerSession&#45;&gt;\\Google\\AdsApi\\Common\\AdsSession</title>
<path fill="none" stroke="#000000" stroke-dasharray="1,5" d="M709.3636,-310C644.3808,-310 543.9084,-310 482.9634,-310"/>
<polygon fill="none" stroke="#000000" points="482.7976,-306.5001 472.7976,-310 482.7975,-313.5001 482.7976,-306.5001"/>
</g>
<!-- \\Google\\AdsApi\\AdManager\\AdManagerSoapLogMessageFormatterProvider -->
<g id="node32" class="node">
<title>\\Google\\AdsApi\\AdManager\\AdManagerSoapLogMessageFormatterProvider</title>
<polygon fill="none" stroke="#000000" points="915.5,-274 628.5,-274 628.5,-238 915.5,-238 915.5,-274"/>
<text text-anchor="middle" x="772" y="-253.2" font-family="Courier,monospace" font-size="11.00" fill="#000000">AdManagerSoapLogMessageFormatterProvider</text>
</g>
<!-- \\Google\\AdsApi\\Common\\SoapLogMessageFormatterProvider -->
<g id="node78" class="node">
<title>\\Google\\AdsApi\\Common\\SoapLogMessageFormatterProvider</title>
<polygon fill="none" stroke="#000000" points="543.5,-274 317.5,-274 317.5,-238 543.5,-238 543.5,-274"/>
<text text-anchor="middle" x="430.5" y="-253.2" font-family="Courier,monospace" font-size="11.00" fill="#000000">SoapLogMessageFormatterProvider</text>
</g>
<!-- \\Google\\AdsApi\\AdManager\\AdManagerSoapLogMessageFormatterProvider&#45;&gt;\\Google\\AdsApi\\Common\\SoapLogMessageFormatterProvider -->
<g id="edge2" class="edge">
<title>\\Google\\AdsApi\\AdManager\\AdManagerSoapLogMessageFormatterProvider&#45;&gt;\\Google\\AdsApi\\Common\\SoapLogMessageFormatterProvider</title>
<path fill="none" stroke="#000000" stroke-dasharray="1,5" d="M628.163,-256C603.4407,-256 577.9463,-256 553.8235,-256"/>
<polygon fill="none" stroke="#000000" points="553.5754,-252.5001 543.5754,-256 553.5754,-259.5001 553.5754,-252.5001"/>
</g>
<!-- \\Google\\AdsApi\\AdManager\\AdManagerServices -->
<g id="node33" class="node">
<title>\\Google\\AdsApi\\AdManager\\AdManagerServices</title>
<polygon fill="none" stroke="#000000" points="837.5,-220 706.5,-220 706.5,-184 837.5,-184 837.5,-220"/>
<text text-anchor="middle" x="772" y="-199.2" font-family="Courier,monospace" font-size="11.00" fill="#000000">AdManagerServices</text>
</g>
<!-- \\Google\\AdsApi\\Common\\AdsServices -->
<g id="node74" class="node">
<title>\\Google\\AdsApi\\Common\\AdsServices</title>
<polygon fill="none" stroke="#000000" points="476,-220 385,-220 385,-184 476,-184 476,-220"/>
<text text-anchor="middle" x="430.5" y="-199.2" font-family="Courier,monospace" font-size="11.00" fill="#000000">AdsServices</text>
</g>
<!-- \\Google\\AdsApi\\AdManager\\AdManagerServices&#45;&gt;\\Google\\AdsApi\\Common\\AdsServices -->
<g id="edge3" class="edge">
<title>\\Google\\AdsApi\\AdManager\\AdManagerServices&#45;&gt;\\Google\\AdsApi\\Common\\AdsServices</title>
<path fill="none" stroke="#000000" stroke-dasharray="1,5" d="M706.1554,-202C642.303,-202 546.4954,-202 486.2911,-202"/>
<polygon fill="none" stroke="#000000" points="486.213,-198.5001 476.2129,-202 486.2129,-205.5001 486.213,-198.5001"/>
</g>
<!-- \\Google\\AdsApi\\AdManager\\AdManagerGuzzleLogMessageFormatterProvider -->
<g id="node34" class="node">
<title>\\Google\\AdsApi\\AdManager\\AdManagerGuzzleLogMessageFormatterProvider</title>
<polygon fill="none" stroke="#000000" points="922,-166 622,-166 622,-130 922,-130 922,-166"/>
<text text-anchor="middle" x="772" y="-145.2" font-family="Courier,monospace" font-size="11.00" fill="#000000">AdManagerGuzzleLogMessageFormatterProvider</text>
</g>
<!-- \\Google\\AdsApi\\Common\\GuzzleLogMessageFormatterProvider -->
<g id="node71" class="node">
<title>\\Google\\AdsApi\\Common\\GuzzleLogMessageFormatterProvider</title>
<polygon fill="none" stroke="#000000" points="550,-166 311,-166 311,-130 550,-130 550,-166"/>
<text text-anchor="middle" x="430.5" y="-145.2" font-family="Courier,monospace" font-size="11.00" fill="#000000">GuzzleLogMessageFormatterProvider</text>
</g>
<!-- \\Google\\AdsApi\\AdManager\\AdManagerGuzzleLogMessageFormatterProvider&#45;&gt;\\Google\\AdsApi\\Common\\GuzzleLogMessageFormatterProvider -->
<g id="edge4" class="edge">
<title>\\Google\\AdsApi\\AdManager\\AdManagerGuzzleLogMessageFormatterProvider&#45;&gt;\\Google\\AdsApi\\Common\\GuzzleLogMessageFormatterProvider</title>
<path fill="none" stroke="#000000" stroke-dasharray="1,5" d="M621.7162,-148C601.2031,-148 580.2902,-148 560.1848,-148"/>
<polygon fill="none" stroke="#000000" points="560.0694,-144.5001 550.0694,-148 560.0694,-151.5001 560.0694,-144.5001"/>
</g>
<!-- \\Google\\AdsApi\\AdManager\\AdManagerServiceDescriptor -->
<g id="node35" class="node">
<title>\\Google\\AdsApi\\AdManager\\AdManagerServiceDescriptor</title>
<polygon fill="none" stroke="#000000" points="868,-112 676,-112 676,-76 868,-76 868,-112"/>
<text text-anchor="middle" x="772" y="-91.2" font-family="Courier,monospace" font-size="11.00" fill="#000000">AdManagerServiceDescriptor</text>
</g>
<!-- \\Google\\AdsApi\\Common\\AdsServiceDescriptor -->
<g id="node72" class="node">
<title>\\Google\\AdsApi\\Common\\AdsServiceDescriptor</title>
<polygon fill="none" stroke="#000000" points="506.5,-112 354.5,-112 354.5,-76 506.5,-76 506.5,-112"/>
<text text-anchor="middle" x="430.5" y="-91.2" font-family="Courier,monospace" font-size="11.00" fill="#000000">AdsServiceDescriptor</text>
</g>
<!-- \\Google\\AdsApi\\AdManager\\AdManagerServiceDescriptor&#45;&gt;\\Google\\AdsApi\\Common\\AdsServiceDescriptor -->
<g id="edge5" class="edge">
<title>\\Google\\AdsApi\\AdManager\\AdManagerServiceDescriptor&#45;&gt;\\Google\\AdsApi\\Common\\AdsServiceDescriptor</title>
<path fill="none" stroke="#000000" stroke-dasharray="1,5" d="M675.9644,-94C625.9598,-94 565.3063,-94 516.8029,-94"/>
<polygon fill="none" stroke="#000000" points="516.6454,-90.5001 506.6454,-94 516.6453,-97.5001 516.6454,-90.5001"/>
</g>
<!-- \\Google\\AdsApi\\AdManager\\AdManagerSessionBuilder -->
<g id="node36" class="node">
<title>\\Google\\AdsApi\\AdManager\\AdManagerSessionBuilder</title>
<polygon fill="none" stroke="#000000" points="858,-436 686,-436 686,-400 858,-400 858,-436"/>
<text text-anchor="middle" x="772" y="-415.2" font-family="Courier,monospace" font-size="11.00" fill="#000000">AdManagerSessionBuilder</text>
</g>
<!-- \\Google\\AdsApi\\Common\\AdsBuilder -->
<g id="node75" class="node">
<title>\\Google\\AdsApi\\Common\\AdsBuilder</title>
<polygon fill="none" stroke="#000000" points="181.5,-1246 97.5,-1246 97.5,-1210 181.5,-1210 181.5,-1246"/>
<text text-anchor="middle" x="139.5" y="-1225.2" font-family="Courier,monospace" font-size="11.00" fill="#000000">AdsBuilder</text>
</g>
<!-- \\Google\\AdsApi\\AdManager\\AdManagerSessionBuilder&#45;&gt;\\Google\\AdsApi\\Common\\AdsBuilder -->
<g id="edge6" class="edge">
<title>\\Google\\AdsApi\\AdManager\\AdManagerSessionBuilder&#45;&gt;\\Google\\AdsApi\\Common\\AdsBuilder</title>
<path fill="none" stroke="#000000" stroke-dasharray="1,5" d="M685.6316,-414.456C658.8129,-418.0173 631.6813,-427.3011 614,-448 485.9148,-597.9455 701.0691,-2084.7133 559.5,-2222 519.6177,-2260.6759 350.2679,-2259.7412 309.5,-2222 160.1725,-2083.7587 333.3836,-1489.2805 239,-1309 226.3784,-1284.8917 203.1435,-1265.3465 182.2993,-1251.4996"/>
<polygon fill="none" stroke="#000000" points="184.1652,-1248.5384 173.8539,-1246.1037 180.3963,-1254.4372 184.1652,-1248.5384"/>
</g>
<!-- \\Google\\AdsApi\\AdManager\\AdManagerHeaderHandler -->
<g id="node37" class="node">
<title>\\Google\\AdsApi\\AdManager\\AdManagerHeaderHandler</title>
<polygon fill="none" stroke="#000000" points="854.5,-382 689.5,-382 689.5,-346 854.5,-346 854.5,-382"/>
<text text-anchor="middle" x="772" y="-361.2" font-family="Courier,monospace" font-size="11.00" fill="#000000">AdManagerHeaderHandler</text>
</g>
<!-- \\Google\\AdsApi\\Common\\AdsHeaderHandler -->
<g id="node76" class="node">
<title>\\Google\\AdsApi\\Common\\AdsHeaderHandler</title>
<polygon fill="none" stroke="#000000" points="493,-382 368,-382 368,-346 493,-346 493,-382"/>
<text text-anchor="middle" x="430.5" y="-361.2" font-family="Courier,monospace" font-size="11.00" fill="#000000">AdsHeaderHandler</text>
</g>
<!-- \\Google\\AdsApi\\AdManager\\AdManagerHeaderHandler&#45;&gt;\\Google\\AdsApi\\Common\\AdsHeaderHandler -->
<g id="edge7" class="edge">
<title>\\Google\\AdsApi\\AdManager\\AdManagerHeaderHandler&#45;&gt;\\Google\\AdsApi\\Common\\AdsHeaderHandler</title>
<path fill="none" stroke="#000000" stroke-dasharray="1,5" d="M689.3324,-364C632.5858,-364 557.9657,-364 503.4322,-364"/>
<polygon fill="none" stroke="#000000" points="503.1488,-360.5001 493.1488,-364 503.1488,-367.5001 503.1488,-360.5001"/>
</g>
<!-- \\Google\\AdsApi\\Common\\Util\\Reflection -->
<g id="node38" class="node">
<title>\\Google\\AdsApi\\Common\\Util\\Reflection</title>
<polygon fill="none" stroke="#000000" points="472.5,-2190 388.5,-2190 388.5,-2154 472.5,-2154 472.5,-2190"/>
<text text-anchor="middle" x="430.5" y="-2169.2" font-family="Courier,monospace" font-size="11.00" fill="#000000">Reflection</text>
</g>
<!-- \\Google\\AdsApi\\Common\\Util\\SoapRequests -->
<g id="node39" class="node">
<title>\\Google\\AdsApi\\Common\\Util\\SoapRequests</title>
<polygon fill="none" stroke="#000000" points="479.5,-2136 381.5,-2136 381.5,-2100 479.5,-2100 479.5,-2136"/>
<text text-anchor="middle" x="430.5" y="-2115.2" font-family="Courier,monospace" font-size="11.00" fill="#000000">SoapRequests</text>
</g>
<!-- \\Google\\AdsApi\\Common\\Util\\LogMessageScrubbers -->
<g id="node40" class="node">
<title>\\Google\\AdsApi\\Common\\Util\\LogMessageScrubbers</title>
<polygon fill="none" stroke="#000000" points="503,-2082 358,-2082 358,-2046 503,-2046 503,-2082"/>
<text text-anchor="middle" x="430.5" y="-2061.2" font-family="Courier,monospace" font-size="11.00" fill="#000000">LogMessageScrubbers</text>
</g>
<!-- \\Google\\AdsApi\\Common\\Util\\MapEntries -->
<g id="node41" class="node">
<title>\\Google\\AdsApi\\Common\\Util\\MapEntries</title>
<polygon fill="none" stroke="#000000" points="472.5,-2028 388.5,-2028 388.5,-1992 472.5,-1992 472.5,-2028"/>
<text text-anchor="middle" x="430.5" y="-2007.2" font-family="Courier,monospace" font-size="11.00" fill="#000000">MapEntries</text>
</g>
<!-- \\Google\\AdsApi\\Common\\Util\\EnvironmentalVariables -->
<g id="node42" class="node">
<title>\\Google\\AdsApi\\Common\\Util\\EnvironmentalVariables</title>
<polygon fill="none" stroke="#000000" points="513,-1974 348,-1974 348,-1938 513,-1938 513,-1974"/>
<text text-anchor="middle" x="430.5" y="-1953.2" font-family="Courier,monospace" font-size="11.00" fill="#000000">EnvironmentalVariables</text>
</g>
<!-- \\Google\\AdsApi\\Common\\Util\\OAuth2TokenRefresher -->
<g id="node43" class="node">
<title>\\Google\\AdsApi\\Common\\Util\\OAuth2TokenRefresher</title>
<polygon fill="none" stroke="#000000" points="506.5,-1920 354.5,-1920 354.5,-1884 506.5,-1884 506.5,-1920"/>
<text text-anchor="middle" x="430.5" y="-1899.2" font-family="Courier,monospace" font-size="11.00" fill="#000000">OAuth2TokenRefresher</text>
</g>
<!-- \\Google\\AdsApi\\Common\\Util\\SoapHeaders -->
<g id="node44" class="node">
<title>\\Google\\AdsApi\\Common\\Util\\SoapHeaders</title>
<polygon fill="none" stroke="#000000" points="476,-1866 385,-1866 385,-1830 476,-1830 476,-1866"/>
<text text-anchor="middle" x="430.5" y="-1845.2" font-family="Courier,monospace" font-size="11.00" fill="#000000">SoapHeaders</text>
</g>
<!-- \\Google\\AdsApi\\Common\\Testing\\ApplicationNames -->
<g id="node45" class="node">
<title>\\Google\\AdsApi\\Common\\Testing\\ApplicationNames</title>
<polygon fill="none" stroke="#000000" points="493,-1786 368,-1786 368,-1750 493,-1750 493,-1786"/>
<text text-anchor="middle" x="430.5" y="-1765.2" font-family="Courier,monospace" font-size="11.00" fill="#000000">ApplicationNames</text>
</g>
<!-- \\Google\\AdsApi\\Common\\Testing\\FakeInvalidMapEntry -->
<g id="node46" class="node">
<title>\\Google\\AdsApi\\Common\\Testing\\FakeInvalidMapEntry</title>
<polygon fill="none" stroke="#000000" points="503,-1732 358,-1732 358,-1696 503,-1696 503,-1732"/>
<text text-anchor="middle" x="430.5" y="-1711.2" font-family="Courier,monospace" font-size="11.00" fill="#000000">FakeInvalidMapEntry</text>
</g>
<!-- \\Google\\AdsApi\\Common\\Testing\\ConfigurationLoaderTestProvider -->
<g id="node47" class="node">
<title>\\Google\\AdsApi\\Common\\Testing\\ConfigurationLoaderTestProvider</title>
<polygon fill="none" stroke="#000000" points="543.5,-1678 317.5,-1678 317.5,-1642 543.5,-1642 543.5,-1678"/>
<text text-anchor="middle" x="430.5" y="-1657.2" font-family="Courier,monospace" font-size="11.00" fill="#000000">ConfigurationLoaderTestProvider</text>
</g>
<!-- \\Google\\AdsApi\\Common\\Testing\\FakeMapEntry -->
<g id="node48" class="node">
<title>\\Google\\AdsApi\\Common\\Testing\\FakeMapEntry</title>
<polygon fill="none" stroke="#000000" points="479.5,-1624 381.5,-1624 381.5,-1588 479.5,-1588 479.5,-1624"/>
<text text-anchor="middle" x="430.5" y="-1603.2" font-family="Courier,monospace" font-size="11.00" fill="#000000">FakeMapEntry</text>
</g>
<!-- \\Google\\AdsApi\\Common\\Testing\\AdsBuildersTestProvider -->
<g id="node49" class="node">
<title>\\Google\\AdsApi\\Common\\Testing\\AdsBuildersTestProvider</title>
<polygon fill="none" stroke="#000000" points="516.5,-1570 344.5,-1570 344.5,-1534 516.5,-1534 516.5,-1570"/>
<text text-anchor="middle" x="430.5" y="-1549.2" font-family="Courier,monospace" font-size="11.00" fill="#000000">AdsBuildersTestProvider</text>
</g>
<!-- \\Google\\AdsApi\\Common\\Testing\\FakeHttpPayloadsAndLogsProvider -->
<g id="node50" class="node">
<title>\\Google\\AdsApi\\Common\\Testing\\FakeHttpPayloadsAndLogsProvider</title>
<polygon fill="none" stroke="#000000" points="543.5,-1516 317.5,-1516 317.5,-1480 543.5,-1480 543.5,-1516"/>
<text text-anchor="middle" x="430.5" y="-1495.2" font-family="Courier,monospace" font-size="11.00" fill="#000000">FakeHttpPayloadsAndLogsProvider</text>
</g>
<!-- \\Google\\AdsApi\\Common\\Testing\\FakeSoapPayloadsAndLogsProvider -->
<g id="node51" class="node">
<title>\\Google\\AdsApi\\Common\\Testing\\FakeSoapPayloadsAndLogsProvider</title>
<polygon fill="none" stroke="#000000" points="543.5,-1462 317.5,-1462 317.5,-1426 543.5,-1426 543.5,-1462"/>
<text text-anchor="middle" x="430.5" y="-1441.2" font-family="Courier,monospace" font-size="11.00" fill="#000000">FakeSoapPayloadsAndLogsProvider</text>
</g>
<!-- \\Google\\AdsApi\\Common\\ConnectionSettings -->
<g id="node52" class="node">
<title>\\Google\\AdsApi\\Common\\ConnectionSettings</title>
<polygon fill="none" stroke="#000000" points="499.5,-1408 361.5,-1408 361.5,-1372 499.5,-1372 499.5,-1408"/>
<text text-anchor="middle" x="430.5" y="-1387.2" font-family="Courier,monospace" font-size="11.00" fill="#000000">ConnectionSettings</text>
</g>
<!-- \\Google\\AdsApi\\Common\\AdsGuzzleHttpClientFactory -->
<g id="node53" class="node">
<title>\\Google\\AdsApi\\Common\\AdsGuzzleHttpClientFactory</title>
<polygon fill="none" stroke="#000000" points="526.5,-1354 334.5,-1354 334.5,-1318 526.5,-1318 526.5,-1354"/>
<text text-anchor="middle" x="430.5" y="-1333.2" font-family="Courier,monospace" font-size="11.00" fill="#000000">AdsGuzzleHttpClientFactory</text>
</g>
<!-- \\Google\\AdsApi\\Common\\GuzzleHttpClientFactory -->
<g id="node77" class="node">
<title>\\Google\\AdsApi\\Common\\GuzzleHttpClientFactory</title>
<polygon fill="none" stroke="#000000" points="225.5,-1354 53.5,-1354 53.5,-1318 225.5,-1318 225.5,-1354"/>
<text text-anchor="middle" x="139.5" y="-1333.2" font-family="Courier,monospace" font-size="11.00" fill="#000000">GuzzleHttpClientFactory</text>
</g>
<!-- \\Google\\AdsApi\\Common\\AdsGuzzleHttpClientFactory&#45;&gt;\\Google\\AdsApi\\Common\\GuzzleHttpClientFactory -->
<g id="edge8" class="edge">
<title>\\Google\\AdsApi\\Common\\AdsGuzzleHttpClientFactory&#45;&gt;\\Google\\AdsApi\\Common\\GuzzleHttpClientFactory</title>
<path fill="none" stroke="#000000" stroke-dasharray="1,5" d="M334.4092,-1336C302.7399,-1336 267.5269,-1336 235.8391,-1336"/>
<polygon fill="none" stroke="#000000" points="235.6838,-1332.5001 225.6837,-1336 235.6837,-1339.5001 235.6838,-1332.5001"/>
</g>
<!-- \\Google\\AdsApi\\Common\\AdsSoapClient -->
<g id="node54" class="node">
<title>\\Google\\AdsApi\\Common\\AdsSoapClient</title>
<polygon fill="none" stroke="#000000" points="482.5,-544 378.5,-544 378.5,-508 482.5,-508 482.5,-544"/>
<text text-anchor="middle" x="430.5" y="-523.2" font-family="Courier,monospace" font-size="11.00" fill="#000000">AdsSoapClient</text>
</g>
<!-- \\SoapClient -->
<g id="node80" class="node">
<title>\\SoapClient</title>
<ellipse fill="none" stroke="#000000" cx="139.5" cy="-18" rx="51.9908" ry="18"/>
<text text-anchor="middle" x="139.5" y="-14.3" font-family="Times,serif" font-size="14.00" fill="#c0c0c0">\SoapClient</text>
</g>
<!-- \\Google\\AdsApi\\Common\\AdsSoapClient&#45;&gt;\\SoapClient -->
<g id="edge9" class="edge">
<title>\\Google\\AdsApi\\Common\\AdsSoapClient&#45;&gt;\\SoapClient</title>
<path fill="none" stroke="#000000" d="M378.4195,-527.0611C354.2214,-524.7206 326.9965,-517.5581 309.5,-499 175.1449,-356.4929 357.4064,-220.0111 239,-64 227.4964,-48.843 209.8009,-38.5087 192.5048,-31.542"/>
<polygon fill="none" stroke="#000000" points="193.5719,-28.2049 182.9789,-28.0089 191.1376,-34.768 193.5719,-28.2049"/>
</g>
<!-- \\Google\\AdsApi\\Common\\AdsLoggerFactory -->
<g id="node55" class="node">
<title>\\Google\\AdsApi\\Common\\AdsLoggerFactory</title>
<polygon fill="none" stroke="#000000" points="493,-1246 368,-1246 368,-1210 493,-1210 493,-1246"/>
<text text-anchor="middle" x="430.5" y="-1225.2" font-family="Courier,monospace" font-size="11.00" fill="#000000">AdsLoggerFactory</text>
</g>
<!-- \\Google\\AdsApi\\Common\\ConnectionSettingsBuilder -->
<g id="node56" class="node">
<title>\\Google\\AdsApi\\Common\\ConnectionSettingsBuilder</title>
<polygon fill="none" stroke="#000000" points="523,-1300 338,-1300 338,-1264 523,-1264 523,-1300"/>
<text text-anchor="middle" x="430.5" y="-1279.2" font-family="Courier,monospace" font-size="11.00" fill="#000000">ConnectionSettingsBuilder</text>
</g>
<!-- \\Google\\AdsApi\\Common\\ConnectionSettingsBuilder&#45;&gt;\\Google\\AdsApi\\Common\\AdsBuilder -->
<g id="edge10" class="edge">
<title>\\Google\\AdsApi\\Common\\ConnectionSettingsBuilder&#45;&gt;\\Google\\AdsApi\\Common\\AdsBuilder</title>
<path fill="none" stroke="#000000" stroke-dasharray="1,5" d="M337.6257,-1264.7656C289.3238,-1255.8024 232.0793,-1245.1797 191.574,-1237.6632"/>
<polygon fill="none" stroke="#000000" points="192.1231,-1234.2054 181.6523,-1235.8221 190.8459,-1241.0879 192.1231,-1234.2054"/>
</g>
<!-- \\Google\\AdsApi\\Common\\AdsGuzzleProxyHttpHandler -->
<g id="node57" class="node">
<title>\\Google\\AdsApi\\Common\\AdsGuzzleProxyHttpHandler</title>
<polygon fill="none" stroke="#000000" points="523,-1138 338,-1138 338,-1102 523,-1102 523,-1138"/>
<text text-anchor="middle" x="430.5" y="-1117.2" font-family="Courier,monospace" font-size="11.00" fill="#000000">AdsGuzzleProxyHttpHandler</text>
</g>
<!-- \\Google\\AdsApi\\Common\\LibraryMetadataProvider -->
<g id="node58" class="node">
<title>\\Google\\AdsApi\\Common\\LibraryMetadataProvider</title>
<polygon fill="none" stroke="#000000" points="516.5,-1084 344.5,-1084 344.5,-1048 516.5,-1048 516.5,-1084"/>
<text text-anchor="middle" x="430.5" y="-1063.2" font-family="Courier,monospace" font-size="11.00" fill="#000000">LibraryMetadataProvider</text>
</g>
<!-- \\Google\\AdsApi\\Common\\SoapSettings -->
<g id="node59" class="node">
<title>\\Google\\AdsApi\\Common\\SoapSettings</title>
<polygon fill="none" stroke="#000000" points="479.5,-1030 381.5,-1030 381.5,-994 479.5,-994 479.5,-1030"/>
<text text-anchor="middle" x="430.5" y="-1009.2" font-family="Courier,monospace" font-size="11.00" fill="#000000">SoapSettings</text>
</g>
<!-- \\Google\\AdsApi\\Common\\Configuration -->
<g id="node60" class="node">
<title>\\Google\\AdsApi\\Common\\Configuration</title>
<polygon fill="none" stroke="#000000" points="482.5,-976 378.5,-976 378.5,-940 482.5,-940 482.5,-976"/>
<text text-anchor="middle" x="430.5" y="-955.2" font-family="Courier,monospace" font-size="11.00" fill="#000000">Configuration</text>
</g>
<!-- \\Google\\AdsApi\\Common\\AdsSoapClientFactory -->
<g id="node61" class="node">
<title>\\Google\\AdsApi\\Common\\AdsSoapClientFactory</title>
<polygon fill="none" stroke="#000000" points="506.5,-922 354.5,-922 354.5,-886 506.5,-886 506.5,-922"/>
<text text-anchor="middle" x="430.5" y="-901.2" font-family="Courier,monospace" font-size="11.00" fill="#000000">AdsSoapClientFactory</text>
</g>
<!-- \\Google\\AdsApi\\Common\\AdsHeaderFormatter -->
<g id="node62" class="node">
<title>\\Google\\AdsApi\\Common\\AdsHeaderFormatter</title>
<polygon fill="none" stroke="#000000" points="499.5,-868 361.5,-868 361.5,-832 499.5,-832 499.5,-868"/>
<text text-anchor="middle" x="430.5" y="-847.2" font-family="Courier,monospace" font-size="11.00" fill="#000000">AdsHeaderFormatter</text>
</g>
<!-- \\Google\\AdsApi\\Common\\SoapLogMessageFormatter -->
<g id="node63" class="node">
<title>\\Google\\AdsApi\\Common\\SoapLogMessageFormatter</title>
<polygon fill="none" stroke="#000000" points="516.5,-814 344.5,-814 344.5,-778 516.5,-778 516.5,-814"/>
<text text-anchor="middle" x="430.5" y="-793.2" font-family="Courier,monospace" font-size="11.00" fill="#000000">SoapLogMessageFormatter</text>
</g>
<!-- \\Google\\AdsApi\\Common\\AdsUtilityRegistry -->
<g id="node64" class="node">
<title>\\Google\\AdsApi\\Common\\AdsUtilityRegistry</title>
<polygon fill="none" stroke="#000000" points="499.5,-706 361.5,-706 361.5,-670 499.5,-670 499.5,-706"/>
<text text-anchor="middle" x="430.5" y="-685.2" font-family="Courier,monospace" font-size="11.00" fill="#000000">AdsUtilityRegistry</text>
</g>
<!-- \\Google\\AdsApi\\Common\\AdsUtilityRegistryInterface -->
<g id="node73" class="node">
<title>\\Google\\AdsApi\\Common\\AdsUtilityRegistryInterface</title>
<polygon fill="none" stroke="#000000" points="239,-706 40,-706 40,-670 239,-670 239,-706"/>
<text text-anchor="middle" x="139.5" y="-685.2" font-family="Courier,monospace" font-size="11.00" fill="#000000">AdsUtilityRegistryInterface</text>
</g>
<!-- \\Google\\AdsApi\\Common\\AdsUtilityRegistry&#45;&gt;\\Google\\AdsApi\\Common\\AdsUtilityRegistryInterface -->
<g id="edge11" class="edge">
<title>\\Google\\AdsApi\\Common\\AdsUtilityRegistry&#45;&gt;\\Google\\AdsApi\\Common\\AdsUtilityRegistryInterface</title>
<path fill="none" stroke="#000000" stroke-dasharray="1,5" d="M361.168,-688C327.8233,-688 287.0458,-688 249.5991,-688"/>
<polygon fill="none" stroke="#000000" points="249.1345,-684.5001 239.1345,-688 249.1344,-691.5001 249.1345,-684.5001"/>
</g>
<!-- \\Google\\AdsApi\\Common\\SoapSettingsBuilder -->
<g id="node65" class="node">
<title>\\Google\\AdsApi\\Common\\SoapSettingsBuilder</title>
<polygon fill="none" stroke="#000000" points="503,-1192 358,-1192 358,-1156 503,-1156 503,-1192"/>
<text text-anchor="middle" x="430.5" y="-1171.2" font-family="Courier,monospace" font-size="11.00" fill="#000000">SoapSettingsBuilder</text>
</g>
<!-- \\Google\\AdsApi\\Common\\SoapSettingsBuilder&#45;&gt;\\Google\\AdsApi\\Common\\AdsBuilder -->
<g id="edge12" class="edge">
<title>\\Google\\AdsApi\\Common\\SoapSettingsBuilder&#45;&gt;\\Google\\AdsApi\\Common\\AdsBuilder</title>
<path fill="none" stroke="#000000" stroke-dasharray="1,5" d="M357.8191,-1187.4872C306.1716,-1197.0712 238.0311,-1209.7159 191.7075,-1218.312"/>
<polygon fill="none" stroke="#000000" points="190.7815,-1214.924 181.588,-1220.1899 192.0588,-1221.8065 190.7815,-1214.924"/>
</g>
<!-- \\Google\\AdsApi\\Common\\GuzzleLogMessageFormatter -->
<g id="node66" class="node">
<title>\\Google\\AdsApi\\Common\\GuzzleLogMessageFormatter</title>
<polygon fill="none" stroke="#000000" points="523,-652 338,-652 338,-616 523,-616 523,-652"/>
<text text-anchor="middle" x="430.5" y="-631.2" font-family="Courier,monospace" font-size="11.00" fill="#000000">GuzzleLogMessageFormatter</text>
</g>
<!-- \\Google\\AdsApi\\Common\\AdsUtility -->
<g id="node67" class="node">
<title>\\Google\\AdsApi\\Common\\AdsUtility</title>
<polygon fill="none" stroke="#000000" points="472.5,-598 388.5,-598 388.5,-562 472.5,-562 472.5,-598"/>
<text text-anchor="middle" x="430.5" y="-577.2" font-family="Courier,monospace" font-size="11.00" fill="#000000">AdsUtility</text>
</g>
<!-- \\Google\\AdsApi\\Common\\OAuth2TokenBuilder -->
<g id="node68" class="node">
<title>\\Google\\AdsApi\\Common\\OAuth2TokenBuilder</title>
<polygon fill="none" stroke="#000000" points="499.5,-760 361.5,-760 361.5,-724 499.5,-724 499.5,-760"/>
<text text-anchor="middle" x="430.5" y="-739.2" font-family="Courier,monospace" font-size="11.00" fill="#000000">OAuth2TokenBuilder</text>
</g>
<!-- \\Google\\AdsApi\\Common\\OAuth2TokenBuilder&#45;&gt;\\Google\\AdsApi\\Common\\AdsBuilder -->
<g id="edge13" class="edge">
<title>\\Google\\AdsApi\\Common\\OAuth2TokenBuilder&#45;&gt;\\Google\\AdsApi\\Common\\AdsBuilder</title>
<path fill="none" stroke="#000000" stroke-dasharray="1,5" d="M361.3115,-745.4596C342.7366,-749.378 323.8481,-756.4711 309.5,-769 175.6181,-885.9075 147.0257,-1118.186 141.0448,-1199.2681"/>
<polygon fill="none" stroke="#000000" points="137.5236,-1199.465 140.3423,-1209.678 144.5077,-1199.9363 137.5236,-1199.465"/>
</g>
<!-- \\Google\\AdsApi\\Common\\ConfigurationLoader -->
<g id="node69" class="node">
<title>\\Google\\AdsApi\\Common\\ConfigurationLoader</title>
<polygon fill="none" stroke="#000000" points="503,-490 358,-490 358,-454 503,-454 503,-490"/>
<text text-anchor="middle" x="430.5" y="-469.2" font-family="Courier,monospace" font-size="11.00" fill="#000000">ConfigurationLoader</text>
</g>
<!-- \\Google\\AdsApi\\Common\\GuzzleLogMessageHandler -->
<g id="node70" class="node">
<title>\\Google\\AdsApi\\Common\\GuzzleLogMessageHandler</title>
<polygon fill="none" stroke="#000000" points="516.5,-436 344.5,-436 344.5,-400 516.5,-400 516.5,-436"/>
<text text-anchor="middle" x="430.5" y="-415.2" font-family="Courier,monospace" font-size="11.00" fill="#000000">GuzzleLogMessageHandler</text>
</g>
</g>
</svg>
